<?xml version="1.0" standalone="no"?>
<!DOCTYPE svg PUBLIC "-//W3C//DTD SVG 20010904//EN"
 "http://www.w3.org/TR/2001/REC-SVG-20010904/DTD/svg10.dtd">
<svg version="1.0" xmlns="http://www.w3.org/2000/svg"
 width="600.000000pt" height="409.000000pt" viewBox="0 0 600.000000 409.000000"
 preserveAspectRatio="xMidYMid meet">
<g transform="translate(0.000000,409.000000) scale(0.100000,-0.100000)"
fill="#000000" stroke="none">
<path d="M0 2045 l0 -2045 3000 0 3000 0 0 2045 0 2045 -3000 0 -3000 0 0
-2045z m3628 1336 c357 -1 373 -2 392 -21 19 -19 20 -30 15 -321 -4 -295 -4
-301 17 -322 11 -12 17 -16 13 -8 -5 9 -4 12 3 7 8 -5 9 -13 2 -25 -5 -10 -7
-21 -4 -24 7 -7 6 -513 -2 -555 -4 -20 -3 -33 2 -29 6 3 10 -3 10 -13 0 -11
-2 -17 -4 -15 -3 2 -13 0 -23 -6 -14 -7 -18 -17 -13 -37 5 -25 4 -25 -7 -7 -7
11 -12 21 -13 21 -1 1 -12 5 -26 8 l-25 7 23 -20 c28 -24 28 -26 -3 -59 -23
-24 -33 -52 -20 -52 3 0 19 16 36 35 31 34 49 44 49 26 0 -5 -9 -13 -20 -16
-11 -3 -20 -13 -20 -21 0 -9 -5 -12 -11 -8 -8 4 -9 0 -4 -15 5 -18 2 -21 -22
-21 -21 0 -24 -3 -13 -9 8 -6 18 -7 22 -5 4 3 8 -2 8 -10 0 -9 -7 -16 -15 -16
-8 0 -15 -4 -15 -9 0 -5 7 -11 15 -15 18 -7 20 -36 3 -36 -10 0 -12 -19 -10
-70 1 -38 3 -102 5 -140 1 -39 -1 -70 -4 -70 -3 0 -6 -14 -7 -30 0 -17 4 -28
9 -24 5 3 9 2 8 -3 -1 -4 3 -21 10 -38 12 -28 22 -237 11 -230 -6 3 -3 -267 3
-302 2 -12 1 -20 -3 -18 -5 3 -6 -15 -4 -39 3 -31 0 -47 -11 -56 -25 -21
-2031 -5 -2054 16 -2 2 14 4 37 4 45 0 55 14 46 65 -11 60 -13 294 -4 300 6 3
10 18 10 33 0 20 -3 23 -9 13 -7 -10 -9 -7 -8 12 1 15 6 27 11 27 5 0 3 7 -4
15 -7 8 -9 15 -4 15 5 0 9 34 9 75 0 41 3 75 8 75 4 0 7 6 7 13 0 19 54 74 68
69 11 -3 13 30 10 159 -2 90 -7 167 -12 170 -4 4 -8 36 -8 73 1 76 26 156 51
156 10 1 7 6 -10 15 -15 8 -29 21 -32 29 -12 30 -10 543 1 562 9 14 12 -55 12
-266 0 -157 4 -290 8 -297 4 -7 37 -12 82 -13 41 -1 99 -3 128 -4 29 -1 55 1
58 6 3 5 10 6 15 2 6 -3 140 -8 297 -11 158 -2 320 -8 360 -14 40 -5 96 -9
124 -9 44 0 49 -2 38 -15 -9 -11 -16 -12 -25 -5 -6 5 -29 10 -51 10 -21 0
-160 2 -309 6 -148 3 -366 3 -482 -1 l-213 -7 -20 -33 c-15 -24 -20 -50 -20
-104 0 -41 4 -71 10 -71 6 0 10 -68 10 -184 l0 -183 -22 4 c-18 3 -27 -4 -43
-33 -19 -35 -20 -56 -19 -341 0 -166 4 -306 8 -310 4 -5 442 -9 972 -11 l964
-3 0 314 c0 307 0 314 -21 336 -12 13 -22 35 -22 50 3 189 3 565 0 567 -2 2
-89 4 -195 4 -105 1 -204 5 -219 10 -16 5 -20 9 -10 9 9 1 17 5 17 11 0 5 -8
6 -17 3 -16 -6 -16 -5 -4 10 13 16 15 16 30 -1 19 -21 62 -26 74 -9 7 9 10 9
14 0 2 -7 11 -13 19 -13 9 0 12 5 9 10 -3 6 -1 10 4 10 6 0 11 -4 11 -8 0 -12
77 -14 85 -2 4 7 13 7 27 -1 11 -6 46 -9 79 -7 33 2 59 -1 59 -7 0 -5 5 -4 12
3 16 16 28 15 28 -3 0 -18 40 -20 63 -2 14 10 17 49 23 302 6 292 2 345 -28
345 -10 0 -12 66 -10 318 l3 319 -437 6 c-241 4 -677 7 -971 7 l-533 0 -1 -67
c-1 -38 -2 -184 -3 -326 l-1 -259 37 5 c32 4 35 3 23 -9 -19 -19 -49 -18 -67
4 -12 14 -16 53 -18 197 -3 199 -3 186 1 340 2 73 7 114 16 125 14 16 88 16
1571 11z m-1075 -58 c-7 -2 -19 -2 -25 0 -7 3 -2 5 12 5 14 0 19 -2 13 -5z
m1055 -48 c-3 -3 -9 2 -12 12 -6 14 -5 15 5 6 7 -7 10 -15 7 -18z m157 16 c3
-5 1 -12 -5 -16 -5 -3 -10 1 -10 9 0 18 6 21 15 7z m-1515 -5 c0 -9 -40 -13
-46 -5 -3 5 6 9 20 9 14 0 26 -2 26 -4z m520 0 c0 -3 -4 -8 -10 -11 -5 -3 -10
-1 -10 4 0 6 5 11 10 11 6 0 10 -2 10 -4z m56 -9 c4 -4 -5 -7 -20 -7 -15 0
-25 4 -22 9 7 10 31 9 42 -2z m34 3 c0 -5 -2 -10 -4 -10 -3 0 -8 5 -11 10 -3
6 -1 10 4 10 6 0 11 -4 11 -10z m115 3 c-22 -3 -44 -8 -48 -13 -11 -9 -47 -1
-47 11 0 5 30 8 68 7 45 -1 54 -3 27 -5z m138 0 c-7 -2 -19 -2 -25 0 -7 3 -2
5 12 5 14 0 19 -2 13 -5z m271 -7 c-10 -8 -21 -12 -24 -10 -5 6 21 24 34 24 6
0 1 -6 -10 -14z m266 10 c0 -3 -4 -8 -10 -11 -5 -3 -10 -1 -10 4 0 6 5 11 10
11 6 0 10 -2 10 -4z m44 -11 c-4 -8 -8 -15 -10 -15 -2 0 -4 7 -4 15 0 8 4 15
10 15 5 0 7 -7 4 -15z m-1314 -5 c0 -5 -5 -10 -11 -10 -5 0 -7 5 -4 10 3 6 8
10 11 10 2 0 4 -4 4 -10z m63 3 c-7 -2 -21 -2 -30 0 -10 3 -4 5 12 5 17 0 24
-2 18 -5z m97 -3 c20 -6 15 -8 -21 -7 -26 1 -45 5 -42 10 5 9 30 8 63 -3z m67
-5 c23 -24 11 -26 -17 -5 -14 11 -19 20 -12 20 7 0 20 -7 29 -15z m50 9 c-3
-3 -12 -4 -19 -1 -8 3 -5 6 6 6 11 1 17 -2 13 -5z m203 -18 c0 -3 -4 -8 -10
-11 -5 -3 -10 -1 -10 4 0 6 5 11 10 11 6 0 10 -2 10 -4z m-383 -12 c-3 -3 -12
-4 -19 -1 -8 3 -5 6 6 6 11 1 17 -2 13 -5z m423 -8 c0 -2 -7 -7 -16 -10 -8 -3
-12 -2 -9 4 6 10 25 14 25 6z m-630 -21 c0 -8 -2 -15 -4 -15 -2 0 -6 7 -10 15
-3 8 -1 15 4 15 6 0 10 -7 10 -15z m1694 -1 c3 -8 2 -12 -4 -9 -6 3 -10 10
-10 16 0 14 7 11 14 -7z m-1447 -10 c-3 -3 -12 -4 -19 -1 -8 3 -5 6 6 6 11 1
17 -2 13 -5z m390 0 c-3 -3 -12 -4 -19 -1 -8 3 -5 6 6 6 11 1 17 -2 13 -5z
m983 -9 c-7 -9 -15 -13 -19 -10 -3 3 1 10 9 15 21 14 24 12 10 -5z m-673 -1
c-3 -3 -12 -4 -19 -1 -8 3 -5 6 6 6 11 1 17 -2 13 -5z m-813 -20 c3 -8 2 -12
-4 -9 -6 3 -10 10 -10 16 0 14 7 11 14 -7z m93 -6 c-3 -8 -6 -5 -6 6 -1 11 2
17 5 13 3 -3 4 -12 1 -19z m-383 -20 c-4 -6 -10 -5 -15 3 -14 22 -10 33 6 19
8 -7 12 -17 9 -22z m1076 22 c0 -5 -5 -10 -11 -10 -5 0 -7 5 -4 10 3 6 8 10
11 10 2 0 4 -4 4 -10z m-450 -10 c0 -5 -2 -10 -4 -10 -3 0 -8 5 -11 10 -3 6
-1 10 4 10 6 0 11 -4 11 -10z m250 6 c0 -3 -4 -8 -10 -11 -5 -3 -10 -1 -10 4
0 6 5 11 10 11 6 0 10 -2 10 -4z m390 0 c0 -11 -19 -15 -25 -6 -3 5 1 10 9 10
9 0 16 -2 16 -4z m-1150 -43 c0 -13 -4 -23 -10 -23 -6 0 -10 -35 -10 -85 0
-50 4 -85 10 -85 6 0 10 -9 10 -20 0 -17 -7 -20 -50 -20 -43 0 -50 3 -50 20 0
11 4 20 9 20 5 0 11 38 13 85 2 63 0 85 -9 85 -7 0 -13 10 -13 23 0 20 5 22
50 22 45 0 50 -2 50 -22z m260 -103 l0 -130 -29 0 c-25 0 -35 10 -78 78 -28
42 -53 84 -56 92 -3 8 -6 -27 -6 -77 l-1 -93 -27 0 -28 0 0 125 0 125 31 0
c27 0 36 -8 71 -62 57 -89 67 -110 68 -137 1 -30 21 -39 29 -14 8 27 4 86 -5
72 -4 -7 -5 -18 -2 -25 2 -6 0 -15 -5 -18 -6 -3 -10 33 -11 88 -2 91 -1 95 21
99 13 2 24 5 26 6 1 0 2 -57 2 -129z m230 100 c0 -30 -1 -31 -35 -24 l-35 6 0
-106 0 -106 -27 0 -28 0 3 106 4 107 -41 -7 c-39 -6 -41 -5 -41 19 0 24 1 24
98 28 53 1 98 4 100 5 1 1 2 -12 2 -28z m393 22 c23 -2 27 -6 27 -33 0 -26 -3
-30 -17 -24 -74 32 -133 -1 -133 -74 0 -51 31 -83 75 -79 24 2 30 8 30 28 0
20 -6 26 -28 28 -18 2 -27 9 -27 22 0 15 9 19 55 22 l55 3 0 -67 0 -66 -36
-12 c-53 -18 -115 -5 -149 30 -56 59 -39 172 32 210 27 14 40 16 116 12z m397
-21 c0 -24 -2 -24 -67 -6 -10 3 -3 -2 15 -10 l32 -15 0 -80 c0 -47 4 -80 10
-80 6 0 10 -9 10 -20 0 -17 -7 -20 -50 -20 -43 0 -50 3 -50 20 0 11 5 20 10
20 6 0 10 35 10 85 0 50 -4 85 -10 85 -5 0 -10 10 -10 23 0 20 5 22 50 22 46
0 50 -2 50 -24z m304 -43 c12 -31 25 -60 29 -65 5 -4 5 0 2 8 -3 9 2 38 12 64
16 42 23 50 51 56 17 3 32 5 32 3 0 -3 -18 -40 -40 -84 -29 -58 -40 -92 -40
-125 0 -43 -1 -45 -30 -45 -29 0 -30 2 -30 46 0 31 -11 69 -35 121 -19 42 -35
79 -35 83 0 4 14 5 32 1 27 -6 34 -14 52 -63z m-1429 52 c3 -5 1 -10 -4 -10
-6 0 -11 5 -11 10 0 6 2 10 4 10 3 0 8 -4 11 -10z m515 -15 c0 -23 -3 -24 -45
-20 -44 4 -45 3 -45 -26 0 -28 2 -29 43 -29 38 0 42 -2 43 -25 2 -23 -1 -25
-42 -25 -42 0 -44 -1 -44 -31 0 -30 0 -30 48 -28 42 3 47 1 48 -19 1 -21 -3
-22 -75 -22 l-76 0 0 125 0 125 73 0 c70 0 72 -1 72 -25z m460 5 c11 -11 20
-30 20 -43 0 -32 -29 -70 -47 -62 -14 5 -13 2 1 -17 31 -43 66 -98 66 -103 0
-3 -13 -5 -29 -5 -23 0 -34 9 -60 51 -38 61 -56 60 -55 -4 0 -45 -1 -47 -28
-47 l-28 0 0 125 0 125 70 0 c57 0 74 -4 90 -20z m360 -5 c0 -22 -4 -24 -36
-22 l-36 2 1 -102 2 -103 -30 0 -31 0 0 106 0 106 -35 -6 c-33 -6 -35 -5 -35
19 l0 25 100 0 c100 0 100 0 100 -25z m-1160 -119 c0 -3 -4 -8 -10 -11 -5 -3
-10 -1 -10 4 0 6 5 11 10 11 6 0 10 -2 10 -4z m1375 -96 c3 -5 1 -10 -4 -10
-6 0 -11 5 -11 10 0 6 2 10 4 10 3 0 8 -4 11 -10z m-1585 -40 c0 -5 -2 -10 -4
-10 -3 0 -8 5 -11 10 -3 6 -1 10 4 10 6 0 11 -4 11 -10z m40 -5 c10 -12 10
-15 -4 -15 -9 0 -16 7 -16 15 0 8 2 15 4 15 2 0 9 -7 16 -15z m115 5 c-3 -5
-12 -10 -18 -10 -7 0 -6 4 3 10 19 12 23 12 15 0z m1082 4 c-3 -3 -12 -4 -19
-1 -8 3 -5 6 6 6 11 1 17 -2 13 -5z m-627 -19 c0 -8 -5 -15 -11 -15 -5 0 -8 4
-5 9 4 5 0 12 -6 14 -8 3 -6 6 5 6 9 1 17 -6 17 -14z m-341 -4 c28 -2 1 -14
-33 -15 -20 -1 -32 3 -29 10 2 6 14 9 26 8 12 -1 28 -3 36 -3z m138 3 c-3 -3
-12 -4 -19 -1 -8 3 -5 6 6 6 11 1 17 -2 13 -5z m560 0 c-3 -3 -12 -4 -19 -1
-8 3 -5 6 6 6 11 1 17 -2 13 -5z m138 -12 c-3 -3 -11 0 -18 7 -9 10 -8 11 6 5
10 -3 15 -9 12 -12z m-724 -9 c13 -16 12 -17 -3 -4 -17 13 -22 21 -14 21 2 0
10 -8 17 -17z m434 7 c3 -5 1 -10 -4 -10 -6 0 -11 5 -11 10 0 6 2 10 4 10 3 0
8 -4 11 -10z m-962 -7 c-7 -2 -21 -2 -30 0 -10 3 -4 5 12 5 17 0 24 -2 18 -5z
m447 3 c0 -2 -8 -10 -17 -17 -16 -13 -17 -12 -4 4 13 16 21 21 21 13z m24 -5
c3 -5 -1 -11 -9 -14 -9 -4 -12 -1 -8 9 6 16 10 17 17 5z m373 3 c-3 -3 -12 -4
-19 -1 -8 3 -5 6 6 6 11 1 17 -2 13 -5z m586 -1 c-7 -2 -19 -2 -25 0 -7 3 -2
5 12 5 14 0 19 -2 13 -5z m-919 -19 c5 -14 4 -15 -9 -4 -17 14 -19 20 -6 20 5
0 12 -7 15 -16z m-444 -14 c0 -5 -2 -10 -4 -10 -3 0 -8 5 -11 10 -3 6 -1 10 4
10 6 0 11 -4 11 -10z m517 -6 c-3 -3 -12 -4 -19 -1 -8 3 -5 6 6 6 11 1 17 -2
13 -5z m68 -4 c3 -5 -1 -10 -10 -10 -9 0 -13 5 -10 10 3 6 8 10 10 10 2 0 7
-4 10 -10z m622 -12 c-3 -8 -6 -5 -6 6 -1 11 2 17 5 13 3 -3 4 -12 1 -19z
m-212 -8 c3 -5 1 -10 -4 -10 -6 0 -11 5 -11 10 0 6 2 10 4 10 3 0 8 -4 11 -10z
m713 -42 c8 -10 -39 -12 -231 -10 -133 2 -343 -2 -467 -8 -239 -13 -1150 -19
-1150 -9 0 4 6 9 13 12 7 2 251 6 542 7 481 2 1278 14 1281 18 1 1 6 -4 12
-10z m-1776 -52 c19 -14 14 -26 -11 -26 -13 0 -13 2 -2 9 8 5 9 11 3 15 -6 3
-17 0 -25 -8 -18 -18 -31 -8 -16 11 14 16 29 16 51 -1z m1761 -3 c-4 -11 -8
-13 -11 -5 -2 8 -17 11 -40 7 -30 -4 -32 -3 -12 4 44 16 70 13 63 -6z m-713
-1 c0 -4 -17 -6 -37 -4 -65 6 -70 10 -15 11 28 0 52 -3 52 -7z m113 -17 c-7
-21 -13 -19 -13 6 0 11 4 18 10 14 5 -3 7 -12 3 -20z m99 13 c-14 -14 -69 -16
-69 -3 0 6 18 11 39 11 26 1 36 -2 30 -8z m238 -7 c13 -13 13 -14 -3 -8 -10 4
-45 7 -78 7 -32 0 -59 4 -59 9 0 16 123 9 140 -8z m-1271 6 c-2 -1 -13 -9 -24
-17 -19 -14 -19 -14 -6 3 7 9 18 17 24 17 6 0 8 -1 6 -3z m311 -1 c0 -11 -19
-15 -25 -6 -3 5 1 10 9 10 9 0 16 -2 16 -4z m1035 -6 c4 -7 -3 -8 -22 -4 -38
9 -42 14 -10 14 14 0 29 -5 32 -10z m-1292 -15 c-3 -9 -8 -14 -10 -11 -3 3 -2
9 2 15 9 16 15 13 8 -4z m687 -5 c0 -13 -20 -13 -40 0 -12 8 -9 10 13 10 15 0
27 -4 27 -10z m40 0 c12 -8 11 -10 -7 -10 -13 0 -23 5 -23 10 0 13 11 13 30 0z
m745 -109 c-5 -13 -7 -13 -15 -1 -6 9 -5 19 0 24 15 15 12 29 -5 22 -14 -5
-14 -4 0 16 8 13 16 32 17 43 1 11 3 -4 5 -34 2 -29 1 -61 -2 -70z m-1610 99
c3 -5 1 -10 -4 -10 -6 0 -11 5 -11 10 0 6 2 10 4 10 3 0 8 -4 11 -10z m912 4
c-3 -3 -12 -4 -19 -1 -8 3 -5 6 6 6 11 1 17 -2 13 -5z m-607 -39 c0 -5 -5 -3
-10 5 -5 8 -10 20 -10 25 0 6 5 3 10 -5 5 -8 10 -19 10 -25z m147 29 c-3 -3
-12 -4 -19 -1 -8 3 -5 6 6 6 11 1 17 -2 13 -5z m-497 -14 c0 -5 -5 -10 -11
-10 -5 0 -7 5 -4 10 3 6 8 10 11 10 2 0 4 -4 4 -10z m447 4 c-3 -3 -12 -4 -19
-1 -8 3 -5 6 6 6 11 1 17 -2 13 -5z m0 -20 c-3 -3 -12 -4 -19 -1 -8 3 -5 6 6
6 11 1 17 -2 13 -5z m-263 -13 c4 -5 -3 -7 -14 -4 -23 6 -26 13 -6 13 8 0 17
-4 20 -9z m61 -1 c-3 -5 -10 -10 -16 -10 -5 0 -9 5 -9 10 0 6 7 10 16 10 8 0
12 -4 9 -10z m-265 -4 c0 -2 -11 -6 -25 -8 -13 -3 -22 -1 -19 3 5 9 44 13 44
5z m105 -6 c3 -5 1 -10 -4 -10 -6 0 -11 5 -11 10 0 6 2 10 4 10 3 0 8 -4 11
-10z m938 3 c-7 -2 -19 -2 -25 0 -7 3 -2 5 12 5 14 0 19 -2 13 -5z m510 -40
c-7 -2 -19 -2 -25 0 -7 3 -2 5 12 5 14 0 19 -2 13 -5z m-1206 -32 c3 -19 -2
-21 -42 -21 -43 0 -45 -1 -45 -30 0 -28 2 -30 40 -30 36 0 40 -2 40 -25 0 -25
-2 -26 -41 -20 l-40 6 3 -33 c3 -32 4 -33 44 -30 38 3 42 1 46 -22 l5 -26 -73
0 -74 0 0 128 0 127 67 -2 c59 -1 67 -4 70 -22z m134 19 c76 0 79 -1 79 -23 0
-20 -4 -23 -36 -19 l-35 4 3 -106 3 -106 -27 0 -28 0 0 106 c0 90 2 105 15
100 8 -3 15 -4 15 -2 0 3 3 11 6 20 4 11 1 16 -10 16 -9 0 -19 -7 -22 -15 -4
-9 -19 -15 -40 -15 -30 0 -34 3 -34 26 0 20 4 25 16 20 9 -3 51 -6 95 -6z
m164 -44 c-1 -24 -4 -47 -8 -52 -3 -5 21 -8 55 -6 l59 4 -4 49 c-5 49 -5 49
24 49 l29 0 0 -130 0 -130 -25 0 c-24 0 -25 3 -25 55 l0 55 -45 0 c-25 0 -48
0 -52 0 -4 0 -6 -23 -4 -50 2 -50 2 -50 -28 -50 l-31 0 0 128 0 129 29 -5 c26
-4 28 -7 26 -46z m285 18 c0 -14 -4 -23 -10 -19 -6 4 -10 -25 -10 -79 0 -51 4
-86 10 -86 6 0 10 -11 10 -25 0 -23 -4 -25 -45 -25 -41 0 -45 2 -45 25 0 14 4
25 10 25 6 0 10 35 9 85 -1 66 -4 85 -15 85 -8 0 -14 9 -14 20 0 17 7 20 50
20 47 0 50 -2 50 -26z m208 -5 c3 -26 2 -26 -46 -21 -43 4 -51 1 -66 -19 -9
-13 -16 -39 -16 -59 0 -20 7 -46 16 -59 15 -20 23 -23 65 -19 45 5 49 3 49
-17 0 -26 -17 -35 -66 -35 -73 0 -124 51 -124 124 0 90 48 138 135 133 46 -2
50 -4 53 -28z m180 -1 c3 -26 3 -27 -34 -17 -29 9 -40 8 -51 -4 -20 -19 -11
-33 37 -57 45 -23 60 -46 60 -89 0 -40 -34 -63 -94 -63 -57 0 -66 6 -66 42 0
28 1 29 28 14 35 -18 56 -18 72 1 15 18 0 41 -33 51 -38 11 -67 45 -67 79 0
56 27 75 100 72 41 -2 45 -4 48 -29z m362 -63 c0 -68 -6 -86 -23 -69 -3 3 -2
17 4 31 7 18 5 28 -6 39 -8 8 -12 21 -10 29 3 8 7 22 10 30 2 8 9 15 15 15 6
0 10 -30 10 -75z m-1823 23 c-3 -8 -6 -5 -6 6 -1 11 2 17 5 13 3 -3 4 -12 1
-19z m86 -5 c-13 -2 -33 -2 -45 0 -13 2 -3 4 22 4 25 0 35 -2 23 -4z m177 -3
c0 -5 -2 -10 -4 -10 -3 0 -8 5 -11 10 -3 6 -1 10 4 10 6 0 11 -4 11 -10z
m1264 -56 c3 -8 2 -12 -4 -9 -6 3 -10 10 -10 16 0 14 7 11 14 -7z m-1260 -30
c3 -8 2 -12 -4 -9 -6 3 -10 10 -10 16 0 14 7 11 14 -7z m1066 11 c0 -1 -10
-10 -22 -21 -14 -12 -18 -13 -10 -3 6 9 10 18 7 21 -3 2 2 5 10 5 8 0 15 -1
15 -2z m320 -15 c0 -5 -4 -10 -10 -10 -5 0 -10 5 -10 10 0 6 5 10 10 10 6 0
10 -4 10 -10z m127 4 c-3 -3 -12 -4 -19 -1 -8 3 -5 6 6 6 11 1 17 -2 13 -5z
m43 -38 c0 -22 -26 -43 -38 -31 -3 3 0 5 7 5 7 0 11 8 10 18 -2 26 0 32 11 32
6 0 10 -11 10 -24z m-1110 -7 c13 -9 13 -10 -2 -6 -9 3 -19 1 -22 -6 -2 -7 -5
-4 -5 6 -1 20 7 21 29 6z m140 1 c0 -5 -5 -10 -11 -10 -5 0 -7 5 -4 10 3 6 8
10 11 10 2 0 4 -4 4 -10z m677 -32 c-3 -8 -6 -5 -6 6 -1 11 2 17 5 13 3 -3 4
-12 1 -19z m-1467 2 c0 -5 -2 -10 -4 -10 -3 0 -8 5 -11 10 -3 6 -1 10 4 10 6
0 11 -4 11 -10z m644 -15 c3 -8 1 -15 -4 -15 -6 0 -10 7 -10 15 0 8 2 15 4 15
2 0 6 -7 10 -15z m1116 -45 c0 -50 -3 -60 -17 -60 -13 0 -14 3 -5 12 22 22 13
28 -45 29 -32 1 -47 3 -33 6 84 12 86 13 86 33 0 11 -4 20 -9 20 -4 0 -5 5 -2
10 15 25 25 5 25 -50z m-1140 46 c0 -2 -7 -7 -16 -10 -8 -3 -12 -2 -9 4 6 10
25 14 25 6z m1100 -6 c0 -5 -5 -10 -11 -10 -5 0 -7 5 -4 10 3 6 8 10 11 10 2
0 4 -4 4 -10z m-520 -30 c0 -5 -5 -10 -11 -10 -5 0 -7 5 -4 10 3 6 8 10 11 10
2 0 4 -4 4 -10z m116 -12 c22 -17 38 -68 25 -81 -8 -8 -11 -5 -11 14 0 35 -27
69 -54 69 -24 0 -61 -32 -49 -43 3 -4 1 -7 -6 -7 -8 0 -6 -8 5 -25 9 -14 12
-25 6 -25 -18 0 -33 38 -26 65 11 45 73 64 110 33z m44 6 c0 -8 -4 -12 -10 -9
-5 3 -10 10 -10 16 0 5 5 9 10 9 6 0 10 -7 10 -16z m207 -20 c-3 -3 -12 -4
-19 -1 -8 3 -5 6 6 6 11 1 17 -2 13 -5z m-388 -41 c-2 -31 -3 -33 -6 -10 -3
17 -11 27 -21 27 -15 0 -15 2 -2 10 25 16 30 12 29 -27z m278 30 c-20 -2 -52
-2 -70 0 -17 2 0 4 38 4 39 0 53 -2 32 -4z m-552 -13 c-3 -5 -1 -10 6 -10 7 0
10 -3 6 -6 -9 -9 -28 6 -22 17 4 5 8 9 11 9 3 0 2 -4 -1 -10z m52 4 c-3 -3
-12 -4 -19 -1 -8 3 -5 6 6 6 11 1 17 -2 13 -5z m96 -1 c-13 -2 -35 -2 -50 0
-16 2 -5 4 22 4 28 0 40 -2 28 -4z m243 -2 c-4 -5 -1 -11 6 -13 6 -2 9 -12 5
-21 -7 -19 -55 -52 -64 -44 -3 4 3 10 13 14 32 12 48 33 35 46 -14 14 -14 27
0 27 5 0 8 -4 5 -9z m-1209 -7 c-3 -3 -12 -4 -19 -1 -8 3 -5 6 6 6 11 1 17 -2
13 -5z m640 0 c-3 -3 -12 -4 -19 -1 -8 3 -5 6 6 6 11 1 17 -2 13 -5z m90 0
c-3 -3 -12 -4 -19 -1 -8 3 -5 6 6 6 11 1 17 -2 13 -5z m450 -26 c-3 -7 -5 -2
-5 12 0 14 2 19 5 13 2 -7 2 -19 0 -25z m106 -10 c-10 -21 -10 -21 -9 9 1 19
5 28 10 23 6 -6 5 -18 -1 -32z m-1006 20 c-15 -10 -80 -10 -73 0 2 4 23 7 45
7 23 1 35 -2 28 -7z m63 2 c-8 -5 -22 -9 -30 -9 -10 0 -8 3 5 9 27 12 43 12
25 0z m235 4 c-48 -8 -163 -9 -159 -2 3 4 44 7 92 7 48 -1 78 -3 67 -5z m-788
-37 c4 -12 6 -28 4 -35 -1 -8 3 -19 9 -27 6 -7 7 -16 2 -19 -4 -2 -9 -26 -11
-51 -5 -103 -18 -84 -16 23 2 89 0 115 -11 119 -8 3 -14 9 -14 14 0 16 29 -3
37 -24z m173 25 c0 -5 -13 -7 -30 -4 -16 2 -30 6 -30 8 0 2 14 4 30 4 17 0 30
-4 30 -8z m93 1 c-7 -2 -19 -2 -25 0 -7 3 -2 5 12 5 14 0 19 -2 13 -5z m94 1
c-3 -3 -12 -4 -19 -1 -8 3 -5 6 6 6 11 1 17 -2 13 -5z m1523 -30 c0 -23 -2
-24 -15 -10 -8 8 -15 19 -15 25 0 6 7 11 15 11 9 0 15 -10 15 -26z m-1924
-209 c-22 -47 -82 -70 -107 -41 -8 9 -19 22 -25 29 -20 23 -24 50 -14 82 9 29
43 55 70 55 18 0 10 -15 -12 -25 -13 -6 -29 -22 -36 -37 -11 -23 -10 -32 3
-58 21 -41 67 -45 97 -7 13 17 16 38 13 97 -2 41 0 86 3 100 4 15 9 -15 12
-75 3 -55 1 -109 -4 -120z m-30 149 c2 -25 -1 -55 -7 -65 -10 -20 -39 -26 -39
-8 0 6 6 9 14 6 16 -6 28 34 16 54 -8 12 -47 9 -85 -6 -18 -7 -18 -6 -5 8 8 9
32 17 53 19 32 2 37 5 37 27 0 41 12 15 16 -35z m1194 34 c0 -4 -4 -8 -9 -8
-6 0 -12 4 -15 8 -3 5 1 9 9 9 8 0 15 -4 15 -9z m60 5 c-14 -3 -31 -10 -37
-15 -9 -7 -13 -7 -13 0 0 13 18 21 50 20 l25 -1 -25 -4z m153 -5 c28 -13 38
-35 12 -24 -8 3 -15 2 -15 -3 0 -17 14 -20 29 -8 26 22 54 30 48 13 -3 -8 -2
-16 3 -18 5 -2 11 -17 13 -33 2 -17 7 -36 11 -43 4 -7 3 -12 -3 -12 -5 0 -12
-10 -14 -22 -2 -13 -5 5 -6 40 -1 67 -16 87 -46 62 -13 -11 -23 -10 -54 0 -23
7 -54 10 -74 6 -38 -7 -51 2 -36 24 7 12 11 12 17 3 10 -15 104 -14 99 2 -2 5
-26 13 -53 16 l-49 6 46 1 c25 1 57 -4 72 -10z m-153 -32 c0 -14 -5 -28 -10
-31 -6 -4 -10 5 -8 24 3 37 18 42 18 7z m801 -39 c-10 -9 -11 -8 -5 6 3 10 9
15 12 12 3 -3 0 -11 -7 -18z m-1861 3 c0 -5 -5 -10 -10 -10 -6 0 -22 -11 -35
-25 -27 -26 -31 -20 -13 20 11 25 58 37 58 15z m74 2 c3 -5 6 -150 7 -322 l1
-312 161 6 c153 7 239 12 602 35 83 6 209 13 280 16 72 3 193 9 270 15 225 15
315 18 310 10 -3 -4 -67 -11 -142 -15 -76 -3 -160 -8 -188 -10 -27 -2 -151 -9
-275 -15 -217 -10 -352 -20 -565 -39 -212 -20 -385 -27 -451 -20 -27 4 -30 6
-20 23 8 13 8 20 0 22 -6 3 -8 25 -4 59 5 42 3 55 -7 55 -7 0 -13 5 -13 10 0
6 5 10 10 10 16 0 12 53 -7 79 -16 23 -16 24 5 19 15 -4 20 -3 15 5 -4 7 -8
61 -8 120 0 59 -5 111 -10 115 -6 4 -10 14 -10 22 0 8 -6 14 -13 12 -9 -1 -8
5 4 22 8 14 12 31 8 37 -4 8 -3 9 5 5 7 -4 10 -20 8 -35 -3 -15 1 -40 8 -57
11 -27 12 -24 11 38 -1 36 -4 64 -7 62 -4 -2 -18 5 -30 16 l-24 19 32 1 c17 0
34 -4 37 -8z m539 1 c-7 -2 -19 -2 -25 0 -7 3 -2 5 12 5 14 0 19 -2 13 -5z
m471 -9 c3 -8 2 -12 -4 -9 -6 3 -13 -1 -16 -9 -8 -20 -24 -21 -24 -1 0 8 7 15
15 15 8 0 15 5 15 10 0 15 7 12 14 -6z m190 0 c8 -22 8 -24 -8 -24 -9 0 -14 9
-13 20 2 24 13 26 21 4z m56 12 c0 -3 -4 -8 -10 -11 -5 -3 -10 -1 -10 4 0 6 5
11 10 11 6 0 10 -2 10 -4z m82 -3 c-6 -2 -9 -10 -6 -15 4 -7 2 -8 -5 -4 -13 9
-5 26 12 25 9 0 8 -2 -1 -6z m-1732 -22 c-14 -28 -15 -92 -1 -119 14 -27 61
-52 96 -52 15 0 37 12 55 30 40 41 47 38 14 -5 -24 -32 -31 -35 -75 -35 -27 0
-49 5 -49 10 0 6 -6 9 -12 8 -7 -2 -23 17 -35 42 -19 39 -21 51 -12 93 6 26
15 47 20 47 6 0 6 -8 -1 -19z m525 9 c3 -5 2 -10 -4 -10 -5 0 -13 5 -16 10 -3
6 -2 10 4 10 5 0 13 -4 16 -10z m573 -26 c-3 -14 -5 -12 -10 9 -3 19 -2 25 4
19 6 -6 8 -18 6 -28z m410 16 c13 0 14 -2 3 -12 -11 -10 -14 -10 -18 0 -3 6
-12 12 -21 12 -15 0 -15 2 -2 10 10 6 16 6 18 0 2 -6 11 -10 20 -10z m292 11
c0 -5 8 -8 18 -6 9 1 11 0 5 -2 -7 -3 -13 -10 -13 -16 0 -7 -5 -4 -11 6 -7 11
-18 16 -35 13 -13 -3 -22 -2 -20 2 7 11 56 13 56 3z m130 1 c0 -4 -9 -8 -19
-8 -11 0 -17 4 -15 8 3 4 12 8 20 8 8 0 14 -4 14 -8z m55 -2 c3 -5 1 -18 -5
-27 -10 -16 -11 -16 -7 4 3 12 0 24 -7 27 -8 3 -8 5 1 5 6 1 15 -3 18 -9z
m-1485 -21 c0 -5 -4 -9 -8 -9 -5 0 -9 7 -9 15 0 8 4 12 9 9 4 -3 8 -9 8 -15z
m47 -11 c-3 -7 -5 -2 -5 12 0 14 2 19 5 13 2 -7 2 -19 0 -25z m1158 23 c3 -5
1 -12 -5 -16 -5 -3 -10 1 -10 9 0 18 6 21 15 7z m-465 -22 c0 -6 -4 -7 -10 -4
-5 3 -10 11 -10 16 0 6 5 7 10 4 6 -3 10 -11 10 -16z m-935 -9 c-10 -11 -15
-23 -11 -27 4 -4 11 -1 16 7 7 11 10 11 10 2 0 -7 -7 -15 -16 -19 -13 -5 -15
-14 -10 -45 4 -26 3 -37 -4 -33 -13 8 -11 105 3 123 5 6 14 12 20 12 5 0 2 -9
-8 -20z m136 -3 c-10 -9 -11 -8 -5 6 3 10 9 15 12 12 3 -3 0 -11 -7 -18z m83
7 c3 -8 2 -12 -4 -9 -6 3 -10 10 -10 16 0 14 7 11 14 -7z m263 -96 c-2 -24 -4
-7 -4 37 0 44 2 63 4 43 2 -21 2 -57 0 -80z m233 102 c0 -5 -5 -10 -11 -10 -5
0 -7 5 -4 10 3 6 8 10 11 10 2 0 4 -4 4 -10z m280 2 c0 -5 -7 -9 -15 -9 -8 0
-15 4 -15 9 0 4 7 8 15 8 8 0 15 -4 15 -8z m47 -7 c0 -8 -4 -15 -9 -15 -4 0
-8 7 -8 15 0 8 4 15 8 15 5 0 9 -7 9 -15z m83 11 c0 -2 -7 -6 -15 -10 -8 -3
-15 -1 -15 4 0 6 7 10 15 10 8 0 15 -2 15 -4z m40 -3 c-8 -3 -24 -13 -34 -22
-18 -15 -18 -15 -5 7 8 12 23 22 34 21 14 0 16 -2 5 -6z m90 -3 c0 -5 -2 -10
-4 -10 -3 0 -8 5 -11 10 -3 6 -1 10 4 10 6 0 11 -4 11 -10z m342 -32 c-6 -6
-7 0 -4 19 5 21 7 23 10 9 2 -10 0 -22 -6 -28z m-1833 4 c-10 -2 -19 -8 -19
-13 0 -6 5 -7 10 -4 6 4 9 1 8 -6 -2 -6 3 -14 11 -17 9 -3 11 0 6 7 -5 8 -1
11 11 9 14 -2 18 2 16 16 -2 11 1 15 7 11 19 -11 12 -32 -15 -50 -25 -16 -27
-16 -47 4 -18 17 -19 24 -9 46 10 21 14 24 26 13 12 -11 11 -13 -5 -16z m1531
16 c0 -4 -7 -8 -15 -8 -8 0 -15 4 -15 8 0 5 7 9 15 9 8 0 15 -4 15 -9z m57
-25 c-3 -10 -5 -4 -5 12 0 17 2 24 5 18 2 -7 2 -21 0 -30z m340 15 c-3 -8 -6
-5 -6 6 -1 11 2 17 5 13 3 -3 4 -12 1 -19z m-1410 -20 c-3 -7 -5 -2 -5 12 0
14 2 19 5 13 2 -7 2 -19 0 -25z m183 -28 c0 -33 -3 -60 -7 -60 -5 0 -6 27 -5
60 5 77 12 77 12 0z m122 20 c-6 -39 -9 -38 -14 4 -2 22 0 32 7 29 6 -2 9 -17
7 -33z m194 3 c-3 -4 -7 0 -7 8 -1 8 -5 -4 -9 -26 l-7 -40 -2 41 c-1 46 8 63
22 39 5 -9 6 -19 3 -22z m304 33 c0 -11 -19 -15 -25 -6 -3 5 1 10 9 10 9 0 16
-2 16 -4z m303 -15 c3 -14 1 -18 -9 -14 -8 3 -14 11 -14 19 0 21 17 17 23 -5z
m244 -13 c-3 -7 -5 -2 -5 12 0 14 2 19 5 13 2 -7 2 -19 0 -25z m80 10 c-3 -8
-6 -5 -6 6 -1 11 2 17 5 13 3 -3 4 -12 1 -19z m-1290 -25 c-3 -10 -5 -4 -5 12
0 17 2 24 5 18 2 -7 2 -21 0 -30z m100 -10 c-3 -10 -5 -2 -5 17 0 19 2 27 5
18 2 -10 2 -26 0 -35z m176 27 c3 -11 1 -18 -4 -14 -5 3 -9 12 -9 20 0 20 7
17 13 -6z m45 -16 c0 -42 -5 -41 -13 4 -3 18 -1 32 4 32 5 0 9 -16 9 -36z m70
15 c9 -12 9 -16 -1 -16 -7 0 -14 9 -14 20 -1 11 -1 18 0 16 2 -2 8 -11 15 -20z
m75 -31 c-6 -11 -33 -10 -33 2 0 5 6 7 14 4 10 -4 13 2 10 23 -4 27 -3 27 5 3
4 -14 6 -28 4 -32z m29 23 c2 -17 1 -28 -4 -25 -8 5 -12 54 -4 54 2 0 6 -13 8
-29z m233 9 c-14 -15 -15 -20 -4 -20 10 -1 8 -5 -5 -15 -20 -15 -46 -5 -46 18
0 6 7 2 15 -9 8 -10 15 -16 16 -11 7 32 20 57 32 57 5 0 2 -9 -8 -20z m262
-12 c-3 -7 -5 -2 -5 12 0 14 2 19 5 13 2 -7 2 -19 0 -25z m53 17 c0 -8 -2 -15
-4 -15 -2 0 -6 7 -10 15 -3 8 -1 15 4 15 6 0 10 -7 10 -15z m17 -17 c-3 -7 -5
-2 -5 12 0 14 2 19 5 13 2 -7 2 -19 0 -25z m-1327 -17 c12 -12 10 -11 -9 0
-14 9 -27 22 -29 30 -3 11 -1 11 10 -1 8 -8 20 -21 28 -29z m477 -13 c-2 -13
-4 -5 -4 17 -1 22 1 32 4 23 2 -10 2 -28 0 -40z m40 30 c-3 -8 -6 -5 -6 6 -1
11 2 17 5 13 3 -3 4 -12 1 -19z m373 18 c0 -2 -7 -7 -16 -10 -8 -3 -12 -2 -9
4 6 10 25 14 25 6z m167 -18 c-3 -8 -6 -5 -6 6 -1 11 2 17 5 13 3 -3 4 -12 1
-19z m69 -3 c-9 -9 -16 -13 -16 -8 0 12 22 34 28 28 2 -2 -3 -11 -12 -20z
m-1328 -25 c-1 -22 -5 -40 -9 -40 -5 0 -8 18 -6 40 3 52 17 52 15 0z m237 30
c3 -5 1 -10 -4 -10 -6 0 -11 5 -11 10 0 6 2 10 4 10 3 0 8 -4 11 -10z m796 -3
c-6 -8 -8 -16 -5 -20 3 -3 -4 -3 -16 0 l-21 6 23 12 c31 17 32 17 19 2z m207
-5 c2 -7 -1 -12 -8 -12 -6 0 -9 4 -6 9 4 5 1 12 -4 14 -6 3 -5 4 2 3 6 -1 14
-8 16 -14z m62 8 c0 -5 -2 -10 -4 -10 -3 0 -8 5 -11 10 -3 6 -1 10 4 10 6 0
11 -4 11 -10z m307 -12 c2 -17 0 -19 -7 -8 -5 8 -6 18 -4 22 8 12 10 10 11
-14z m113 12 c0 -5 -4 -10 -10 -10 -5 0 -10 5 -10 10 0 6 5 10 10 10 6 0 10
-4 10 -10z m37 -22 c-3 -8 -6 -5 -6 6 -1 11 2 17 5 13 3 -3 4 -12 1 -19z m236
7 c-3 -9 -8 -14 -10 -11 -3 3 -2 9 2 15 9 16 15 13 8 -4z m-1583 -5 c8 -5 11
-10 5 -10 -5 0 -17 5 -25 10 -8 5 -10 10 -5 10 6 0 17 -5 25 -10z m676 -3 c4
-4 0 -7 -9 -7 -9 0 -18 4 -21 9 -7 10 20 9 30 -2z m830 -15 c-18 -16 -18 -16
-6 6 6 13 14 21 18 18 3 -4 -2 -14 -12 -24z m51 22 c-3 -3 -12 -4 -19 -1 -8 3
-5 6 6 6 11 1 17 -2 13 -5z m-287 -7 c0 -1 -16 -40 -35 -86 -23 -54 -35 -98
-35 -129 0 -43 -2 -47 -25 -48 -24 -2 -25 1 -25 48 0 33 -10 72 -30 118 -36
82 -37 90 -6 90 24 0 27 -5 57 -85 l11 -30 19 63 c17 54 23 62 44 62 14 0 25
-1 25 -3z m-1407 -14 c-7 -2 -19 -2 -25 0 -7 3 -2 5 12 5 14 0 19 -2 13 -5z
m194 -15 c-3 -8 -6 -5 -6 6 -1 11 2 17 5 13 3 -3 4 -12 1 -19z m1023 -3 c0
-22 -4 -25 -39 -25 -29 0 -41 5 -44 18 -4 13 -5 11 -6 -5 -1 -14 5 -23 14 -23
12 0 15 -18 15 -102 l0 -103 -25 0 -25 0 0 107 0 108 -29 -6 c-24 -5 -29 -3
-33 20 -5 25 -5 25 71 29 42 1 82 4 89 5 7 1 12 -9 12 -23z m393 12 c3 -8 2
-20 -3 -26 -5 -9 -7 -4 -7 13 0 29 2 32 10 13z m-602 -5 c4 -1 9 -12 11 -25 4
-21 1 -23 -41 -23 -38 1 -46 -2 -46 -17 0 -10 17 -27 40 -40 98 -55 52 -174
-59 -153 -32 6 -36 10 -36 37 0 27 2 29 20 19 12 -6 33 -10 48 -8 42 5 35 38
-12 64 -49 28 -60 46 -51 91 5 26 14 38 37 47 25 11 63 14 89 8z m736 2 c-3
-3 -12 -4 -19 -1 -8 3 -5 6 6 6 11 1 17 -2 13 -5z m-1800 -10 c-3 -3 -12 -4
-19 -1 -8 3 -5 6 6 6 11 1 17 -2 13 -5z m905 -19 c5 -23 2 -25 -32 -25 -34 0
-38 -3 -42 -30 -4 -29 -3 -30 34 -30 33 0 38 -3 38 -23 0 -19 -5 -22 -35 -21
-33 2 -35 0 -35 -31 0 -33 0 -33 40 -28 38 5 40 4 40 -20 0 -24 -3 -25 -65
-29 l-65 -3 0 127 0 127 38 4 c80 8 79 8 84 -18z m855 0 c-4 -8 -14 -15 -22
-15 -9 0 -13 5 -10 10 4 6 11 8 16 5 5 -4 9 2 9 11 0 10 3 15 6 11 4 -3 4 -13
1 -22z m-1027 -115 l0 -130 -29 0 c-16 0 -31 6 -33 13 -5 18 -82 157 -88 157
-3 0 -4 -40 -2 -90 l3 -90 -25 0 -26 0 0 130 0 130 31 0 c24 0 30 -4 25 -16
-3 -8 -2 -13 3 -9 11 6 97 -144 93 -162 -1 -6 3 -15 9 -19 9 -5 10 1 5 22 -4
16 -10 66 -13 112 l-5 82 26 0 26 0 0 -130z m1046 93 c-8 -15 -15 -25 -16 -21
0 12 23 58 27 54 3 -2 -2 -17 -11 -33z m-1621 17 c3 -5 2 -10 -4 -10 -5 0 -13
5 -16 10 -3 6 -2 10 4 10 5 0 13 -4 16 -10z m-358 -22 c-3 -8 -6 -5 -6 6 -1
11 2 17 5 13 3 -3 4 -12 1 -19z m453 -110 l0 -133 -25 -1 c-24 -2 -25 1 -25
52 l0 54 -45 0 -45 0 0 -55 c0 -52 -1 -55 -25 -55 l-25 0 0 128 0 127 25 1
c24 2 25 -1 25 -52 0 -58 1 -59 59 -48 30 6 31 9 31 55 0 41 3 48 23 52 12 2
23 5 25 6 1 0 2 -59 2 -131z m199 122 c10 -5 26 -29 36 -52 51 -128 -75 -259
-164 -170 -76 76 -28 232 71 232 22 0 47 -4 57 -10z m-624 -10 c3 -5 1 -10 -4
-10 -6 0 -11 5 -11 10 0 6 2 10 4 10 3 0 8 -4 11 -10z m1653 -15 c-3 -3 -9 2
-12 12 -6 14 -5 15 5 6 7 -7 10 -15 7 -18z m270 10 c2 -1 -4 -5 -12 -8 -8 -3
-22 1 -33 9 -17 13 -16 14 12 8 17 -4 31 -8 33 -9z m-276 -32 c-6 -2 -10 -9
-6 -14 3 -5 0 -9 -5 -9 -12 0 -14 13 -4 23 3 4 11 7 17 6 6 0 5 -3 -2 -6z
m-1592 -8 c0 -2 -10 -9 -22 -15 -22 -11 -22 -10 -4 4 21 17 26 19 26 11z
m1561 -72 c-12 -20 -14 -14 -5 12 4 9 9 14 11 11 3 -2 0 -13 -6 -23z m-506 7
c-3 -5 -12 -10 -18 -10 -7 0 -6 4 3 10 19 12 23 12 15 0z m-1045 -130 c0 -13
-5 -18 -15 -14 -12 5 -13 10 -4 20 15 19 19 18 19 -6z m261 -3 c-10 -9 -11 -8
-5 6 3 10 9 15 12 12 3 -3 0 -11 -7 -18z m-340 -68 c-5 -13 -10 -19 -10 -12
-1 15 10 45 15 40 3 -2 0 -15 -5 -28z m-13 -62 c16 6 16 6 0 -10 -23 -23 -28
-21 -27 11 1 15 3 20 6 10 3 -11 10 -15 21 -11z m37 -17 c-3 -5 -12 -10 -18
-10 -7 0 -6 4 3 10 19 12 23 12 15 0z m-13 -43 c11 -4 21 0 27 11 6 9 10 13
10 7 0 -13 -28 -51 -35 -48 -10 3 -33 37 -34 48 0 6 3 6 8 -1 4 -6 15 -13 24
-17z m58 -12 c-7 -9 -15 -13 -18 -10 -3 2 1 11 8 20 7 9 15 13 18 10 3 -2 -1
-11 -8 -20z m1097 19 c-3 -3 -12 -4 -19 -1 -8 3 -5 6 6 6 11 1 17 -2 13 -5z
m-1266 -27 c-10 -9 -11 -8 -5 6 3 10 9 15 12 12 3 -3 0 -11 -7 -18z m735 -27
c0 -20 -7 -25 -19 -13 -4 3 -2 12 4 20 15 17 15 17 15 -7z m224 4 c0 -2 -7 -4
-15 -4 -8 0 -15 4 -15 10 0 5 7 7 15 4 8 -4 15 -8 15 -10z m80 12 c0 -3 -4 -8
-10 -11 -5 -3 -10 -1 -10 4 0 6 5 11 10 11 6 0 10 -2 10 -4z m90 -12 c0 -2 -9
-4 -20 -4 -11 0 -20 4 -20 9 0 5 9 7 20 4 11 -3 20 -7 20 -9z m408 -9 c-3 -3
-9 2 -12 12 -6 14 -5 15 5 6 7 -7 10 -15 7 -18z m109 19 c-3 -3 -12 -4 -19 -1
-8 3 -5 6 6 6 11 1 17 -2 13 -5z m153 -9 c10 -13 9 -15 -9 -15 -12 0 -21 6
-21 15 0 8 4 15 9 15 5 0 14 -7 21 -15z m-1015 -6 c12 -19 -5 -23 -22 -6 -16
16 -16 17 -1 17 9 0 20 -5 23 -11z m75 7 c0 -2 -11 -6 -25 -8 -14 -3 -25 -1
-25 3 0 5 11 9 25 9 14 0 25 -2 25 -4z m208 -3 c-10 -2 -18 -9 -18 -15 0 -6
-3 -9 -6 -5 -10 10 6 27 24 26 15 -1 15 -2 0 -6z m152 -3 c0 -5 -12 -10 -27
-9 -25 0 -26 1 -8 9 27 12 35 12 35 0z m125 0 c-16 -4 -34 -8 -40 -10 -18 -4
-26 0 -20 10 3 6 25 10 48 9 40 -1 40 -1 12 -9z m60 0 c3 -5 1 -10 -4 -10 -6
0 -11 5 -11 10 0 6 2 10 4 10 3 0 8 -4 11 -10z m65 0 c0 -5 -4 -10 -10 -10 -5
0 -10 5 -10 10 0 6 5 10 10 10 6 0 10 -4 10 -10z m105 0 c3 -5 1 -10 -4 -10
-6 0 -11 5 -11 10 0 6 2 10 4 10 3 0 8 -4 11 -10z m125 0 c12 -8 9 -10 -13
-10 -16 0 -26 4 -22 10 8 12 16 12 35 0z m145 0 c3 -5 -1 -10 -10 -10 -9 0
-13 5 -10 10 3 6 8 10 10 10 2 0 7 -4 10 -10z m45 -12 c0 -6 -6 -5 -15 2 -8 7
-15 14 -15 16 0 2 7 1 15 -2 8 -4 15 -11 15 -16z m-1633 -3 c0 -8 -4 -12 -9
-9 -4 3 -8 9 -8 15 0 5 4 9 8 9 5 0 9 -7 9 -15z m61 8 c-10 -2 -26 -2 -35 0
-10 3 -2 5 17 5 19 0 27 -2 18 -5z m107 -11 c-3 -3 -11 0 -18 7 -9 10 -8 11 6
5 10 -3 15 -9 12 -12z m-108 -8 c-3 -3 -12 -4 -19 -1 -8 3 -5 6 6 6 11 1 17
-2 13 -5z m200 -10 c-3 -3 -12 -4 -19 -1 -8 3 -5 6 6 6 11 1 17 -2 13 -5z
m110 0 c-3 -3 -12 -4 -19 -1 -8 3 -5 6 6 6 11 1 17 -2 13 -5z m423 -3 c0 -5
-7 -12 -16 -15 -14 -5 -15 -4 -4 9 14 17 20 19 20 6z m580 -1 c0 -5 -4 -10
-10 -10 -5 0 -10 5 -10 10 0 6 5 10 10 10 6 0 10 -4 10 -10z m-845 -10 c-3 -5
-12 -10 -18 -10 -7 0 -6 4 3 10 19 12 23 12 15 0z m1075 6 c0 -3 -4 -8 -10
-11 -5 -3 -10 -1 -10 4 0 6 5 11 10 11 6 0 10 -2 10 -4z m-1480 -10 c0 -2 -7
-7 -16 -10 -8 -3 -12 -2 -9 4 6 10 25 14 25 6z m-70 -21 c7 -9 8 -15 2 -15 -5
0 -12 7 -16 15 -3 8 -4 15 -2 15 2 0 9 -7 16 -15z m417 9 c-3 -3 -12 -4 -19
-1 -8 3 -5 6 6 6 11 1 17 -2 13 -5z m550 0 c-3 -3 -12 -4 -19 -1 -8 3 -5 6 6
6 11 1 17 -2 13 -5z m198 -4 c3 -6 -1 -7 -9 -4 -18 7 -21 14 -7 14 6 0 13 -4
16 -10z m-1050 -18 c-3 -3 -11 0 -18 7 -9 10 -8 11 6 5 10 -3 15 -9 12 -12z
m-150 -2 c3 -5 1 -10 -4 -10 -6 0 -11 5 -11 10 0 6 2 10 4 10 3 0 8 -4 11 -10z
m878 3 c-7 -2 -19 -2 -25 0 -7 3 -2 5 12 5 14 0 19 -2 13 -5z m633 -20 c-10
-10 -19 5 -10 18 6 11 8 11 12 0 2 -7 1 -15 -2 -18z m-1053 10 c-7 -2 -19 -2
-25 0 -7 3 -2 5 12 5 14 0 19 -2 13 -5z m957 -3 c0 -5 -7 -7 -15 -4 -8 4 -15
8 -15 10 0 2 7 4 15 4 8 0 15 -4 15 -10z m-1680 -4 c0 -11 -19 -15 -25 -6 -3
5 1 10 9 10 9 0 16 -2 16 -4z m1250 -6 c0 -5 -5 -10 -11 -10 -5 0 -7 5 -4 10
3 6 8 10 11 10 2 0 4 -4 4 -10z m180 6 c0 -3 -4 -8 -10 -11 -5 -3 -10 -1 -10
4 0 6 5 11 10 11 6 0 10 -2 10 -4z m-1088 -45 c50 -3 66 -85 23 -119 -14 -11
-21 -23 -16 -26 10 -7 71 -93 71 -102 0 -2 -16 -4 -35 -4 -19 0 -35 5 -35 10
0 19 -52 90 -66 90 -10 0 -14 -14 -14 -50 0 -48 -1 -50 -28 -50 l-27 0 2 128
c1 70 2 127 2 127 3 0 110 -3 123 -4z m248 -21 c0 -24 -3 -25 -45 -22 -44 4
-45 4 -45 -27 0 -30 2 -31 43 -31 39 0 43 -2 42 -22 -2 -20 -7 -23 -43 -22
-41 1 -42 0 -42 -31 l0 -32 50 5 c50 4 50 4 50 -24 l0 -29 -75 3 -75 4 0 126
0 127 70 0 c68 0 70 -1 70 -25z m185 22 c6 -4 11 -16 12 -27 2 -19 -4 -21 -50
-20 l-52 0 -1 -41 c0 -27 4 -41 13 -41 17 0 17 14 1 20 -7 2 -10 7 -7 11 8 9
59 -11 81 -31 22 -20 24 -86 4 -102 -24 -20 -70 -29 -111 -22 -34 5 -40 10
-42 35 -2 23 1 26 15 20 35 -15 84 -17 93 -3 14 23 11 28 -41 54 -75 38 -87
98 -28 139 23 16 95 22 113 8z m225 -29 c45 -58 5 -132 -72 -133 l-38 0 0 -48
c0 -47 -1 -48 -27 -45 l-28 5 2 126 c1 70 3 127 3 127 0 0 31 -1 70 -3 61 -3
72 -7 90 -29z m264 26 c3 -3 -4 -5 -14 -6 -11 -1 -22 2 -24 6 -5 8 30 8 38 0z
m134 5 c15 -4 22 -14 22 -29 0 -21 -4 -23 -37 -18 -57 7 -93 -24 -93 -82 0
-35 5 -48 26 -64 29 -23 55 -26 85 -11 17 9 19 7 19 -19 0 -23 -5 -30 -26 -35
-55 -14 -128 13 -150 56 -55 106 41 232 154 202z m-198 -24 c0 -17 -7 -20 -45
-20 -43 0 -45 -1 -45 -30 0 -28 2 -30 40 -30 36 0 40 -2 40 -25 0 -22 -4 -25
-40 -25 -38 0 -40 -2 -40 -31 0 -30 0 -31 46 -27 42 3 47 1 50 -19 4 -22 1
-23 -74 -23 l-78 0 1 125 0 125 73 0 c65 0 72 -2 72 -20z m442 -10 c3 -21 1
-27 -6 -20 -5 5 -23 10 -38 10 l-28 0 0 -108 0 -109 -30 5 -30 4 0 88 c0 89 6
124 20 115 4 -2 16 2 26 10 18 14 18 15 -3 12 -12 -2 -26 -6 -29 -10 -4 -4
-24 -7 -44 -7 -29 0 -36 4 -36 20 0 19 7 20 97 20 l97 0 4 -30z m-1495 -6 c-3
-3 -12 -4 -19 -1 -8 3 -5 6 6 6 11 1 17 -2 13 -5z m1283 -54 c0 -5 -5 -10 -11
-10 -5 0 -7 5 -4 10 3 6 8 10 11 10 2 0 4 -4 4 -10z m313 3 c-7 -2 -19 -2 -25
0 -7 3 -2 5 12 5 14 0 19 -2 13 -5z m-1700 -10 c-7 -2 -19 -2 -25 0 -7 3 -2 5
12 5 14 0 19 -2 13 -5z m1312 -3 c-3 -5 -11 -10 -16 -10 -6 0 -7 5 -4 10 3 6
11 10 16 10 6 0 7 -4 4 -10z m412 -12 c-3 -8 -6 -5 -6 6 -1 11 2 17 5 13 3 -3
4 -12 1 -19z m-1614 -65 c-7 -2 -19 -2 -25 0 -7 3 -2 5 12 5 14 0 19 -2 13 -5z
m532 -3 c3 -6 -1 -7 -9 -4 -18 7 -21 14 -7 14 6 0 13 -4 16 -10z m940 -70 c3
-5 -1 -10 -10 -10 -9 0 -13 5 -10 10 3 6 8 10 10 10 2 0 7 -4 10 -10z m-839
-9 c-4 -5 -2 -11 4 -13 6 -2 1 -9 -11 -16 -17 -11 -20 -11 -13 0 5 7 9 16 10
21 3 15 4 17 10 17 3 0 3 -4 0 -9z m141 -13 c-3 -8 -6 -5 -6 6 -1 11 2 17 5
13 3 -3 4 -12 1 -19z m329 -9 c1 -32 1 -32 -12 -8 -9 18 -9 26 -1 31 7 4 12 8
12 8 0 0 1 -14 1 -31z m-1051 11 c3 -6 -1 -7 -9 -4 -18 7 -21 14 -7 14 6 0 13
-4 16 -10z m95 -10 c0 -13 -6 -20 -17 -19 -11 0 -13 3 -5 6 6 2 12 11 12 19 0
8 2 14 5 14 3 0 5 -9 5 -20z m1160 -5 c11 -13 10 -14 -4 -9 -9 3 -16 10 -16
15 0 13 6 11 20 -6z m-1305 -5 c3 -5 2 -10 -4 -10 -5 0 -13 5 -16 10 -3 6 -2
10 4 10 5 0 13 -4 16 -10z m574 6 c-15 -13 -49 -25 -49 -17 0 5 8 12 18 14 24
6 36 8 31 3z m693 -3 c-6 -2 -10 -9 -7 -14 4 -5 -1 -6 -10 -2 -13 5 -14 7 -3
14 7 5 18 8 23 8 6 0 4 -3 -3 -6z m-1219 -10 c-7 -2 -19 -2 -25 0 -7 3 -2 5
12 5 14 0 19 -2 13 -5z m271 -1 c2 -4 -5 -9 -17 -9 -17 -2 -19 0 -7 7 18 12
18 12 24 2z m1081 -20 c-3 -3 -11 0 -18 7 -9 10 -8 11 6 5 10 -3 15 -9 12 -12z
m-1042 -39 c-7 -2 -19 -2 -25 0 -7 3 -2 5 12 5 14 0 19 -2 13 -5z"/>
<path d="M3967 2004 c-4 -4 -7 -14 -7 -23 0 -11 3 -12 11 -4 6 6 10 16 7 23
-2 6 -7 8 -11 4z"/>
<path d="M3965 1810 c-3 -5 -1 -10 4 -10 6 0 11 5 11 10 0 6 -2 10 -4 10 -3 0
-8 -4 -11 -10z"/>
<path d="M2013 985 c0 -27 2 -38 4 -22 2 15 2 37 0 50 -2 12 -4 0 -4 -28z"/>
<path d="M2175 3100 c3 -5 8 -10 11 -10 2 0 4 5 4 10 0 6 -5 10 -11 10 -5 0
-7 -4 -4 -10z"/>
<path d="M2181 2984 c0 -11 3 -14 6 -6 3 7 2 16 -1 19 -3 4 -6 -2 -5 -13z"/>
<path d="M2174 2931 c4 -5 0 -12 -6 -14 -7 -3 -3 -6 9 -6 16 -1 21 3 17 14 -4
8 -10 15 -16 15 -5 0 -7 -4 -4 -9z"/>
<path d="M2297 3098 c-7 -24 3 -42 10 -20 3 6 9 10 14 6 14 -9 10 12 -5 25
-11 9 -15 7 -19 -11z"/>
<path d="M2462 3065 c0 -16 2 -22 5 -12 2 9 2 23 0 30 -3 6 -5 -1 -5 -18z"/>
<path d="M2620 3090 c0 -11 2 -20 4 -20 2 0 6 9 9 20 3 11 1 20 -4 20 -5 0 -9
-9 -9 -20z"/>
<path d="M2973 3073 c-3 -10 -8 -22 -11 -27 -3 -5 0 -6 5 -3 11 7 25 47 17 47
-3 0 -7 -8 -11 -17z"/>
<path d="M3110 2990 c0 -5 5 -10 10 -10 6 0 10 5 10 10 0 6 -4 10 -10 10 -5 0
-10 -4 -10 -10z"/>
<path d="M3000 2926 c0 -2 8 -10 18 -17 15 -13 16 -12 3 4 -13 16 -21 21 -21
13z"/>
<path d="M3450 2925 c0 -8 2 -15 4 -15 2 0 6 7 10 15 3 8 1 15 -4 15 -6 0 -10
-7 -10 -15z"/>
<path d="M2790 3109 c0 -5 5 -7 10 -4 6 3 10 8 10 11 0 2 -4 4 -10 4 -5 0 -10
-5 -10 -11z"/>
<path d="M2781 3074 c0 -11 3 -14 6 -6 3 7 2 16 -1 19 -3 4 -6 -2 -5 -13z"/>
<path d="M2781 3002 c1 -23 3 -29 6 -14 2 12 8 20 12 18 4 -3 8 1 8 9 0 8 -6
16 -14 19 -9 4 -13 -5 -12 -32z"/>
<path d="M3225 3110 c-3 -5 -1 -10 4 -10 6 0 11 5 11 10 0 6 -2 10 -4 10 -3 0
-8 -4 -11 -10z"/>
<path d="M3252 3065 c0 -29 4 -35 22 -35 41 0 65 51 30 64 -38 15 -52 7 -52
-29z"/>
<path d="M3335 3089 c-4 -6 -5 -12 -2 -15 2 -3 7 2 10 11 7 17 1 20 -8 4z"/>
<path d="M3230 2995 c-7 -8 -9 -15 -6 -15 4 0 14 7 22 15 9 8 11 15 6 15 -5 0
-15 -7 -22 -15z"/>
<path d="M3300 2986 c0 -2 8 -10 18 -17 15 -13 16 -12 3 4 -13 16 -21 21 -21
13z"/>
<path d="M3341 2933 c7 -12 15 -20 18 -17 3 2 -3 12 -13 22 -17 16 -18 16 -5
-5z"/>
<path d="M3620 3109 c0 -5 -6 -7 -12 -3 -10 5 -10 4 -1 -6 9 -10 15 -10 28 4
15 14 15 16 1 16 -9 0 -16 -5 -16 -11z"/>
<path d="M2522 2489 c10 -7 10 -9 -1 -9 -8 0 -12 -2 -9 -5 3 -3 18 1 33 9 l28
15 -32 -1 c-21 -1 -28 -4 -19 -9z"/>
<path d="M2512 2390 c1 -30 18 -44 18 -14 0 9 5 12 12 8 7 -4 8 -3 4 5 -4 6
-12 8 -18 5 -7 -5 -9 -1 -5 9 3 10 2 17 -3 17 -5 0 -8 -13 -8 -30z"/>
<path d="M2510 2306 c0 -2 7 -7 16 -10 8 -3 12 -2 9 4 -6 10 -25 14 -25 6z"/>
<path d="M2891 2424 c0 -11 3 -14 6 -6 3 7 2 16 -1 19 -3 4 -6 -2 -5 -13z"/>
<path d="M3042 2394 c-9 -10 -10 -19 -4 -27 5 -7 12 -21 15 -32 2 -11 5 1 6
28 1 52 1 52 -17 31z"/>
<path d="M2893 2378 c2 -21 6 -22 30 -4 16 13 16 14 -7 18 -19 4 -24 1 -23
-14z"/>
<path d="M3158 2305 c-3 -16 -1 -25 7 -25 8 0 10 9 7 25 -2 14 -6 25 -7 25 -1
0 -5 -11 -7 -25z"/>
<path d="M3280 2460 c-13 -8 -13 -10 2 -10 9 0 20 5 23 10 8 13 -5 13 -25 0z"/>
<path d="M3264 2431 c4 -5 1 -12 -4 -14 -6 -3 -5 -4 2 -3 15 3 23 26 8 26 -6
0 -9 -4 -6 -9z"/>
<path d="M3255 2329 c-5 -8 -4 -10 3 -5 7 4 12 1 12 -8 0 -8 4 -17 9 -20 13
-8 7 22 -6 35 -8 8 -13 7 -18 -2z"/>
<path d="M3480 2470 c-8 -5 -10 -10 -5 -10 6 0 17 5 25 10 8 5 11 10 5 10 -5
0 -17 -5 -25 -10z"/>
<path d="M3467 2444 c-7 -8 3 -34 13 -34 9 0 8 26 -1 35 -3 3 -8 2 -12 -1z"/>
<path d="M3500 2391 c0 -5 7 -12 16 -15 14 -5 15 -4 4 9 -14 17 -20 19 -20 6z"/>
<path d="M3550 2373 c5 -2 7 -10 3 -16 -3 -7 -3 -9 2 -5 4 4 15 0 23 -10 12
-15 12 -14 0 7 -8 14 -20 26 -27 27 -6 1 -7 0 -1 -3z"/>
<path d="M3569 2293 c-13 -16 -12 -17 4 -4 16 13 21 21 13 21 -2 0 -10 -8 -17
-17z"/>
<path d="M3941 2434 c0 -11 3 -14 6 -6 3 7 2 16 -1 19 -3 4 -6 -2 -5 -13z"/>
<path d="M3716 1769 c21 -23 21 -23 21 -5 0 8 -9 17 -20 20 -18 4 -18 4 -1
-15z"/>
<path d="M3334 1855 c-10 -8 -14 -15 -8 -15 5 0 19 7 30 15 10 8 14 15 8 15
-5 0 -19 -7 -30 -15z"/>
<path d="M3329 1776 c13 -16 51 -41 51 -33 0 2 -15 14 -32 27 -21 15 -28 17
-19 6z"/>
<path d="M3396 1727 c3 -10 9 -15 12 -12 3 3 0 11 -7 18 -10 9 -11 8 -5 -6z"/>
<path d="M3170 1750 c0 -5 5 -10 11 -10 5 0 7 5 4 10 -3 6 -8 10 -11 10 -2 0
-4 -4 -4 -10z"/>
<path d="M2921 1808 c-1 -20 14 -24 25 -6 4 6 3 8 -4 4 -5 -3 -13 0 -15 6 -3
8 -6 6 -6 -4z"/>
<path d="M2450 1721 c0 -6 4 -13 10 -16 6 -3 7 1 4 9 -7 18 -14 21 -14 7z"/>
<path d="M2565 1710 c-3 -5 -1 -10 4 -10 6 0 11 5 11 10 0 6 -2 10 -4 10 -3 0
-8 -4 -11 -10z"/>
<path d="M2721 1791 c-26 -26 -30 -111 -5 -135 33 -33 77 -12 89 44 7 31 -10
100 -25 100 -5 0 -15 3 -23 6 -9 3 -25 -4 -36 -15z"/>
<path d="M2700 1626 c0 -2 7 -7 16 -10 8 -3 12 -2 9 4 -6 10 -25 14 -25 6z"/>
<path d="M2316 1172 c-2 -4 0 -14 6 -22 8 -12 9 -12 5 2 -3 9 -1 19 6 22 9 3
9 5 0 5 -6 1 -14 -3 -17 -7z"/>
<path d="M2425 1170 c-3 -5 -1 -10 4 -10 6 0 11 5 11 10 0 6 -2 10 -4 10 -3 0
-8 -4 -11 -10z"/>
<path d="M2350 1129 c0 -35 3 -39 25 -39 30 0 52 34 35 55 -6 7 -22 15 -35 18
-23 4 -25 1 -25 -34z"/>
<path d="M2437 1130 c-3 -11 0 -23 6 -27 7 -3 9 -3 5 2 -4 4 -3 16 3 26 5 11
6 19 1 19 -6 0 -12 -9 -15 -20z"/>
<path d="M2323 1060 c0 -30 2 -46 4 -35 3 11 10 26 16 33 7 9 7 16 0 20 -5 4
-12 14 -15 22 -3 8 -5 -10 -5 -40z"/>
<path d="M2390 1059 c0 -5 5 -7 10 -4 6 3 10 8 10 11 0 2 -4 4 -10 4 -5 0 -10
-5 -10 -11z"/>
<path d="M2563 1183 c-7 -3 -13 -21 -13 -40 0 -40 6 -42 12 -3 1 14 7 28 13
32 12 9 4 17 -12 11z"/>
<path d="M2551 1032 c2 -42 6 -59 16 -59 9 0 10 4 3 11 -16 16 -12 76 5 82 18
7 10 24 -11 24 -12 0 -15 -12 -13 -58z"/>
<path d="M2725 1150 c-3 -5 -1 -10 6 -10 8 0 8 -4 -1 -15 -11 -13 -10 -14 3
-9 9 3 15 14 14 25 -1 21 -12 25 -22 9z"/>
<path d="M2807 1073 c-4 -6 2 -18 12 -27 14 -13 21 -14 27 -5 5 8 3 10 -6 4
-10 -6 -12 -4 -7 9 4 9 3 15 -2 11 -5 -3 -11 0 -13 7 -3 8 -6 9 -11 1z"/>
<path d="M2827 986 c-4 -10 -1 -13 8 -9 8 3 12 9 9 14 -7 12 -11 11 -17 -5z"/>
<path d="M2945 1170 c-16 -7 -17 -9 -3 -9 9 -1 20 4 23 9 7 11 7 11 -20 0z"/>
<path d="M3035 1171 c-4 -7 -1 -10 7 -9 7 2 12 -5 11 -16 -1 -13 2 -15 10 -7
8 8 7 15 -5 27 -11 11 -18 13 -23 5z"/>
<path d="M2970 1120 c0 -38 2 -40 30 -40 23 0 31 5 36 25 8 31 -10 55 -42 55
-21 0 -24 -5 -24 -40z"/>
<path d="M3039 1073 c-13 -16 -12 -17 4 -4 16 13 21 21 13 21 -2 0 -10 -8 -17
-17z"/>
<path d="M2942 1028 c1 -41 2 -45 5 -18 3 19 9 40 14 46 5 6 6 14 2 17 -16 17
-23 3 -21 -45z"/>
<path d="M3360 1150 c-9 -6 -10 -10 -3 -10 6 0 15 5 18 10 8 12 4 12 -15 0z"/>
<path d="M3340 1120 c-9 -6 -10 -10 -3 -10 6 0 15 5 18 10 8 12 4 12 -15 0z"/>
<path d="M3330 1080 c0 -5 5 -10 10 -10 6 0 10 5 10 10 0 6 -4 10 -10 10 -5 0
-10 -4 -10 -10z"/>
<path d="M3340 1033 c0 -7 6 -13 13 -13 9 0 8 -3 -2 -9 -9 -6 -10 -11 -2 -15
6 -4 11 -4 11 1 0 4 5 1 10 -7 5 -8 10 -10 10 -4 0 7 -9 22 -20 35 -10 13 -19
18 -20 12z"/>
<path d="M3162 1170 c0 -14 2 -19 5 -12 2 6 2 18 0 25 -3 6 -5 1 -5 -13z"/>
<path d="M3162 1079 c-1 -25 2 -28 13 -19 11 9 12 17 4 31 -13 26 -16 24 -17
-12z"/>
<path d="M3160 994 c0 -17 17 -36 24 -26 3 5 -1 15 -9 22 -8 7 -15 9 -15 4z"/>
</g>
</svg>
