<svg xmlns="http://www.w3.org/2000/svg" width="100%" height="auto" viewBox="0 0 400 400" version="1.1">
	<path d="M 175 27.637 C 106.884 37.965, 51.393 86.361, 32.532 151.890 C 27.848 168.161, 25.999 181.832, 26.006 200.128 C 26.017 228.434, 30.830 250.073, 42.659 275 C 51.620 293.882, 61.325 307.490, 76.920 323.042 C 94.722 340.794, 109.521 350.957, 131.480 360.511 C 153.494 370.089, 174.145 374.220, 200 374.220 C 225.867 374.220, 246.505 370.089, 268.550 360.498 C 318.699 338.679, 355.406 295.844, 368.971 243.313 C 374.093 223.478, 375.523 195.012, 372.440 174.249 C 362.264 105.716, 311.385 49.286, 243.755 31.525 C 222.924 26.054, 195.622 24.510, 175 27.637 M 134.500 116.945 C 127.139 119.958, 125.469 131.077, 131.647 135.937 C 135.070 138.629, 141.599 138.660, 145 136 C 147.245 134.244, 149.132 134.045, 163.500 134.054 C 181.646 134.065, 183 134.503, 183 140.360 L 183 144 174.057 144 C 163.111 144, 162 144.988, 162 154.723 L 162 161 140 161 L 118 161 118 178.500 L 118 196 142.418 196 L 166.837 196 168.957 199.430 C 174.410 208.253, 183.298 212.118, 193.340 210.033 C 199.361 208.783, 204.247 205.482, 208.561 199.750 L 211.384 196 220.737 196 C 229.335 196, 230.289 196.198, 232.545 198.455 C 235.178 201.087, 235.707 204.894, 233.854 207.863 C 232.164 210.568, 233.617 214.904, 236.593 216.035 C 237.988 216.566, 247.671 217, 258.111 217 C 276.929 217, 277.112 216.979, 279.545 214.545 C 282.523 211.568, 282.611 210.046, 280 206.727 C 278.291 204.554, 278 202.670, 278 193.774 C 278 176.922, 274.464 169.498, 263.694 163.742 C 259.805 161.663, 257.866 161.464, 237 161 L 214.500 160.500 214 153.212 C 213.660 148.249, 213.021 145.622, 212 144.977 C 210.716 144.167, 199.037 143.434, 195.250 143.925 C 193.251 144.185, 193.673 136.968, 195.750 135.392 C 197.010 134.436, 201.484 134.055, 211.726 134.032 C 224.217 134.004, 226.351 134.243, 229.226 135.996 C 233.845 138.812, 239.137 138.597, 242.889 135.440 C 251.676 128.046, 243.955 113.600, 232.975 116.889 C 230.919 117.505, 228.679 118.682, 227.996 119.505 C 226.999 120.707, 223.897 121, 212.192 121 C 198.911 121, 197.438 120.820, 195.458 118.960 C 191.896 115.614, 187.119 115.410, 182.706 118.416 C 179.031 120.919, 178.426 121, 163.500 121 C 148.710 121, 147.940 120.899, 144.405 118.500 C 140.617 115.929, 137.990 115.517, 134.500 116.945 M 252.207 231.901 C 246.697 243.931, 239 265.328, 239 268.618 C 239 284.372, 256.311 293.182, 267.977 283.366 C 274.132 278.187, 275.709 271.011, 272.814 261.361 C 270.793 254.625, 258.471 225.105, 257.098 223.711 C 256.671 223.276, 254.470 226.962, 252.207 231.901" stroke="none" fill="black" fill-rule="evenodd"/>
</svg>