<svg xmlns="http://www.w3.org/2000/svg" width="100%" height="auto" viewBox="0 0 626 620" version="1.1">
	<path d="M 333.015 72.750 C 333.007 74.537, 333.173 76, 333.383 76 C 334.293 76, 334.679 72.102, 333.893 70.861 C 333.307 69.936, 333.026 70.540, 333.015 72.750 M 331.572 93.250 C 331.196 101.088, 330.233 117.132, 329.433 128.906 C 328.122 148.188, 328.117 152.247, 329.403 150.917 C 329.903 150.399, 332.754 111.304, 333.644 92.750 C 334.083 83.606, 333.961 79, 333.280 79 C 332.662 79, 331.986 84.640, 331.572 93.250 M 310.070 86.750 C 310.032 89.638, 310.450 92, 311 92 C 312.203 92, 312.203 86.300, 311 83.500 C 310.369 82.031, 310.122 82.894, 310.070 86.750 M 265.015 86.191 C 265.024 86.911, 265.467 88.175, 266 89 C 266.788 90.219, 266.972 90.090, 266.985 88.309 C 266.993 87.104, 266.550 85.840, 266 85.500 C 265.450 85.160, 265.007 85.471, 265.015 86.191 M 266.261 93.250 C 266.523 93.938, 267.318 97.763, 268.029 101.750 C 268.739 105.737, 269.698 109, 270.160 109 C 271.537 109, 271.246 106.463, 268.473 94.250 C 268.192 93.013, 267.472 92, 266.874 92 C 266.276 92, 266 92.563, 266.261 93.250 M 310.099 101.750 C 310.153 105.463, 310.540 110.975, 310.958 114 C 311.587 118.552, 311.743 117.390, 311.859 107.250 C 311.946 99.656, 311.620 95, 311 95 C 310.422 95, 310.042 97.851, 310.099 101.750 M 372.626 98 C 372.110 99.276, 368 118.476, 368 119.610 C 368 119.825, 368.382 120, 368.848 120 C 369.931 120, 374.419 99.707, 373.741 97.875 C 373.327 96.754, 373.121 96.777, 372.626 98 M 385.192 110.250 C 387.976 120.154, 388.288 120.600, 394.786 123.954 C 400.944 127.133, 400.688 128.018, 394.372 125.387 L 390.500 123.773 392.400 125.881 C 394.515 128.227, 399.800 129.986, 404.762 129.994 L 408.024 130 407.376 125.750 C 407.020 123.412, 406.170 120.150, 405.487 118.500 L 404.246 115.500 403.148 118.250 C 401.597 122.133, 401.124 121.671, 401.611 116.750 C 401.927 113.558, 401.796 112.998, 401.086 114.500 C 400.250 116.269, 400.128 116.154, 400.035 113.500 L 399.929 110.500 398.500 113 L 397.071 115.500 397.035 112.059 C 397.002 108.816, 396.915 108.730, 395.532 110.559 C 394.117 112.430, 394.062 112.408, 394.032 109.949 C 394.007 107.928, 393.061 106.942, 389.473 105.199 C 386.984 103.990, 384.543 103, 384.050 103 C 383.557 103, 384.071 106.263, 385.192 110.250 M 244.306 105.621 C 241.902 106.806, 241.024 107.975, 240.755 110.348 L 240.397 113.500 239.262 111 C 238.180 108.617, 238.122 108.687, 238.018 112.500 L 237.910 116.500 236.536 113.500 L 235.162 110.500 234.982 114.500 C 234.822 118.023, 234.705 118.202, 234 116 C 233.325 113.894, 233.172 114.209, 233.024 118 L 232.848 122.500 231.500 119 L 230.152 115.500 230.006 119 C 229.887 121.850, 229.707 122.129, 229.037 120.500 C 228.097 118.214, 227.827 118.720, 226.164 125.879 L 225.147 130.258 230.790 129.595 C 241.037 128.390, 244.371 124.982, 248.550 111.440 C 251.123 103.100, 250.672 102.481, 244.306 105.621 M 289.687 110.250 C 290.306 115.729, 290.633 116.700, 291.550 115.783 C 292.376 114.957, 290.869 105, 289.918 105 C 289.465 105, 289.361 107.362, 289.687 110.250 M 214.758 111.374 C 207.707 118.369, 206.488 123.508, 209.504 133.519 C 210.367 136.382, 206.643 141.441, 199.500 147.110 C 196.200 149.730, 193.162 151.902, 192.750 151.936 C 190.914 152.092, 192.293 149.108, 195.488 146.012 C 200.740 140.921, 202.423 135.535, 201.643 126.309 C 201.288 122.104, 200.785 118.452, 200.526 118.192 C 199.519 117.186, 193.105 123.146, 190.606 127.410 C 187.135 133.333, 186.387 139.276, 188.394 145 C 189.261 147.475, 189.977 150.412, 189.985 151.527 C 189.995 152.802, 186.870 156.427, 181.565 161.295 C 176.926 165.552, 171.110 172.065, 168.640 175.768 C 166.171 179.471, 163.300 183.405, 162.260 184.510 C 161.220 185.616, 157.728 190.091, 154.500 194.456 C 151.272 198.821, 148.445 201.835, 148.218 201.153 C 147.303 198.409, 149.336 194.621, 154.488 189.469 C 161.392 182.564, 162.425 179.028, 161.693 164.789 C 160.960 150.519, 160.370 149.590, 155.573 155.157 C 150.101 161.507, 147.283 166.733, 145.428 173.973 C 143.620 181.034, 144.037 187.881, 146.506 191.650 C 147.328 192.904, 148 194.492, 148 195.179 C 148 196.883, 145.613 194.414, 143.476 190.500 L 141.838 187.500 142.505 191.465 C 142.872 193.646, 143.852 196.746, 144.683 198.354 C 145.535 200.001, 145.956 202.472, 145.647 204.013 C 145.015 207.174, 137.991 220.324, 137.302 219.635 C 137.048 219.381, 137.416 215.746, 138.120 211.557 C 139.569 202.934, 138.691 196.505, 134.939 188.276 L 132.762 183.500 130.131 189 C 127.927 193.607, 127.500 195.881, 127.500 203 C 127.500 210.968, 127.734 211.916, 131.242 218.148 C 134.880 224.612, 134.945 224.904, 133.599 228.719 C 131.838 233.710, 127.299 242.697, 126.194 243.380 C 125.729 243.667, 125.382 238.637, 125.421 232.201 C 125.483 221.962, 125.198 219.848, 123.136 215.281 C 119.610 207.469, 118.626 207.106, 116.236 212.735 C 111.761 223.278, 112.580 232.497, 118.886 242.554 L 122.750 248.716 121.589 258.108 C 120.950 263.274, 119.994 267.336, 119.464 267.136 C 118.934 266.936, 117.375 264.686, 116 262.136 C 114.013 258.451, 112.315 256.908, 107.722 254.612 C 104.544 253.023, 101.629 252.038, 101.245 252.422 C 100.860 252.806, 101.661 255.221, 103.023 257.789 C 105.080 261.666, 106.671 263.064, 112.407 266.037 C 116.206 268.007, 119.629 270.491, 120.014 271.559 C 121.087 274.539, 121.917 290, 121.003 290 C 120.559 290, 119.701 288.580, 119.096 286.845 C 117.332 281.786, 111.833 275.312, 107.401 273.077 C 103.017 270.867, 97 269.323, 97 270.408 C 97 272.214, 102.159 280.827, 104.657 283.190 C 106.221 284.670, 110.473 287.270, 114.107 288.968 C 121.727 292.528, 122.410 293.578, 126.477 308 C 127.950 313.225, 129.416 318.358, 129.735 319.406 C 130.132 320.711, 129.943 321.083, 129.136 320.584 C 128.488 320.184, 125.752 315.248, 123.055 309.615 C 116.191 295.278, 109.226 289.768, 95.261 287.629 L 91.021 286.980 93.082 292.240 C 95.952 299.564, 100.329 306.127, 105.563 310.951 C 110.382 315.393, 111.506 315.959, 123.415 319.945 C 131.202 322.551, 131.374 322.681, 134.096 328.047 C 135.617 331.046, 137.175 334.625, 137.557 336 C 138.154 338.149, 137.641 337.882, 133.902 334.100 C 129.909 330.061, 121.252 325.033, 118.250 325.010 C 114.685 324.982, 119.489 333.021, 125.513 337.162 C 127.706 338.670, 130.850 340.204, 132.500 340.572 C 136.478 341.459, 141.207 343.926, 142.723 345.904 C 145.534 349.572, 162 377.546, 162 378.653 C 162 380.017, 158.821 376.434, 155.349 371.157 C 149.669 362.525, 143.180 354.834, 139.142 351.950 C 135.928 349.654, 127.683 346, 125.717 346 C 122.426 346, 130.528 362.623, 136.948 369.043 C 142.168 374.263, 151.373 379.229, 158.206 380.511 C 162.873 381.386, 165.695 384.082, 168.567 390.408 C 171.259 396.337, 173.525 404.808, 172.653 405.681 C 171.414 406.919, 168.960 403.595, 166.861 397.838 C 164.799 392.183, 162.068 389, 159.277 389 C 157.429 389, 157.705 390.776, 160.068 394.096 C 162.393 397.360, 162.014 397.711, 158.588 395.465 C 153.951 392.427, 147 391.524, 147 393.959 C 147 394.368, 149.935 395.498, 153.522 396.469 C 158.455 397.804, 161.269 399.336, 165.072 402.754 C 171.978 408.964, 173.762 412.936, 174.911 424.658 C 175.442 430.071, 176.610 436.907, 177.506 439.849 C 178.403 442.790, 178.876 445.458, 178.558 445.776 C 177.577 446.757, 171.838 440.697, 170.248 437 C 169.420 435.075, 168.376 430.269, 167.928 426.321 C 166.975 417.925, 164.615 412.797, 159.351 407.684 C 155.805 404.240, 147.569 400.098, 146.463 401.203 C 146.193 401.474, 147.654 406.151, 149.710 411.598 C 152.687 419.484, 154.373 422.416, 157.992 426 C 163.417 431.374, 167.176 436.490, 166.325 437.342 C 165.986 437.680, 162.942 435.379, 159.560 432.229 C 156.178 429.078, 151.358 424.935, 148.848 423.022 C 144.499 419.706, 144.286 419.309, 144.286 414.521 C 144.286 408.076, 140.451 400.317, 135.218 396.172 C 130.968 392.806, 121.353 388.620, 120.615 389.814 C 119.762 391.193, 126.488 409.563, 129.013 412.753 C 130.381 414.481, 134.961 417.727, 139.192 419.967 C 143.422 422.207, 149.400 426.341, 152.476 429.152 C 158.599 434.748, 159.366 437.285, 153.334 431.989 C 148.340 427.603, 141.491 424.676, 136 424.579 C 131.535 424.501, 123 426.725, 123 427.967 C 123 429.203, 135.738 437.959, 140.605 440.069 C 145.513 442.197, 150.385 442.278, 162 440.422 C 166.844 439.648, 173.547 444.261, 181.295 453.701 C 184.602 457.730, 187.510 460.824, 187.757 460.576 C 188.004 460.329, 186.805 456.654, 185.091 452.409 C 180.692 441.514, 178.431 429.067, 175.871 401.644 C 174.117 382.863, 173.900 377.439, 174.847 376.144 C 175.509 375.240, 177.276 372.025, 178.773 369 C 181.205 364.086, 181.480 362.487, 181.353 354 C 181.275 348.775, 180.704 343.209, 180.085 341.632 L 178.960 338.764 176.730 342.055 C 174.090 345.951, 172 346.932, 172 344.274 C 172 343.234, 171.381 341.536, 170.624 340.501 C 169.319 338.716, 169.165 338.781, 167.624 341.760 C 165.574 345.724, 163.027 356.406, 163.037 361 C 163.045 365.242, 166.223 372.564, 169.580 376.077 C 171.527 378.115, 172.172 380.104, 172.661 385.577 C 173.001 389.385, 173.040 392.275, 172.749 392 C 172.457 391.725, 170 387.225, 167.289 382 C 164.578 376.775, 158.329 365.975, 153.403 358 C 143.040 341.222, 138 331.915, 138 329.555 C 138 328.640, 139.350 324.718, 141 320.840 C 144.166 313.400, 144.986 309.533, 142.375 314.351 C 140.861 317.146, 140.802 317.162, 139.415 315.182 C 138.637 314.071, 138.302 312.377, 138.670 311.417 C 139.150 310.167, 138.981 309.894, 138.074 310.454 C 137.313 310.925, 136.966 312.583, 137.204 314.618 C 137.421 316.478, 137.283 318, 136.897 318 C 135.778 318, 134.004 312.031, 133.955 308.101 C 133.930 306.120, 133.324 303.150, 132.609 301.500 L 131.308 298.500 130.600 301.636 C 130.083 303.923, 130.576 306.457, 132.421 310.999 C 133.813 314.424, 135.220 318.863, 135.549 320.863 L 136.145 324.500 134.153 322.031 C 128.357 314.847, 121.001 274.587, 123.887 265.842 C 125.026 262.392, 125.894 261.525, 131.750 257.991 C 135.174 255.924, 136.270 252, 133.423 252 C 131.837 252, 127.600 255.893, 125.219 259.539 C 124.100 261.253, 124.014 260.996, 124.538 257.500 C 125.840 248.814, 133.318 236.438, 139.058 233.470 C 140.622 232.661, 144.511 231.990, 147.700 231.978 C 153.456 231.956, 160.994 229.437, 162.475 227.041 C 162.871 226.399, 162.364 224.926, 161.348 223.767 C 159.988 222.217, 159.896 221.812, 161 222.235 C 161.825 222.550, 163.400 223.113, 164.500 223.486 C 166.465 224.151, 166.466 224.136, 164.573 222.592 C 163.513 221.728, 162.940 220.727, 163.299 220.368 C 163.658 220.009, 164.638 220.284, 165.476 220.980 C 166.735 222.025, 167 221.963, 167 220.622 C 167 218.765, 165.346 218.644, 159 220.036 C 153.720 221.195, 142 225.925, 142 226.897 C 142 227.266, 140.650 228.366, 139 229.341 C 135.432 231.449, 135.025 230.122, 137.824 225.500 C 138.823 223.850, 141.278 219.511, 143.279 215.857 C 150.801 202.123, 164.146 185.173, 172.535 178.699 C 175.266 176.592, 180.200 173.533, 183.500 171.902 L 189.500 168.936 185 169.503 C 182.302 169.843, 178.798 171.282, 176.250 173.097 C 163.543 182.148, 180.831 163.958, 195 153.370 C 206.126 145.055, 213.830 140.597, 219.773 139.034 C 225.717 137.471, 227.484 139.004, 221.687 140.694 C 216.574 142.185, 210 145.733, 210 147.001 C 210 148.343, 216.020 150, 220.899 150 C 225.978 150.001, 241 146.904, 241 145.856 C 241 145.492, 238.424 143.485, 235.276 141.395 C 228.406 136.835, 220.915 135.755, 214.564 138.409 C 212.435 139.298, 210.534 139.867, 210.339 139.672 C 210.144 139.478, 211.336 137.559, 212.986 135.409 C 220.393 125.763, 221.034 124.458, 221.575 117.918 C 221.867 114.388, 221.727 110.207, 221.265 108.627 L 220.424 105.753 214.758 111.374 M 342.657 109.726 C 342.324 111.776, 342.491 113.891, 343.026 114.426 C 343.658 115.058, 344 113.749, 344 110.700 C 344 105.043, 343.478 104.664, 342.657 109.726 M 415.595 113.162 C 414.873 119.022, 416.141 127.458, 418.389 131.749 C 419.181 133.262, 421.481 136.075, 423.500 138 C 427.197 141.526, 430.554 146.780, 429.672 147.662 C 429.410 147.923, 426.976 146.543, 424.264 144.594 C 414.084 137.280, 407.342 135.577, 400.272 138.531 C 395.740 140.424, 390 144.720, 390 146.218 C 390 146.831, 390.236 147.097, 390.525 146.808 C 390.814 146.519, 394.067 147.119, 397.754 148.141 C 401.440 149.164, 405.989 150, 407.862 150 C 412.514 150, 419 147.949, 419 146.478 C 419 145.318, 408.431 140, 406.125 140 C 405.506 140, 405 139.550, 405 139 C 405 136.034, 413.335 139.477, 424.640 147.112 C 432.155 152.188, 453.804 172.529, 452.781 173.552 C 452.511 173.822, 449.863 172.912, 446.895 171.531 C 443.928 170.150, 440.150 169.046, 438.500 169.077 L 435.500 169.135 438 170.245 C 439.375 170.855, 442.300 172.140, 444.500 173.100 C 446.700 174.060, 450.464 176.535, 452.864 178.599 C 458.788 183.693, 477.225 204.881, 481.318 211.298 C 486.368 219.217, 491.368 228.966, 490.715 229.619 C 490.394 229.940, 488.639 229.067, 486.816 227.680 C 480.338 222.753, 462.898 217.691, 460.553 220.057 C 459.812 220.804, 460.067 220.903, 461.414 220.389 C 462.750 219.880, 463.110 220.014, 462.605 220.830 C 462.207 221.474, 462.407 222, 463.048 222 C 463.689 222, 463.953 222.681, 463.634 223.512 C 463.169 224.723, 463.597 224.889, 465.777 224.346 C 468.230 223.735, 468.364 223.833, 467.128 225.334 C 464.214 228.871, 471.496 232, 482.642 232 C 488.268 232, 488.506 232.115, 493.161 237.073 C 495.781 239.863, 499.009 244.476, 500.336 247.323 C 503.176 253.420, 504.582 260, 503.045 260 C 502.470 260, 502 259.358, 502 258.573 C 502 256.949, 497.374 253, 495.472 253 C 492.446 253, 493.245 256.046, 496.971 258.717 C 503.107 263.115, 504.364 266.037, 503.713 274.382 C 502.724 287.047, 497.493 308.342, 492.876 318.500 L 490.604 323.500 490.052 317.332 C 489.748 313.940, 489.099 310.790, 488.609 310.332 C 488.093 309.850, 487.996 310.656, 488.378 312.250 C 489.174 315.567, 487.768 315.878, 486.122 312.750 C 484.943 310.509, 485.019 310.946, 486.687 316 C 486.959 316.825, 485.803 315.925, 484.118 314 C 481.530 311.043, 481.050 310.812, 481.027 312.509 C 481.012 313.615, 481.900 315.081, 483 315.768 C 484.100 316.455, 485 317.518, 485 318.131 C 485 318.891, 484.524 318.850, 483.500 318 C 481.315 316.187, 481.713 317.933, 484.526 322.500 C 485.881 324.700, 486.992 327.500, 486.995 328.721 C 487.003 332.118, 483.300 339.764, 471.846 360 C 466.087 370.175, 459.603 381.984, 457.438 386.241 L 453.500 393.983 453.200 387.297 C 452.950 381.732, 453.248 380.183, 454.979 378.056 C 462.815 368.423, 463.024 355.493, 455.586 340.500 C 454.222 337.750, 453.082 336.026, 453.053 336.668 C 453.024 337.311, 452.725 338.553, 452.389 339.430 C 451.950 340.573, 452.212 340.856, 453.314 340.433 C 454.678 339.910, 454.699 340.350, 453.501 344.330 C 452.758 346.798, 452.394 349.061, 452.691 349.358 C 453.697 350.364, 453.941 360.466, 453.093 366 L 452.250 371.500 452.125 363.866 C 452 356.260, 451.985 356.219, 447.911 352.539 C 443.191 348.274, 443.341 346.426, 448.083 350.417 C 452.535 354.162, 452.854 352.916, 448.573 348.508 C 446.608 346.484, 445 344.327, 445 343.714 C 445 342.972, 444.666 342.934, 444.001 343.599 C 443.451 344.149, 442.567 348.026, 442.036 352.216 C 440.830 361.728, 442.149 367.403, 447.298 374.862 L 451 380.224 451 391.794 C 451 402.146, 449.764 417.234, 448.365 423.968 C 447.892 426.247, 447.602 426.029, 444.566 421.107 L 441.279 415.778 443.139 409.800 C 446.221 399.900, 445.538 387.968, 441.292 377.500 C 438.826 371.421, 428.632 355.031, 427.522 355.361 C 426.092 355.787, 424.141 363.263, 422.865 373.212 C 420.564 391.154, 424.953 404.391, 436.852 415.399 C 446.941 424.732, 450.371 439.984, 445.961 455.898 C 444.840 459.945, 444.105 463.438, 444.328 463.661 C 444.550 463.884, 445.938 461.602, 447.412 458.591 C 450.465 452.351, 457.936 443.602, 462.011 441.494 C 464.059 440.435, 465.623 440.318, 468.125 441.036 C 473.168 442.482, 480.922 442.127, 486.192 440.208 C 491.121 438.413, 504 429.659, 504 428.103 C 504 426.514, 497.905 424.999, 491.601 425.022 C 484.290 425.048, 479.014 427.242, 473.690 432.471 C 471.594 434.529, 469.569 435.899, 469.190 435.514 C 467.935 434.244, 480.497 423.472, 486.553 420.626 C 496.715 415.849, 499.884 411.740, 504.421 397.454 L 506.844 389.822 504.172 390.442 C 497.809 391.916, 490.595 396.555, 487.104 401.417 C 484.109 405.587, 483.511 407.332, 483.162 412.917 C 482.936 416.537, 482.305 419.784, 481.760 420.130 C 478.612 422.133, 471.760 428.117, 466.817 433.179 C 463.692 436.381, 460.879 439, 460.567 439 C 458.631 439, 460.885 435.278, 466.894 428.548 C 472.739 422.003, 474.299 419.434, 477.144 411.665 C 478.990 406.626, 480.650 402.164, 480.833 401.751 C 481.909 399.327, 471.842 403.637, 467.034 407.660 C 462.621 411.351, 459.863 418.701, 458.746 429.745 C 457.971 437.406, 457.138 440.979, 455.596 443.253 C 454.443 444.954, 453.050 446.493, 452.500 446.674 C 450.868 447.209, 451.766 418.283, 453.531 413.453 C 456.169 406.236, 466.078 398.452, 475.750 396 C 478.087 395.408, 480 394.490, 480 393.961 C 480 392.321, 474.614 392.903, 470.530 394.985 C 465.885 397.353, 464.850 396.853, 467.829 393.682 C 471.422 389.857, 469.906 387.232, 465.877 390.299 C 463.772 391.902, 460.018 398.070, 459.972 400 C 459.936 401.554, 455.613 407, 454.416 407 C 452.923 407, 455.022 398.398, 457.981 392.387 C 461.574 385.088, 465.331 381.830, 472.622 379.688 C 482.111 376.901, 486.962 373.283, 492.127 365.139 C 495.225 360.253, 499.778 347.444, 498.773 346.439 C 497.667 345.333, 489.130 349.799, 484.933 353.679 C 482.660 355.781, 477.501 362.517, 473.467 368.650 C 466.563 379.146, 464 382.284, 464 380.239 C 464 379.755, 467.150 373.861, 471 367.141 C 474.850 360.421, 478 354.724, 478 354.481 C 478 354.238, 479.542 351.629, 481.426 348.684 C 484.195 344.355, 485.776 342.979, 489.676 341.506 C 498.455 338.188, 504.154 333.221, 505.546 327.671 C 505.999 325.867, 505.820 325, 504.994 325 C 502.083 325, 493.468 330.817, 490.371 334.873 C 485.507 341.242, 486.153 337.651, 491.947 326.105 C 494.668 320.683, 498.091 312.029, 499.553 306.873 C 503.319 293.591, 503.737 292.981, 511.778 289 C 515.667 287.075, 520.052 284.375, 521.523 283 C 524.336 280.371, 529.492 271.159, 528.632 270.299 C 528.356 270.022, 525.963 270.520, 523.315 271.406 C 517.456 273.364, 511.963 278.379, 509.022 284.455 C 504.930 292.908, 504.204 291.436, 506.118 278.565 C 507.346 270.311, 507.646 269.909, 515.862 265.500 C 521.445 262.505, 526 257.302, 526 253.922 C 526 252.436, 525.524 252.276, 523.139 252.960 C 516.576 254.842, 513.428 257.634, 510.408 264.250 C 509.467 266.313, 508.357 268, 507.941 268 C 507.526 268, 506.857 263.613, 506.454 258.250 L 505.722 248.500 509.611 241.234 C 513.227 234.479, 513.500 233.389, 513.500 225.734 C 513.500 217.896, 511.045 208, 509.101 208 C 508.698 208, 507.047 210.772, 505.434 214.161 C 502.683 219.938, 502.504 221.060, 502.569 232.161 C 502.607 238.672, 502.360 244, 502.020 244 C 500.841 244, 493 227.825, 493 225.392 C 493 224.046, 494.634 219.827, 496.631 216.015 C 500.105 209.383, 500.241 208.747, 499.779 201.292 C 499.444 195.895, 498.574 192.040, 496.949 188.750 C 495.658 186.137, 494.324 184, 493.986 184 C 492.998 184, 489.048 196.082, 488.428 201 C 488.110 203.520, 488.520 208.575, 489.358 212.489 C 490.182 216.333, 490.685 219.648, 490.477 219.856 C 490.269 220.065, 488.280 217.370, 486.058 213.868 C 481.569 206.791, 480.960 202.469, 483.471 195.500 C 485.509 189.844, 485.483 186.546, 483.431 190.500 C 481.264 194.677, 479.480 196.236, 480.570 193 C 481.034 191.625, 481.432 186.663, 481.456 181.974 C 481.496 174.318, 481.167 172.772, 478.232 166.815 C 476.288 162.869, 472.642 157.859, 469.232 154.449 L 463.500 148.716 462.678 154.108 C 461.751 160.185, 463.193 173.274, 465.550 180.193 C 466.985 184.403, 469.128 187.122, 475.797 193.192 C 478.687 195.823, 480.718 200.615, 479.471 201.862 C 478.186 203.147, 459.656 181.225, 456.030 174.130 C 454.167 170.484, 449.761 165.153, 443.525 159 C 431.746 147.377, 429.582 144.178, 430.543 139.805 C 432.678 130.083, 429.488 120.843, 421.171 112.662 L 416.252 107.824 415.595 113.162 M 270 111.453 C 270 112.239, 276.787 148.943, 279.418 162.387 C 281.789 174.501, 282.494 176.923, 283.358 175.917 C 284.309 174.810, 272.034 111, 270.870 111 C 270.391 111, 270 111.204, 270 111.453 M 281.649 116.250 C 282.019 118.588, 282.660 121.625, 283.075 123 C 283.807 125.429, 283.830 125.415, 283.903 122.500 C 284.016 117.973, 282.852 112, 281.857 112 C 281.373 112, 281.279 113.912, 281.649 116.250 M 256.015 116.691 C 256.007 117.896, 256.450 119.160, 257 119.500 C 258.273 120.287, 258.273 117.970, 257 116 C 256.212 114.781, 256.028 114.910, 256.015 116.691 M 341.742 119.910 C 341.326 121.785, 341.214 123.548, 341.493 123.826 C 342.536 124.869, 343.131 123.084, 342.820 119.846 L 342.498 116.500 341.742 119.910 M 291.070 122.250 C 291.109 124.037, 291.527 126.400, 292 127.500 C 292.631 128.969, 292.878 128.106, 292.930 124.250 C 292.968 121.362, 292.550 119, 292 119 C 291.450 119, 291.032 120.463, 291.070 122.250 M 353 121.500 C 353 122.325, 352.047 123.953, 350.882 125.118 C 349.172 126.828, 349.028 127.403, 350.132 128.103 C 351.747 129.126, 353.798 129.136, 356.347 128.133 C 358.024 127.473, 358.047 127.284, 356.597 126.080 C 355.719 125.352, 355 123.685, 355 122.378 C 355 121.070, 354.550 120, 354 120 C 353.450 120, 353 120.675, 353 121.500 M 311 136.441 C 311 146.147, 311.376 152, 312 152 C 312.622 152, 313 146.353, 313 137.059 C 313 128.177, 312.594 121.867, 312 121.500 C 311.350 121.098, 311 126.323, 311 136.441 M 300.531 130.750 C 301.209 139.107, 301.556 140.845, 302.362 139.917 C 303.171 138.983, 301.677 122, 300.785 122 C 300.185 122, 300.089 125.308, 300.531 130.750 M 367.780 122.549 C 367.458 123.072, 366.932 125.750, 366.611 128.500 L 366.027 133.500 367.493 128.500 C 368.899 123.707, 369.054 120.481, 367.780 122.549 M 237.662 124.618 C 236.100 125.464, 235.026 126.359, 235.273 126.606 C 235.930 127.263, 240.694 125.304, 241.462 124.062 C 242.366 122.599, 241.026 122.795, 237.662 124.618 M 257.549 125.132 C 258.657 128.585, 260.086 134.093, 260.698 137.262 C 261.315 140.461, 263.011 141.984, 262.977 139.309 C 262.929 135.461, 259.341 123.614, 258.098 123.199 C 257.136 122.879, 256.991 123.390, 257.549 125.132 M 439.510 135.269 C 440.331 148.351, 442.383 154.885, 447.240 159.889 C 449.434 162.150, 451.598 164, 452.048 164 C 452.497 164, 453.151 164.900, 453.500 166 C 455.515 172.349, 458.101 162.211, 456.847 152.877 C 455.383 141.980, 447.632 129.258, 440.952 126.786 C 438.991 126.061, 438.948 126.314, 439.510 135.269 M 284.503 133.234 C 284.805 136.937, 285.501 140.987, 286.049 142.234 C 286.781 143.897, 286.900 142.709, 286.497 137.766 C 286.195 134.063, 285.499 130.013, 284.951 128.766 C 284.219 127.103, 284.100 128.291, 284.503 133.234 M 340.750 128.332 C 340.337 129.339, 340.041 132.264, 340.090 134.832 L 340.180 139.500 341.146 136.146 C 342.297 132.146, 341.955 125.389, 340.750 128.332 M 177.321 135.260 C 170.827 142.317, 168.719 147.248, 168.242 156.500 C 167.925 162.665, 168.185 164.959, 169.376 166.500 C 170.883 168.450, 171.024 168.387, 175.008 164 C 182.582 155.660, 184.076 149.735, 182.162 135.610 L 181.500 130.719 177.321 135.260 M 292 131.841 C 292 135.176, 294.407 149.791, 295.156 151 C 295.781 152.010, 295.917 151.194, 295.573 148.500 C 295.292 146.300, 294.771 141.463, 294.414 137.750 C 294.058 134.037, 293.369 131, 292.884 131 C 292.398 131, 292 131.378, 292 131.841 M 351.648 132.675 C 350.314 137.232, 349.767 144.262, 350.795 143.627 C 351.933 142.924, 353.601 132.267, 352.712 131.379 C 352.421 131.088, 351.942 131.671, 351.648 132.675 M 366.510 144.958 C 364.320 153.894, 365.067 156.450, 367.382 147.943 C 368.346 144.399, 369.360 140.713, 369.635 139.750 C 369.910 138.787, 369.703 138, 369.175 138 C 368.647 138, 367.448 141.131, 366.510 144.958 M 320 142.500 C 320 143.875, 320.450 145, 321 145 C 321.550 145, 322 143.875, 322 142.500 C 322 141.125, 321.550 140, 321 140 C 320.450 140, 320 141.125, 320 142.500 M 338.660 145.145 C 338.307 148.090, 338.063 152.750, 338.118 155.500 C 338.204 159.743, 338.416 159.138, 339.523 151.506 C 340.239 146.559, 340.483 141.899, 340.065 141.151 C 339.603 140.326, 339.050 141.898, 338.660 145.145 M 384.083 143.259 C 383.399 145.326, 383.027 147.576, 383.256 148.259 C 383.486 148.941, 384.233 147.809, 384.917 145.741 C 385.601 143.674, 385.973 141.424, 385.744 140.741 C 385.514 140.059, 384.767 141.191, 384.083 143.259 M 262.805 142.529 C 262.514 142.819, 263.601 147.657, 265.220 153.279 C 266.840 158.900, 268.661 165.525, 269.268 168 C 269.875 170.475, 270.535 171.766, 270.736 170.870 C 271.069 169.381, 264.660 143.327, 263.733 142.400 C 263.513 142.180, 263.095 142.238, 262.805 142.529 M 301.856 142.500 C 301.158 143.584, 302.628 161.962, 303.481 162.814 C 304.149 163.482, 303.966 155.209, 303.141 147.500 C 302.789 144.200, 302.210 141.950, 301.856 142.500 M 286.649 150.250 C 287.740 157.142, 289.084 160.307, 288.500 154.610 C 288.225 151.921, 288 148.884, 288 147.860 C 288 146.837, 287.545 146, 286.988 146 C 286.359 146, 286.231 147.607, 286.649 150.250 M 348.539 150.592 C 347.672 156.369, 348.509 157.430, 349.922 152.344 C 351.225 147.649, 351.275 146, 350.114 146 C 349.626 146, 348.917 148.066, 348.539 150.592 M 373.710 148 C 373.423 149.100, 373.595 150, 374.094 150 C 374.592 150, 375 149.100, 375 148 C 375 146.900, 374.827 146, 374.617 146 C 374.406 146, 373.998 146.900, 373.710 148 M 356.278 151.500 C 354.876 157.671, 353.562 169, 354.247 169 C 355.107 169, 358.206 151.477, 357.798 148.918 C 357.510 147.110, 357.127 147.762, 356.278 151.500 M 253.066 149 C 253.059 149.825, 253.922 152.300, 254.986 154.500 C 256.681 158.006, 256.845 158.130, 256.321 155.500 C 255.602 151.893, 253.086 146.868, 253.066 149 M 320.070 150.750 C 320.133 153.187, 320.238 153.272, 321 151.500 C 322.174 148.769, 322.174 148, 321 148 C 320.450 148, 320.032 149.238, 320.070 150.750 M 243 152.014 C 243 153.892, 254.278 178, 255.157 178 C 255.635 178, 255.308 176.313, 254.430 174.250 C 253.552 172.188, 251.974 168.353, 250.923 165.730 C 248.502 159.682, 244.116 151, 243.483 151 C 243.217 151, 243 151.456, 243 152.014 M 380.625 154.125 C 380.281 155.844, 380.037 157.981, 380.081 158.875 C 380.184 160.924, 382.893 155.149, 382.955 152.750 C 383.031 149.787, 381.287 150.816, 380.625 154.125 M 328 156.667 C 328 159.233, 328.163 161.146, 328.362 160.917 C 329.239 159.909, 329.720 152, 328.905 152 C 328.407 152, 328 154.100, 328 156.667 M 370.459 159.514 C 369.489 163.097, 368.962 166.296, 369.289 166.622 C 369.615 166.948, 370.644 164.579, 371.577 161.357 C 372.509 158.136, 373.483 154.938, 373.743 154.250 C 374.002 153.563, 373.766 153, 373.218 153 C 372.670 153, 371.429 155.931, 370.459 159.514 M 197.271 155.901 C 194.944 156.991, 192.019 158.841, 190.771 160.012 C 188.535 162.107, 188.530 162.162, 190.454 163.579 C 195.797 167.516, 207.123 168.042, 217.130 164.819 L 223.902 162.638 221.612 160.569 C 214.717 154.340, 204.698 152.418, 197.271 155.901 M 312.158 156 C 312.158 157.375, 312.385 157.938, 312.662 157.250 C 312.940 156.563, 312.940 155.438, 312.662 154.750 C 312.385 154.063, 312.158 154.625, 312.158 156 M 413.994 154.934 C 410.335 156.047, 405.435 158.707, 403.524 160.619 C 401.970 162.173, 402.310 162.442, 408.602 164.642 C 412.966 166.168, 417.488 166.981, 421.422 166.946 C 427.610 166.890, 436.040 164.386, 436.698 162.407 C 437.173 160.981, 430.275 156.226, 425.920 154.977 C 422.002 153.854, 417.598 153.838, 413.994 154.934 M 363.444 158.444 C 363.068 160.451, 362.985 162.318, 363.260 162.593 C 363.535 162.868, 364.068 161.451, 364.444 159.444 C 364.821 157.438, 364.904 155.571, 364.629 155.296 C 364.354 155.021, 363.821 156.438, 363.444 158.444 M 392.506 170.431 C 389.911 177.817, 387.969 184.406, 388.190 185.071 C 388.539 186.118, 399 159.643, 399 157.714 C 399 157.321, 398.601 157, 398.113 157 C 397.625 157, 395.102 163.044, 392.506 170.431 M 229 160.734 C 229 162.096, 234.493 171.995, 235.250 171.998 C 236.531 172.002, 236.085 170.681, 232.970 165.250 C 230.142 160.318, 229 159.019, 229 160.734 M 258.086 163 C 258.055 163.825, 258.467 165.175, 259 166 C 260.181 167.828, 260.181 166.249, 259 163.500 C 258.433 162.181, 258.122 162.011, 258.086 163 M 376.622 168.456 C 375.730 172.006, 375.014 175.269, 375.030 175.706 C 375.089 177.248, 377.109 172.955, 378.535 168.257 C 380.230 162.672, 380.293 162, 379.122 162 C 378.638 162, 377.513 164.905, 376.622 168.456 M 241.049 166.250 C 241.118 168.028, 247.893 180.766, 247.951 179.228 C 248.012 177.646, 242.333 165, 241.563 165 C 241.253 165, 241.022 165.563, 241.049 166.250 M 383.999 172.503 C 381.141 181.090, 381.948 183.156, 384.942 174.916 C 386.223 171.387, 387.484 167.938, 387.743 167.250 C 388.002 166.563, 387.753 166, 387.189 166 C 386.625 166, 385.189 168.926, 383.999 172.503 M 211 171.528 C 211 172.794, 226.291 196, 227.125 196 C 228.406 196, 225.765 191.125, 218.597 180.258 C 213.290 172.214, 211 169.583, 211 171.528 M 413.161 173.547 C 411.546 177.090, 411.661 178.785, 413.393 176.964 C 415.162 175.104, 416.425 171, 415.228 171 C 414.729 171, 413.799 172.146, 413.161 173.547 M 291 182.616 C 277.525 188.441, 264.025 194.226, 261 195.474 C 257.975 196.721, 245.825 201.912, 234 207.010 C 202.669 220.516, 199.061 222.043, 170.694 233.802 C 153.793 240.808, 145.338 244.787, 146.194 245.330 C 146.912 245.787, 158.525 250.582, 172 255.986 C 195.850 265.551, 196.553 265.763, 198.500 264.003 C 202.514 260.375, 212.248 255.966, 230.174 249.657 C 248.861 243.080, 288.249 228.621, 297.770 224.843 C 300.668 223.693, 303.368 222.164, 303.770 221.446 C 305.104 219.063, 310.436 217.012, 315.316 217.006 C 322.937 216.996, 326.910 219.936, 326.968 225.628 C 327.008 229.520, 325.679 230.648, 319.319 232.116 C 315.060 233.099, 313.427 233.006, 308.664 231.508 L 303.040 229.739 283.270 237.255 C 272.397 241.389, 252.250 248.927, 238.500 254.007 C 214.914 262.720, 206.446 266.839, 207.238 269.213 C 207.426 269.779, 210.263 271.288, 213.540 272.564 C 226.829 277.741, 299.929 306.934, 305.720 309.376 C 309.141 310.819, 313.191 312, 314.720 312.001 C 316.249 312.001, 355.474 296.847, 401.887 278.324 C 469.430 251.368, 485.825 244.480, 484.026 243.814 C 478.696 241.842, 434.956 223.529, 429.426 220.954 C 426.085 219.398, 421.135 217.251, 418.426 216.182 C 414.009 214.438, 385.077 201.933, 377.500 198.492 C 375.850 197.742, 367.975 194.380, 360 191.020 C 352.025 187.660, 342.575 183.603, 339 182.005 C 327.120 176.695, 316.253 172, 315.874 172.013 C 315.668 172.021, 304.475 176.792, 291 182.616 M 236 174.095 C 236 175.835, 243.079 188.255, 243.711 187.623 C 244.300 187.033, 238.046 174.146, 236.795 173.374 C 236.358 173.103, 236 173.428, 236 174.095 M 181.684 175.449 C 177.893 176.801, 174 179.637, 174 181.046 C 174 181.451, 175.809 182.507, 178.020 183.391 C 182.437 185.159, 201 185.712, 201 184.077 C 201 182.215, 195.501 176.689, 192.329 175.364 C 188.324 173.691, 186.574 173.705, 181.684 175.449 M 433.003 176.250 C 431.192 177.488, 428.593 179.963, 427.227 181.750 L 424.744 185 434.622 184.924 C 444.313 184.849, 451.026 183.422, 451.739 181.284 C 452.244 179.768, 447.249 176.434, 442.500 175.119 C 437.112 173.627, 436.785 173.666, 433.003 176.250 M 230.032 178.559 C 230.014 179.141, 230.661 180.491, 231.468 181.559 C 232.276 182.626, 232.951 183.024, 232.968 182.441 C 232.986 181.859, 232.339 180.509, 231.532 179.441 C 230.724 178.374, 230.049 177.976, 230.032 178.559 M 206.568 184.750 C 208.086 187.363, 209.595 189.725, 209.922 190 C 210.250 190.275, 211.639 192.184, 213.009 194.243 C 215.709 198.300, 217.824 199.413, 215.871 195.750 C 213.151 190.646, 205.639 180, 204.758 180 C 204.237 180, 205.051 182.137, 206.568 184.750 M 408.414 183.750 C 406.430 188.363, 404.997 193, 405.555 193 C 406.005 193, 412 181.399, 412 180.529 C 412 180.238, 411.556 180, 411.013 180 C 410.471 180, 409.301 181.688, 408.414 183.750 M 417.991 186.250 C 413.339 194.626, 410.936 200, 411.841 200 C 412.856 200, 423 182.319, 423 180.550 C 423 178.573, 420.974 180.878, 417.991 186.250 M 151.980 182.524 C 150.048 184.853, 151.426 185.291, 153.494 183.006 C 154.493 181.903, 154.845 181, 154.277 181 C 153.710 181, 152.676 181.686, 151.980 182.524 M 472.918 183.391 C 473.698 184.336, 475.273 185.608, 476.418 186.218 C 478.312 187.228, 478.372 187.173, 477.082 185.609 C 476.302 184.664, 474.727 183.392, 473.582 182.782 C 471.688 181.772, 471.628 181.827, 472.918 183.391 M 153 186 C 151.199 187.682, 150.027 189.360, 150.395 189.728 C 150.763 190.096, 152.489 188.972, 154.231 187.231 C 155.972 185.489, 157.145 183.811, 156.836 183.503 C 156.527 183.194, 154.801 184.318, 153 186 M 146.561 187 C 147.380 190.085, 149 192.005, 149 189.891 C 149 189.061, 148.302 187.509, 147.448 186.441 C 145.957 184.576, 145.922 184.597, 146.561 187 M 473.892 188.058 C 475.207 189.154, 476.524 189.809, 476.819 189.515 C 477.456 188.877, 473.933 186.063, 472.500 186.065 C 471.950 186.066, 472.576 186.963, 473.892 188.058 M 165 193.121 C 162.240 194.218, 157 198.880, 157 200.238 C 157 201.857, 163.922 204, 169.152 204 C 173.481 204, 180.375 202.668, 187.886 200.380 C 189.835 199.787, 186.608 196.353, 181.790 193.894 C 177.742 191.828, 169.237 191.436, 165 193.121 M 443.815 194.902 C 437.452 198.938, 437.245 199.729, 442.220 201.002 C 444.574 201.605, 447.805 202.526, 449.399 203.049 C 455.796 205.147, 469 203.490, 469 200.589 C 469 199.159, 464.438 194.726, 461.316 193.122 C 460.114 192.505, 456.715 192, 453.762 192 C 449.553 192, 447.402 192.628, 443.815 194.902 M 205 195.892 C 205 197.055, 211.272 204.881, 212.257 204.948 C 212.674 204.977, 211.549 202.774, 209.757 200.054 C 206.671 195.368, 205 193.906, 205 195.892 M 419 201 C 416.494 205.913, 417.674 206.251, 420.750 201.502 C 423.262 197.624, 423.438 197, 422.020 197 C 421.482 197, 420.122 198.800, 419 201 M 201 203.845 C 201 204.976, 204.886 208.448, 205.483 207.850 C 206.145 207.188, 203.088 203, 201.943 203 C 201.424 203, 201 203.380, 201 203.845 M 426.813 204.744 C 424.210 207.774, 423.745 209.035, 425.476 208.371 C 427.114 207.742, 429.480 204.147, 428.742 203.408 C 428.510 203.177, 427.642 203.778, 426.813 204.744 M 155.500 209.417 C 152.225 210.879, 146.314 216.648, 147.192 217.526 C 147.931 218.264, 171 209.808, 171 208.798 C 171 207.484, 158.734 207.974, 155.500 209.417 M 456.551 208.892 C 457.624 210.026, 481.230 218.950, 481.830 218.449 C 482.557 217.842, 478.840 213.258, 475.799 211.009 C 473.137 209.041, 471.056 208.545, 464.033 208.200 C 457.802 207.895, 455.784 208.082, 456.551 208.892 M 187.461 212.063 C 186.796 213.139, 188.525 214.949, 190.250 214.985 C 191.482 215.010, 191.101 213.328, 189.589 212.074 C 188.520 211.187, 188.004 211.184, 187.461 212.063 M 440 213.500 C 440 214.325, 440.450 215, 441 215 C 441.550 215, 442 214.325, 442 213.500 C 442 212.675, 441.550 212, 441 212 C 440.450 212, 440 212.675, 440 213.500 M 313.831 220.990 C 310.163 221.270, 306.789 221.874, 306.332 222.332 C 304.662 224.008, 309.429 226, 315.109 226 C 322.047 226, 324 225.343, 324 223.010 C 324 220.741, 322.075 220.359, 313.831 220.990 M 158.638 225.500 C 158.955 226.325, 159.896 227, 160.729 227 C 161.963 227, 162.013 226.721, 161 225.500 C 160.315 224.675, 159.374 224, 158.909 224 C 158.444 224, 158.322 224.675, 158.638 225.500 M 297 227.305 C 293.975 228.450, 291.350 229.750, 291.167 230.193 C 290.983 230.637, 290.115 231, 289.238 231 C 286.790 231, 281 233.294, 281 234.264 C 281 234.738, 280.212 235.028, 279.250 234.909 C 277.427 234.684, 276.549 234.952, 268.815 238.095 C 266.238 239.143, 263.425 240, 262.565 240 C 261.704 240, 261 240.450, 261 241 C 261 241.550, 259.875 242, 258.500 242 C 257.125 242, 256 242.450, 256 243 C 256 243.550, 254.902 244, 253.559 244 C 252.216 244, 250.840 244.450, 250.500 245 C 250.160 245.550, 248.810 246, 247.500 246 C 246.190 246, 244.840 246.450, 244.500 247 C 244.160 247.550, 243.229 248, 242.430 248 C 241.632 248, 239.071 248.830, 236.739 249.845 C 231.617 252.075, 225.792 254, 224.168 254 C 223.514 254, 221.071 254.838, 218.739 255.863 C 216.408 256.888, 212.622 258.516, 210.326 259.480 C 207.577 260.636, 206.334 261.707, 206.683 262.617 C 206.997 263.435, 206.568 264, 205.633 264 C 204.763 264, 203.358 265.341, 202.510 266.980 C 200.695 270.490, 200.114 276.801, 199.975 294.500 C 199.898 304.365, 199.628 306.897, 198.856 305 C 198.260 303.536, 197.982 296.075, 198.186 287 C 198.461 274.762, 198.899 270.782, 200.271 268.088 C 202.245 264.212, 201.989 263.154, 199.645 265.497 C 196.134 269.009, 195.271 276.485, 195.752 299.250 L 196 311 198.941 311 C 200.559 311, 202.140 311.418, 202.456 311.928 C 203.077 312.934, 201.564 313.528, 195.738 314.560 C 192.408 315.151, 192.054 315.023, 192.658 313.450 C 193.865 310.303, 191.339 312.767, 189.971 316.071 C 188.238 320.255, 189.515 320.965, 198.809 320.985 C 203.949 320.995, 205.912 321.333, 205.425 322.121 C 204.968 322.860, 202.057 323.087, 196.866 322.786 L 189 322.331 189 325.242 C 189 327.127, 190.031 329.185, 191.923 331.077 C 194.386 333.540, 195.645 334, 199.923 334 C 205.979 334, 208.356 332.104, 210.012 325.957 C 211.398 320.807, 210.189 316.822, 205.895 312.391 L 202.847 309.247 203.173 289.275 C 203.432 273.437, 203.807 268.932, 204.985 267.515 C 208.062 263.814, 215.038 260.476, 234.476 253.409 C 256.142 245.531, 277.772 237.467, 293.289 231.482 C 302.446 227.950, 303.328 227.788, 306.940 228.980 C 312.278 230.742, 322.546 229.914, 324.780 227.542 C 326.415 225.806, 326.401 225.755, 324.500 226.497 C 320.211 228.172, 311.480 228.227, 307.596 226.604 C 303.109 224.730, 303.952 224.674, 297 227.305 M 469 228 C 469 228.550, 469.675 229, 470.500 229 C 471.325 229, 472 228.550, 472 228 C 472 227.450, 471.325 227, 470.500 227 C 469.675 227, 469 227.450, 469 228 M 102 236.435 C 102 240.768, 103.347 244.347, 105.960 246.960 C 110.570 251.570, 112.581 247.720, 109.462 240.254 C 106.308 232.707, 102 230.502, 102 236.435 M 519.899 236.141 C 517.125 240.038, 515.609 249, 517.725 249 C 520.056 249, 523.835 244.394, 524.526 240.712 C 525.910 233.334, 523.555 231.008, 519.899 236.141 M 478 249.268 C 460.381 256.576, 434.724 267.016, 388.500 285.687 C 310.469 317.206, 316.324 315.204, 309.500 312.704 C 307.300 311.898, 284.125 302.597, 258 292.035 C 231.875 281.474, 209.493 272.593, 208.262 272.302 C 205.515 271.651, 204.065 274.501, 206.113 276.527 C 206.876 277.281, 214.025 280.422, 222 283.507 C 229.975 286.592, 253.849 296.064, 275.053 304.558 C 296.256 313.051, 314.310 320, 315.172 320 C 316.034 320, 324.110 317.013, 333.119 313.361 C 348.566 307.101, 369.703 298.714, 418.500 279.482 C 440.929 270.642, 465.581 260.682, 470.500 258.473 C 472.150 257.731, 476.425 255.932, 480 254.475 C 487.972 251.225, 489.673 249.757, 488.422 247.206 C 487.550 245.429, 486.986 245.540, 478 249.268 M 141.015 247.750 C 141.024 248.713, 141.361 249.971, 141.765 250.547 C 142.169 251.123, 150.600 254.827, 160.500 258.778 C 170.400 262.730, 181.865 267.344, 185.977 269.031 C 192.978 271.905, 193.534 271.990, 194.727 270.359 C 195.427 269.401, 196 268.326, 196 267.969 C 196 267.157, 192.568 265.570, 183 261.958 C 178.875 260.401, 168.326 256.173, 159.558 252.563 C 150.790 248.954, 143.027 246, 142.308 246 C 141.589 246, 141.007 246.787, 141.015 247.750 M 131.850 263.834 C 126.337 269.421, 124.511 274.797, 125.549 282.386 C 125.934 285.199, 126.660 288.587, 127.163 289.916 L 128.077 292.332 131.087 288.916 C 136.187 283.128, 138.981 276.253, 138.977 269.500 C 138.973 263.243, 138.216 258.957, 137.133 259.060 C 136.785 259.093, 134.407 261.242, 131.850 263.834 M 488.416 262.596 C 488.045 264.573, 487.973 269.070, 488.255 272.589 C 488.716 278.333, 489.265 279.641, 493.634 285.393 C 496.310 288.916, 498.788 291.507, 499.139 291.149 C 500.374 289.894, 501.516 279.444, 500.984 274.261 C 500.511 269.646, 499.858 268.425, 495.511 264.011 C 492.796 261.255, 490.241 259, 489.833 259 C 489.425 259, 488.787 260.618, 488.416 262.596 M 148.390 273.638 C 140.955 278.680, 137.059 285.351, 137.022 293.101 C 136.996 298.583, 138.701 304, 140.453 304 C 142.614 304, 151.133 294.955, 153.046 290.628 C 154.050 288.358, 155.188 283.012, 155.574 278.750 C 156.236 271.435, 156.164 271, 154.277 271 C 153.178 271, 150.529 272.187, 148.390 273.638 M 471.254 278.872 C 472.047 290.439, 476.958 299.859, 484.132 303.568 C 486.939 305.020, 487.058 304.982, 488.126 302.282 C 491.119 294.715, 489.981 286.995, 484.800 279.719 C 482.118 275.953, 475.249 271, 472.707 271 C 470.840 271, 470.748 271.496, 471.254 278.872 M 526.500 288.424 C 513.708 291.632, 508.784 296.015, 502.318 309.947 C 499.896 315.165, 497.371 319.780, 496.707 320.202 C 494.535 321.583, 497.490 321.092, 504.627 318.888 C 517.837 314.808, 527.491 305.198, 532.423 291.217 C 534.104 286.454, 534.191 286.495, 526.500 288.424 M 389.500 293.660 C 375.301 299.472, 339.267 314.095, 326.802 319.103 C 321.467 321.246, 316.152 323, 314.990 323 C 313.828 323, 304.693 319.671, 294.689 315.602 C 246.514 296.007, 233.989 291, 233.149 291 C 232.090 291, 229.520 306.874, 227.472 326.076 C 225.899 340.817, 225.628 350.947, 226.765 352.511 C 227.169 353.066, 229.862 354.606, 232.750 355.931 C 237.667 358.189, 238 358.570, 238 361.948 C 238 363.932, 238.691 366.542, 239.536 367.749 C 241.196 370.118, 251.998 373.951, 257.355 374.070 C 259.085 374.109, 261.400 374.511, 262.500 374.963 C 264.312 375.708, 264.339 375.851, 262.781 376.488 C 259.631 377.775, 255.272 385.759, 253.979 392.612 C 252.502 400.439, 253.144 409.116, 255.839 417.750 C 256.912 421.188, 257.588 424, 257.340 424 C 257.092 424, 255.765 421.543, 254.390 418.540 C 249.868 408.664, 250.140 394.075, 255.068 382.186 C 256.469 378.807, 256.580 378.056, 255.466 379.495 C 254.231 381.090, 253.753 381.218, 253.082 380.132 C 252.375 378.988, 252.156 378.989, 251.700 380.137 C 251.245 381.282, 251.145 381.280, 251.079 380.128 C 251.015 379.022, 250.709 378.997, 249.500 380 C 248.675 380.685, 248 380.910, 248 380.500 C 248 380.090, 247.241 380.373, 246.313 381.128 C 244.816 382.345, 244.703 382.274, 245.315 380.500 C 245.988 378.547, 245.963 378.548, 244.252 380.554 C 243.288 381.684, 241.737 383.709, 240.804 385.054 L 239.108 387.500 240.024 384.112 C 240.527 382.249, 241.700 379.884, 242.630 378.856 C 245.527 375.655, 243.601 375.932, 240.080 379.223 C 234.094 384.817, 232.490 389.896, 232.571 403 C 232.620 411.101, 233.125 415.756, 234.276 418.750 C 235.176 421.087, 235.518 423, 235.038 423 C 234.558 423, 233.341 420.863, 232.333 418.250 C 230.970 414.718, 230.503 410.808, 230.512 403 C 230.522 393.888, 230.880 391.641, 233.218 386 C 234.700 382.425, 235.321 380.288, 234.596 381.250 C 232.983 383.394, 231.856 383.538, 232.638 381.500 C 233.626 378.927, 232.290 379.854, 230.115 383.250 C 228.934 385.095, 228.026 385.826, 228.017 384.941 C 228.008 384.084, 228.661 382.509, 229.468 381.441 C 231.565 378.669, 231.341 377.381, 229.113 379.398 C 228.075 380.337, 225.948 383.894, 224.388 387.303 C 219.021 399.021, 220.055 415.323, 226.798 425.326 C 231.152 431.785, 235.529 433.375, 250.159 433.815 C 262.086 434.174, 262.855 434.321, 263.466 436.348 C 264.648 440.278, 265.374 465.349, 264.286 464.677 C 263.731 464.334, 263.039 458.754, 262.748 452.276 C 262.457 445.799, 261.710 439.375, 261.088 438 C 260.115 435.849, 260.026 436.199, 260.452 440.500 C 262.011 456.269, 262.239 464, 261.143 464 C 260.387 464, 260 461.461, 260 456.500 L 260 449 248.250 449.199 L 236.500 449.399 248 449.982 L 259.500 450.566 248 451.069 L 236.500 451.572 247.809 451.786 C 262.366 452.061, 261.887 453.927, 247.191 454.194 L 236.500 454.387 246.500 454.947 C 256.181 455.489, 256.324 455.531, 251 456.260 C 247.975 456.674, 243.475 457.157, 241 457.332 C 238.525 457.507, 240.887 457.729, 246.250 457.825 C 259.045 458.055, 259.329 460, 246.567 460 C 237.694 460, 237.086 460.133, 236.317 462.250 C 235.797 463.682, 235.318 459.227, 235 450 C 234.725 442.025, 234.117 435.500, 233.648 435.500 C 233.179 435.500, 232.862 442.137, 232.944 450.250 C 233.039 459.685, 232.725 465, 232.074 465 C 231.448 465, 230.938 459.707, 230.748 451.250 L 230.439 437.500 230.219 452.191 C 230.093 460.657, 229.576 467.144, 229 467.500 C 228.351 467.901, 227.995 463.090, 227.985 453.809 C 227.976 445.939, 227.533 438.825, 227 438 C 226.351 436.996, 226.026 441.712, 226.015 452.250 C 226.007 460.913, 225.617 468, 225.150 468 C 224.221 468, 223 453.718, 223 442.846 L 223 436 207.559 436 C 199.066 436, 191.871 436.400, 191.569 436.889 C 191.267 437.378, 192.560 438.953, 194.443 440.389 C 197.291 442.561, 198.928 443.003, 204.183 443.015 C 213.992 443.039, 215.187 444.940, 205.500 445.110 C 198.199 445.238, 197.893 445.320, 202 446.051 C 204.475 446.491, 208.487 446.885, 210.917 446.926 C 217.575 447.038, 215.098 448.138, 206.300 448.977 L 198.500 449.720 206 449.875 C 216.524 450.093, 218.040 451.574, 208.640 452.455 C 204.479 452.845, 200.607 452.875, 200.037 452.523 C 199.467 452.170, 199 452.359, 199 452.941 C 199 453.598, 202.036 454, 207 454 C 216.150 454, 218.204 455.934, 209.250 456.119 L 203.500 456.238 209 457.259 C 215.424 458.452, 215.025 458.712, 204.990 459.874 L 197.500 460.741 204.750 460.870 C 214.451 461.044, 214.245 463, 204.526 463 C 197.232 463, 197.014 463.073, 195.500 466 L 193.949 469 203.893 469 C 220.138 469, 218.757 470.459, 202 471 C 186.861 471.488, 186.493 471.552, 186.180 473.750 C 185.954 475.344, 186.392 476.037, 187.680 476.126 C 191.092 476.362, 208.488 476.957, 212.616 476.979 L 216.731 477 214.866 483.728 C 212.364 492.751, 212.418 505.404, 215.001 515.505 C 216.102 519.809, 216.838 523.495, 216.638 523.696 C 216.046 524.288, 212.168 514.695, 211.065 509.910 C 209.330 502.382, 210.043 488.574, 212.623 479.750 C 212.905 478.787, 212.727 478, 212.228 478 C 211.012 478, 209.280 481.954, 208.434 486.661 C 207.271 493.127, 205.807 494.138, 206.495 488 C 206.834 484.975, 207.360 481.488, 207.664 480.250 C 208.127 478.364, 207.807 478, 205.689 478 C 203.533 478, 202.897 478.774, 201.369 483.250 C 199.449 488.878, 198.825 506.373, 200.236 515 L 200.973 519.500 199.378 516 C 196.538 509.770, 195.587 500.728, 196.770 491.204 C 197.364 486.417, 198.175 481.600, 198.572 480.500 C 199.165 478.857, 199.054 478.723, 197.948 479.749 C 197.207 480.436, 196.129 482.461, 195.551 484.249 C 194.402 487.805, 190 489.610, 190 486.526 C 190 485.544, 190.685 485.027, 191.750 485.206 C 192.918 485.402, 193.606 484.752, 193.820 483.250 C 194.203 480.552, 191.001 480.089, 188.960 482.548 C 187.904 483.820, 187.972 484.717, 189.338 487.582 C 191.239 491.570, 191.319 492, 190.157 492 C 188.563 492, 185.706 485.319, 186.198 482.743 C 186.554 480.881, 186.321 480.323, 185.344 480.698 C 184.605 480.982, 184 480.689, 184 480.048 C 184 479.364, 183.484 479.206, 182.750 479.666 C 182.063 480.097, 180.774 480.331, 179.888 480.186 C 178.106 479.893, 176.627 482.892, 175.048 490 C 173.622 496.423, 173.801 505.397, 175.517 513.500 C 177.270 521.775, 177.262 521.662, 176.052 520.450 C 174.111 518.506, 172 507.304, 172 498.949 C 172 491.350, 173.035 485.650, 175.487 479.750 C 176.040 478.420, 175.728 478, 174.187 478 C 170.661 478, 168.500 486.454, 168.500 500.249 C 168.500 506.711, 168.219 511.998, 167.875 511.999 C 165.724 512.002, 165.408 494.526, 167.388 485.071 C 168.582 479.370, 168.567 478.861, 167.255 480.571 C 159.460 490.730, 159.094 511.995, 166.524 523.035 C 168.317 525.701, 169.533 528.133, 169.226 528.441 C 168.918 528.748, 156.929 529.087, 142.583 529.193 C 120.445 529.357, 118.542 529.477, 130 529.992 C 149.432 530.864, 467.652 530.940, 498 530.080 L 523.500 529.357 496.729 529.178 L 469.957 529 468.818 526.500 C 467.901 524.488, 466.956 524, 463.974 524 C 461.777 524, 459.229 523.182, 457.713 521.989 C 451.668 517.234, 449.596 502.078, 453.728 492.834 C 456.067 487.601, 458.747 485.468, 464.250 484.463 C 467.345 483.897, 468 483.361, 468 481.389 C 468 479.124, 467.677 479.001, 461.750 479.015 C 454.873 479.032, 450.433 480.579, 456.597 480.811 C 460.465 480.957, 461.780 481.554, 460.672 482.661 C 460.309 483.025, 444.045 483.536, 424.531 483.798 C 405.017 484.060, 389.291 484.662, 389.585 485.137 C 389.878 485.612, 402.466 486, 417.559 486 C 435.186 486, 445 486.358, 445 487 C 445 487.550, 443.313 488.061, 441.250 488.136 C 439.188 488.210, 426.700 488.576, 413.500 488.949 L 389.500 489.627 417.191 489.814 C 432.421 489.916, 445.122 490.389, 445.416 490.864 C 445.987 491.789, 411.630 493.303, 398.737 492.922 C 394.468 492.795, 390.680 492.986, 390.321 493.346 C 389.961 493.706, 402.192 494, 417.500 494 C 432.808 494, 444.996 494.337, 444.584 494.750 C 444.172 495.163, 431.609 495.753, 416.667 496.063 L 389.500 496.626 418.809 496.813 C 438.047 496.936, 447.906 497.344, 447.500 498 C 447.111 498.629, 436.323 499, 418.441 499 L 390 499 389.882 502.750 C 389.817 504.813, 389.420 507.850, 389 509.500 C 388.508 511.434, 388.186 508.234, 388.094 500.500 C 387.963 489.382, 387.454 485.070, 385.587 479.250 L 384.865 477 404.198 477 C 426.573 477, 428.777 476.380, 432.956 468.913 C 435.024 465.217, 435.414 463.180, 435.424 456.012 C 435.430 451.331, 434.827 445.734, 434.082 443.575 C 432.823 439.923, 432.634 439.780, 431.361 441.521 C 430.088 443.261, 429.880 443.104, 428.367 439.253 C 427.473 436.977, 426.125 434.878, 425.371 434.589 C 423.681 433.940, 423.681 434.369, 425.376 440 C 427.617 447.450, 428.231 455.570, 427.001 461.497 C 425.492 468.765, 424.110 468.580, 425.153 461.250 C 426.082 454.721, 425.518 448.647, 423.344 441.762 C 421.751 436.721, 419.445 433.940, 420.568 438.416 C 421.416 441.792, 420.450 441.712, 418.572 438.250 C 417.311 435.926, 417.071 435.810, 417.025 437.500 C 416.979 439.161, 416.805 439.246, 416 438 C 415.138 436.667, 415.025 436.667, 414.984 438 C 414.948 439.139, 414.551 439.019, 413.334 437.500 C 412.120 435.985, 411.872 435.910, 412.310 437.187 C 414.665 444.049, 415.519 450.835, 415.170 459.917 C 414.889 467.218, 413.773 463.689, 413.518 454.693 C 413.294 446.797, 410.593 435, 409.010 435 C 408.615 435, 408.902 437.348, 409.646 440.218 C 410.391 443.088, 410.957 447.475, 410.904 449.968 C 410.813 454.283, 410.751 454.178, 409.612 447.791 C 408.380 440.882, 406.713 437.197, 407.369 442.833 L 407.738 446 402.369 446 C 399.416 446, 397 445.550, 397 445 C 397 444.450, 395.762 443.994, 394.250 443.987 C 391.832 443.975, 391.310 443.371, 389.923 438.987 C 388.888 435.710, 388.716 433.977, 389.423 433.932 C 390.016 433.894, 394.116 433.920, 398.536 433.988 C 408.314 434.140, 412.070 432.983, 411.304 430.055 C 411.009 428.925, 410.707 427.907, 410.633 427.794 C 410.560 427.681, 389.720 427.344, 364.322 427.044 C 319.472 426.516, 318.062 426.440, 315.322 424.408 C 308.761 419.544, 305.788 412.012, 305.834 400.366 C 305.864 392.855, 308.423 385.546, 313.110 379.587 C 317.512 373.991, 319.115 373.713, 349.500 373.273 C 388.817 372.704, 396 370.978, 396 362.094 C 396 358.266, 396.129 358.128, 402.500 355.147 C 406.135 353.446, 409 351.463, 409 350.648 C 409 344.105, 402.115 290.867, 401.134 289.829 C 400.785 289.459, 395.550 291.183, 389.500 293.660 M 154.296 305.657 C 146.892 317.237, 145.787 319.788, 145.243 326.560 C 144.619 334.331, 145.909 338.349, 152.344 348.696 L 157.441 356.891 160.811 349.696 C 165.672 339.315, 166.978 334.400, 166.977 326.500 C 166.976 318.776, 165.551 312.496, 161.795 303.657 L 159.312 297.815 154.296 305.657 M 493.622 301.141 C 493.280 302.851, 493.016 305.881, 493.035 307.875 L 493.071 311.500 494.500 309 C 496.086 306.226, 496.492 299.422, 495.122 298.575 C 494.639 298.277, 493.964 299.431, 493.622 301.141 M 461.686 306.438 C 455.612 322.772, 455.698 333.490, 462.008 346.675 C 463.804 350.429, 465.798 354.935, 466.437 356.690 L 467.601 359.879 473.506 348.276 C 478.998 337.485, 479.407 336.212, 479.342 330.086 C 479.300 326.187, 478.564 321.868, 477.537 319.500 C 475.376 314.516, 465.956 299, 465.091 299 C 464.740 299, 463.208 302.347, 461.686 306.438 M 398 309 C 398 309.550, 398.675 310, 399.500 310 C 400.325 310, 401 310.450, 401 311 C 401 311.550, 400.325 312, 399.500 312 C 398.675 312, 398 312.450, 398 313 C 398 313.550, 398.675 314, 399.500 314 C 401.315 314, 401.497 315.656, 399.750 316.280 C 399.063 316.525, 398.758 317.008, 399.073 317.353 C 399.388 317.697, 400.438 317.400, 401.406 316.692 C 403.872 314.889, 402.669 308, 399.889 308 C 398.850 308, 398 308.450, 398 309 M 140.624 311.539 C 140.281 312.432, 140.029 313.689, 140.063 314.332 C 140.098 314.974, 140.558 314.422, 141.085 313.105 C 141.612 311.787, 141.864 310.531, 141.645 310.312 C 141.426 310.093, 140.966 310.645, 140.624 311.539 M 97.064 315.939 C 93.353 318.288, 101.983 322.058, 106.898 320.236 C 109.294 319.347, 109.293 319.344, 105.780 317.173 C 102.022 314.851, 99.376 314.476, 97.064 315.939 M 262.462 319.226 C 262.069 321.550, 261.395 331.788, 260.964 341.976 L 260.180 360.500 260.417 338.500 C 260.665 315.389, 259.624 313.641, 258.288 334.930 L 257.500 347.500 256.946 337 C 256.443 327.470, 256.373 328.081, 256.196 343.622 L 256 360.744 259.750 361.402 C 261.813 361.764, 265.413 362.436, 267.750 362.896 L 272 363.731 271.867 340.116 C 271.753 319.854, 271.605 317.707, 270.822 325 C 270.321 329.675, 270.043 339.883, 270.205 347.685 C 270.382 356.206, 270.149 361.240, 269.621 360.293 C 269.137 359.426, 268.947 349.075, 269.198 337.291 C 269.768 310.548, 268.136 311.323, 266.998 338.335 L 266.191 357.500 266.373 337.236 C 266.591 312.826, 265.245 314.112, 264.016 339.488 L 263.144 357.500 263.492 336.250 C 263.683 324.563, 263.690 315, 263.508 315 C 263.325 315, 262.855 316.902, 262.462 319.226 M 521.028 316.113 C 518.321 317.194, 516.855 318.956, 517.625 320.202 C 518.547 321.694, 524.769 321.007, 527.048 319.162 C 531.138 315.850, 526.973 313.741, 521.028 316.113 M 401.429 320.988 C 401.429 322.095, 402.040 323, 402.788 323 C 403.535 323, 404.001 322.250, 403.823 321.333 C 403.352 318.902, 401.429 318.626, 401.429 320.988 M 253.652 326.750 C 252.634 337.531, 252.869 360, 254 360 C 254.633 360, 255 352.667, 255 340 C 255 329, 254.840 320, 254.645 320 C 254.449 320, 254.002 323.038, 253.652 326.750 M 276.656 329.750 C 275.657 344.836, 275.854 365, 277 365 C 277.637 365, 278 356.833, 278 342.500 C 278 330.125, 277.843 320, 277.651 320 C 277.459 320, 277.011 324.387, 276.656 329.750 M 273.652 327.750 C 272.626 338.610, 272.870 364, 274 364 C 274.636 364, 275 356.167, 275 342.500 C 275 330.675, 274.840 321, 274.645 321 C 274.449 321, 274.002 324.038, 273.652 327.750 M 279.682 333 C 278.653 344.965, 279.160 364.948, 280.500 365.184 C 281.050 365.281, 283.188 365.669, 285.250 366.046 L 289 366.731 289.196 359.616 L 289.392 352.500 289.747 359.500 C 290.278 369.964, 292 370.117, 292 359.700 C 292 353.811, 291.628 351, 290.850 351 C 290.022 351, 289.879 348.485, 290.339 342 C 290.694 337.002, 290.587 333, 290.098 333 C 289.615 333, 288.889 338.063, 288.487 344.250 C 287.198 364.080, 286.189 365.091, 286.741 346 C 287.035 335.825, 286.947 327.804, 286.546 328.176 C 286.144 328.548, 285.475 335.748, 285.060 344.176 L 284.306 359.500 284.035 345 C 283.705 327.391, 282.387 330.480, 281.900 350 C 281.571 363.232, 281.553 363.103, 281.032 343.500 C 280.519 324.214, 280.471 323.839, 279.682 333 M 402.277 325.952 C 402.558 327.026, 402.273 328.115, 401.644 328.373 C 401.015 328.631, 401.288 328.878, 402.250 328.921 C 403.471 328.976, 404 328.244, 404 326.500 C 404 325.125, 403.498 324, 402.883 324 C 402.268 324, 401.996 324.877, 402.277 325.952 M 98.012 325.750 C 98.018 326.163, 98.625 328.750, 99.359 331.500 C 101.011 337.683, 104.041 343.706, 107.666 348.015 C 110.632 351.540, 117.682 357, 119.267 357 C 120.735 357, 119.114 344.159, 117.048 339.427 C 115.059 334.873, 108.493 329.034, 102.628 326.604 C 98.197 324.769, 97.996 324.731, 98.012 325.750 M 520.289 326.649 C 514.392 328.738, 506.467 336.487, 505.101 341.500 C 503.856 346.071, 503.618 357, 504.763 357 C 506.793 357, 516.301 349.502, 518.517 346.154 C 522.285 340.459, 527.318 324.890, 525.329 325.079 C 524.873 325.122, 522.605 325.829, 520.289 326.649 M 401 332 C 399.781 332.788, 399.910 332.972, 401.691 332.985 C 402.896 332.993, 404.160 332.550, 404.500 332 C 405.287 330.727, 402.970 330.727, 401 332 M 251.087 332.500 C 250.894 333.050, 250.424 338.675, 250.041 345 L 249.346 356.500 249.058 344.500 C 248.832 335.081, 248.592 333.360, 247.943 336.500 C 247.488 338.700, 247.089 344.385, 247.058 349.133 C 247.004 357.218, 247.140 357.803, 249.206 358.344 C 250.420 358.661, 251.558 358.775, 251.736 358.597 C 251.914 358.419, 251.920 352.249, 251.748 344.887 C 251.577 337.524, 251.279 331.950, 251.087 332.500 M 205 335.187 C 203.608 335.738, 199.620 335.892, 196 335.536 C 190.887 335.032, 189.760 335.156, 190.717 336.115 C 191.387 336.786, 194.987 337.614, 198.717 337.956 C 204.496 338.486, 205.044 338.689, 202.417 339.332 C 200.722 339.746, 197.347 339.627, 194.917 339.067 C 192.488 338.507, 190.211 338.038, 189.858 338.024 C 187.844 337.948, 185.070 363.543, 184.604 386.500 C 184.380 397.551, 184.507 401.412, 184.933 396.500 C 185.557 389.314, 185.662 389.009, 185.966 393.500 C 186.152 396.250, 186.409 398.950, 186.537 399.500 C 186.665 400.050, 186.821 401.962, 186.885 403.750 C 186.948 405.538, 187.454 407, 188.010 407 C 188.675 407, 188.828 399.757, 188.457 385.750 C 188.148 374.063, 188.307 360.675, 188.811 356 C 189.623 348.473, 189.758 350.134, 189.994 370.500 C 190.321 398.646, 191.028 408.187, 192.830 408.782 C 193.928 409.144, 194.035 404.159, 193.439 380.275 C 192.976 361.747, 193.071 350.696, 193.701 349.569 C 194.382 348.354, 194.891 355.335, 195.349 372.155 C 196.221 404.139, 196.790 410.186, 198.891 409.786 C 201.088 409.367, 201.684 403.631, 202.580 374.250 C 202.996 360.596, 203.723 350, 204.244 350 C 204.806 350, 204.883 361.573, 204.441 379.500 C 203.805 405.303, 203.901 409, 205.205 409 C 206.940 409, 208 396.179, 208 375.178 C 208 368.297, 208.284 362.951, 208.632 363.298 C 209.265 363.932, 209.765 377.140, 209.918 397.309 C 209.971 404.241, 210.359 407.896, 211 407.500 C 211.550 407.160, 212 403.459, 212 399.274 C 212 390.505, 212.845 389.802, 213.124 398.338 C 213.227 401.493, 213.691 404.309, 214.156 404.596 C 215.203 405.244, 215.197 404.512, 213.984 383 C 212.644 359.235, 210.148 336.747, 208.696 335.349 C 207.859 334.544, 206.749 334.495, 205 335.187 M 171.086 337 C 171.055 337.825, 171.467 339.175, 172 340 C 173.181 341.828, 173.181 340.249, 172 337.500 C 171.433 336.181, 171.122 336.011, 171.086 337 M 294.332 351.250 C 293.506 364.495, 293.825 369.556, 295.383 367.933 C 296.060 367.228, 296.558 336, 295.893 336 C 295.557 336, 294.855 342.863, 294.332 351.250 M 447.031 336.500 C 447.031 337.050, 447.467 338.175, 448 339 C 448.533 339.825, 448.969 340.050, 448.969 339.500 C 448.969 338.950, 448.533 337.825, 448 337 C 447.467 336.175, 447.031 335.950, 447.031 336.500 M 302.168 346.103 C 302.076 351.385, 301.711 358.473, 301.358 361.853 C 300.846 366.747, 300.999 368, 302.108 368.001 C 303.237 368.002, 303.449 365.685, 303.228 355.751 C 302.855 338.959, 302.370 334.548, 302.168 346.103 M 292.286 343.500 C 292.294 346.250, 292.488 347.256, 292.718 345.736 C 292.947 344.216, 292.941 341.966, 292.704 340.736 C 292.467 339.506, 292.279 340.750, 292.286 343.500 M 305.761 342.500 C 304.614 348.706, 304.838 367.782, 306.067 368.541 C 306.653 368.904, 307.216 369.043, 307.317 368.850 C 307.417 368.658, 307.275 361.750, 307 353.500 C 306.645 342.854, 306.286 339.661, 305.761 342.500 M 244.750 340.575 C 244.338 340.992, 244.041 344.971, 244.090 349.417 C 244.167 356.302, 244.322 357.007, 245.138 354.176 C 246.218 350.426, 245.904 339.409, 244.750 340.575 M 445.910 341.832 C 446.450 342.840, 447.685 344.302, 448.656 345.082 C 449.909 346.088, 449.760 345.556, 448.143 343.250 C 445.674 339.729, 444.327 338.873, 445.910 341.832 M 240.963 348.500 C 240.435 355.536, 240.536 356.797, 241.548 355.785 C 241.850 355.483, 241.960 352.146, 241.793 348.368 L 241.488 341.500 240.963 348.500 M 174.548 346.126 C 171.737 349.466, 171.691 350.440, 174.394 349.402 C 176.276 348.680, 179.577 343, 178.115 343 C 177.599 343, 175.994 344.407, 174.548 346.126 M 297.821 355.487 C 297.447 362.080, 297.334 367.668, 297.571 367.904 C 298.764 369.097, 299.041 366.235, 298.783 355.384 L 298.500 343.500 297.821 355.487 M 404 348.500 C 404 349.875, 404.450 351, 405 351 C 405.550 351, 406 349.875, 406 348.500 C 406 347.125, 405.550 346, 405 346 C 404.450 346, 404 347.125, 404 348.500 M 177 349.500 C 176.315 350.325, 175.162 351, 174.437 351 C 172.949 351, 171.511 352.845, 172.347 353.681 C 173.073 354.407, 180 350.097, 180 348.918 C 180 347.513, 178.390 347.825, 177 349.500 M 238.252 351.500 C 238.263 353.700, 238.468 354.482, 238.707 353.238 C 238.946 351.994, 238.937 350.194, 238.687 349.238 C 238.437 348.282, 238.241 349.300, 238.252 351.500 M 235.195 351.500 C 235.215 353.150, 235.439 353.704, 235.693 352.731 C 235.947 351.758, 235.930 350.408, 235.656 349.731 C 235.382 349.054, 235.175 349.850, 235.195 351.500 M 198.115 374.500 C 198.059 390.975, 198.361 398.989, 199 398 C 200.161 396.203, 200.161 355.626, 199 352 C 198.550 350.594, 198.162 360.436, 198.115 374.500 M 174.962 355.959 C 173.058 357.587, 171.967 358.937, 172.538 358.959 C 173.109 358.982, 175.134 357.668, 177.038 356.041 C 178.942 354.413, 180.033 353.063, 179.462 353.041 C 178.891 353.018, 176.866 354.332, 174.962 355.959 M 447.065 354.500 C 447.063 355.933, 449.877 359.456, 450.515 358.819 C 450.809 358.524, 450.154 357.207, 449.058 355.892 C 447.963 354.576, 447.066 353.950, 447.065 354.500 M 309.155 360.176 C 309.177 363.023, 309.572 366.285, 310.034 367.426 C 310.606 368.839, 310.893 367.190, 310.937 362.250 C 310.971 358.262, 310.576 355, 310.057 355 C 309.539 355, 309.133 357.329, 309.155 360.176 M 104.882 357.250 C 104.629 359.913, 105.239 361.375, 107.329 363.121 C 109.476 364.913, 109.435 364.934, 103.750 364.967 C 100.588 364.985, 98 365.450, 98 366 C 98 366.550, 100.588 367.010, 103.750 367.022 C 110.330 367.047, 115.758 369.184, 123.291 374.713 L 128.328 378.411 127.658 373.521 C 126.882 367.857, 124.933 364.431, 121.951 363.485 C 118.977 362.540, 118.618 363.360, 120.452 366.907 C 122.291 370.464, 121.970 370.661, 118.215 368.276 C 114.815 366.117, 112 363.057, 112 361.521 C 112 360.031, 107.755 356, 106.186 356 C 105.533 356, 104.947 356.563, 104.882 357.250 M 516.783 357.750 C 515.943 358.712, 514.518 361.075, 513.617 363 C 512.715 364.925, 510.414 367.512, 508.503 368.750 C 504.336 371.448, 503.136 371.631, 505.227 369.250 C 506.072 368.288, 507.072 366.488, 507.449 365.250 C 508.545 361.654, 504.401 362.293, 502.101 366.074 C 500.237 369.139, 498.485 376.818, 499.433 377.767 C 499.708 378.041, 501.606 376.797, 503.651 375.002 C 509.219 370.113, 516.607 367.021, 522.750 367.010 C 525.638 367.004, 528 366.550, 528 366 C 528 365.450, 525.447 365, 522.326 365 L 516.651 365 518.826 362.686 C 521.238 360.118, 521.749 356, 519.655 356 C 518.915 356, 517.623 356.788, 516.783 357.750 M 313.015 365.750 C 313.007 367.538, 313.450 369, 314 369 C 315.270 369, 315.270 365.965, 314 364 C 313.264 362.862, 313.027 363.284, 313.015 365.750 M 90.392 368.422 C 89.774 370.031, 91.604 374, 92.964 374 C 93.455 374, 94.586 373.272, 95.476 372.381 C 96.968 370.889, 96.961 370.615, 95.392 368.881 C 93.371 366.648, 91.151 366.444, 90.392 368.422 M 530.200 368.200 C 528.499 369.901, 528.713 372.953, 530.583 373.670 C 532.669 374.471, 536.471 370.669, 535.670 368.583 C 534.953 366.713, 531.901 366.499, 530.200 368.200 M 294.395 374.771 C 284.702 375.055, 284.244 375.169, 283.145 377.580 C 281.739 380.667, 281.707 381.299, 283 380.500 C 284.370 379.653, 284.284 380.036, 282.084 384.589 C 277.779 393.501, 277.342 409.073, 281.163 417.459 C 283.123 421.759, 283.890 420.271, 282.302 415.250 C 279.995 407.956, 280.290 394.697, 282.912 387.841 C 284.102 384.729, 285.682 381.679, 286.424 381.063 C 287.279 380.353, 286.900 382.347, 285.386 386.518 C 281.558 397.064, 282.441 415.689, 287.032 421.239 C 288.873 423.465, 288.878 423.422, 287.341 418.500 C 286.356 415.348, 285.728 409.249, 285.640 402 C 285.515 391.765, 285.760 389.972, 287.864 385.698 C 289.165 383.057, 290.384 381.051, 290.574 381.241 C 290.764 381.431, 290.037 384.419, 288.960 387.882 C 287.882 391.345, 287.067 396.501, 287.150 399.339 C 287.232 402.178, 287.455 403.150, 287.645 401.500 C 288.931 390.344, 291.918 382.159, 296.040 378.500 C 297.279 377.400, 298.091 376.950, 297.845 377.500 C 297.599 378.050, 296.359 380.701, 295.089 383.392 C 291.303 391.416, 289.434 403.068, 290.725 410.605 C 291.723 416.430, 295.560 424.773, 296.712 423.622 C 296.978 423.356, 296.167 420.519, 294.911 417.319 C 291.774 409.331, 291.746 395.945, 294.849 387.936 C 297.877 380.119, 299.802 378.322, 304.867 378.581 C 307.140 378.697, 309 378.369, 309 377.852 C 309 377.335, 309.563 376.981, 310.250 377.065 C 312.128 377.293, 316 375.879, 316 374.964 C 316 374.523, 313.413 374.232, 310.250 374.318 C 307.087 374.405, 299.953 374.608, 294.395 374.771 M 264.314 377.750 C 262.889 379.262, 260.570 382.975, 259.162 386 C 256.940 390.770, 256.593 392.894, 256.550 402 C 256.505 411.523, 256.769 413.082, 259.387 418.750 C 260.974 422.188, 262.636 425, 263.080 425 C 263.524 425, 263.020 423.040, 261.961 420.644 C 259.135 414.257, 257.786 403.059, 258.961 395.759 C 260.315 387.352, 263.793 380.599, 267 380.149 C 268.375 379.956, 269.831 379.281, 270.235 378.649 C 270.745 377.851, 270.974 377.929, 270.985 378.905 C 270.996 379.979, 271.471 379.884, 273 378.500 C 275.265 376.450, 275.726 377.514, 273.617 379.921 C 272.856 380.790, 271.226 384.296, 269.996 387.714 C 266.825 396.520, 267.399 409.901, 271.312 418.402 C 274.832 426.050, 275.846 425.005, 272.834 416.833 C 271.068 412.042, 270.500 408.430, 270.500 402 C 270.500 391.066, 272.281 385.098, 277.218 379.490 L 281.170 375 274.037 375 C 267.551 375, 266.670 375.249, 264.314 377.750 M 491.798 376.774 C 490.990 377.723, 489.748 379.968, 489.038 381.763 C 488.245 383.767, 486.831 385.255, 485.373 385.621 C 480.807 386.767, 483.132 388.698, 489.500 389.047 C 494.137 389.302, 494.530 389.108, 492.454 387.590 C 490.638 386.262, 490.729 386.145, 494.013 385.591 C 495.931 385.268, 499.750 384.878, 502.500 384.727 C 507.449 384.453, 507.470 384.438, 504.611 383.197 C 500.880 381.578, 501.728 380.833, 507.305 380.833 C 514.769 380.833, 520.084 384.580, 521.724 391 C 522.712 394.869, 525.786 396.167, 527.907 393.612 C 529.463 391.737, 527.884 388.415, 525.001 387.500 C 522.948 386.849, 522.208 385, 524 385 C 524.550 385, 525 384.401, 525 383.668 C 525 381.783, 518.768 379.992, 510 379.356 C 503.269 378.868, 502.013 379.075, 497.750 381.378 C 494.202 383.294, 493 383.586, 493 382.531 C 493 381.754, 493.450 380.840, 494 380.500 C 495.228 379.741, 495.321 376.316, 494.134 375.583 C 493.657 375.288, 492.606 375.824, 491.798 376.774 M 133 378.300 C 133 379.565, 133.540 381.140, 134.200 381.800 C 135.886 383.486, 133.869 383.297, 131.350 381.533 C 126.068 377.833, 117.872 377.701, 105.250 381.112 C 101.079 382.238, 99.291 385, 102.732 385 C 103.849 385, 103.139 385.900, 100.732 387.536 C 98.679 388.931, 97 390.741, 97 391.557 C 97 392.921, 101.638 395.860, 102.294 394.912 C 102.451 394.686, 103.617 392.209, 104.886 389.408 C 107.579 383.466, 110.893 381.155, 117.916 380.324 C 123.565 379.654, 128.229 380.817, 124.191 381.888 C 119.682 383.083, 121.555 384.502, 128 384.774 C 136.375 385.127, 138.355 385.833, 135 387.274 L 132.500 388.347 134.881 388.760 C 138.080 389.315, 144 388.143, 144 386.955 C 144 386.430, 143.531 386, 142.959 386 C 142.386 386, 140.519 383.750, 138.809 381 C 135.502 375.679, 133 374.517, 133 378.300 M 323.297 377.014 C 319.741 378.446, 314.952 383.195, 312.724 387.500 C 308.409 395.840, 309.533 413.317, 314.784 419.531 C 318.816 424.302, 320.971 425.008, 330.973 424.837 C 339.619 424.689, 339.991 424.608, 335 423.963 C 331.975 423.571, 347.388 423.307, 369.251 423.376 C 391.113 423.444, 409.001 423.163, 409.001 422.750 C 409 422.337, 408.403 422, 407.674 422 C 406.945 422, 405.292 420.875, 404 419.500 L 401.651 417 363.576 416.942 C 342.634 416.911, 323.700 416.512, 321.500 416.057 C 319.111 415.563, 334.115 415.184, 358.750 415.115 C 385.507 415.040, 400 414.649, 400 414 C 400 413.350, 385.573 412.995, 358.750 412.985 C 336.063 412.976, 316.865 412.568, 316.090 412.077 C 315.120 411.463, 316.368 410.999, 320.090 410.591 C 323.065 410.265, 327.075 409.829, 329 409.620 C 330.925 409.412, 329.376 409.266, 325.558 409.295 C 320.742 409.331, 318.484 408.953, 318.186 408.058 C 317.950 407.349, 318.374 406.378, 319.128 405.900 C 320.099 405.285, 319.696 405.026, 317.750 405.015 C 316.238 405.007, 315 404.510, 315 403.911 C 315 403.131, 326.783 403.029, 356.500 403.554 C 387.393 404.099, 398 403.994, 398 403.143 C 398 402.305, 387.341 402, 358 402 C 324.157 402, 318 401.782, 318 400.583 C 318 399.804, 318.563 398.940, 319.250 398.662 C 320.250 398.259, 320.250 398.142, 319.250 398.079 C 318.563 398.036, 318 397.258, 318 396.352 C 318 394.841, 321.365 394.736, 358.223 395.102 L 398.446 395.500 401.050 390.500 C 402.746 387.245, 404.765 384.977, 406.836 384 C 409.061 382.951, 409.940 381.898, 409.759 380.500 C 409.504 378.532, 408.873 378.505, 370.250 378.834 C 342.905 379.067, 331 378.845, 331 378.102 C 331 377.382, 339.064 376.942, 355.750 376.749 L 380.500 376.463 353 376.295 C 337.875 376.203, 324.509 376.526, 323.297 377.014 M 432.377 379.541 C 432.772 380.569, 433.361 383.355, 433.687 385.732 C 434.013 388.109, 434.715 390.324, 435.247 390.653 C 435.799 390.994, 435.985 390.445, 435.680 389.375 C 435.386 388.344, 434.849 385.590, 434.486 383.255 C 434.123 380.921, 433.339 378.709, 432.743 378.341 C 432.031 377.901, 431.906 378.312, 432.377 379.541 M 146 381.453 C 146 383.746, 148.137 387.839, 149.635 388.414 C 151.947 389.301, 151.406 382.288, 149.066 381.035 C 146.495 379.659, 146 379.727, 146 381.453 M 348 381 C 351.760 382.204, 407.756 382.204, 408.500 381 C 408.908 380.341, 398.285 380.034, 377.309 380.100 C 359.808 380.155, 346.624 380.559, 348 381 M 478.571 381.571 C 476.576 383.567, 476.406 389.165, 478.365 388.414 C 479.115 388.126, 480.240 386.769, 480.865 385.398 C 483.082 380.532, 481.781 378.362, 478.571 381.571 M 327.500 389 C 325.850 389.420, 339.575 389.745, 358 389.723 C 380.093 389.697, 388.435 389.433, 382.500 388.947 C 370.711 387.984, 331.346 388.021, 327.500 389 M 321 391.892 C 316.310 393.275, 332.452 394.052, 364.190 393.971 C 382.845 393.924, 395 393.519, 395 392.946 C 395 392.370, 381.800 391.995, 361.250 391.986 C 342.688 391.979, 326.600 391.789, 325.500 391.564 C 324.400 391.339, 322.375 391.487, 321 391.892 M 323.083 398.377 C 323.313 398.584, 340.262 399.078, 360.750 399.475 C 387.561 399.993, 398 399.887, 398 399.098 C 398 398.320, 387.009 398, 360.333 398 C 339.617 398, 322.854 398.170, 323.083 398.377 M 328.142 406.475 C 328.813 407.146, 397.113 407.221, 397.783 406.551 C 398.085 406.248, 382.433 406, 363 406 C 343.567 406, 327.880 406.214, 328.142 406.475 M 364.500 410 L 335.500 410.546 367.309 410.773 C 388.317 410.923, 398.908 410.660, 398.500 410 C 398.160 409.450, 396.896 409.102, 395.691 409.227 C 394.486 409.352, 380.450 409.700, 364.500 410 M 238.044 417.800 C 237.985 419.533, 241.012 425.321, 241.646 424.687 C 241.920 424.413, 241.232 422.459, 240.116 420.344 C 239.001 418.230, 238.069 417.085, 238.044 417.800 M 337 420.050 C 350.293 421.066, 380.095 421.033, 382.500 420 C 383.671 419.497, 372.689 419.178, 356 419.232 C 335.457 419.298, 330.152 419.526, 337 420.050 M 375.306 425.747 C 381.800 425.922, 392.150 425.921, 398.306 425.746 C 404.463 425.571, 399.150 425.428, 386.500 425.429 C 373.850 425.429, 368.813 425.573, 375.306 425.747 M 370.287 429.740 C 373.469 429.939, 378.419 429.937, 381.287 429.736 C 384.154 429.535, 381.550 429.372, 375.500 429.374 C 369.450 429.376, 367.104 429.541, 370.287 429.740 M 267 435.418 C 267 437.587, 268.110 440, 269.107 440 C 269.598 440, 270 439.277, 270 438.393 C 270 437.439, 270.560 437.001, 271.378 437.315 C 272.136 437.606, 273.261 437.339, 273.878 436.722 C 274.707 435.893, 275 436.230, 275 438.014 C 275 440.186, 275.154 440.274, 276.537 438.892 C 277.406 438.022, 277.794 436.627, 277.430 435.678 C 276.576 433.454, 267 433.216, 267 435.418 M 280.310 438.250 C 280.629 440.587, 281.209 447.834, 281.598 454.353 C 282.112 462.954, 282.576 465.722, 283.292 464.444 C 284.320 462.605, 283.641 440.358, 282.430 436.250 C 281.252 432.255, 279.691 433.728, 280.310 438.250 M 285 436.500 C 285 438.980, 286.935 440.148, 287.070 437.750 C 287.109 437.063, 287.527 437.400, 288 438.500 C 288.790 440.338, 288.868 440.298, 288.960 438 C 289.055 435.645, 289.126 435.613, 290.195 437.456 C 291.321 439.397, 291.335 439.397, 292.034 437.456 C 293.483 433.434, 296 445.765, 296 456.882 C 296 468.447, 297.523 469.859, 298.625 459.316 C 299.190 453.910, 297.772 439.176, 296.324 435.402 C 295.955 434.439, 294.096 434, 290.393 434 C 285.307 434, 285 434.142, 285 436.500 M 299.377 436.250 C 301.273 443.242, 302.198 452.274, 301.726 459.166 C 301.089 468.459, 302.547 469.756, 303.506 460.750 C 304.091 455.261, 302.856 440.710, 301.384 435.750 C 300.606 433.126, 298.661 433.610, 299.377 436.250 M 303.462 435.750 C 305.018 439.778, 306.002 447.872, 306.030 456.886 C 306.054 464.375, 306.304 466.081, 307.162 464.604 C 307.878 463.371, 308.082 458.655, 307.746 451.104 C 307.226 439.428, 306.011 434, 303.918 434 C 303.249 434, 303.063 434.716, 303.462 435.750 M 307.985 435.482 C 308.995 436.699, 313.440 437.016, 332.858 437.251 L 356.500 437.538 332.667 437.769 C 314.126 437.949, 308.926 438.278, 309.249 439.250 C 309.559 440.183, 315.721 440.634, 333.582 441.027 L 357.500 441.555 333.750 441.777 C 318.732 441.918, 310 442.368, 310 443 C 310 443.633, 318.904 444.085, 334.250 444.231 L 358.500 444.461 335.031 444.750 C 304.426 445.126, 301.551 446.915, 331.050 447.227 L 352.500 447.454 333 447.734 C 313.020 448.021, 308.760 448.499, 312.500 450.037 C 313.600 450.489, 315.400 450.884, 316.500 450.914 C 318.151 450.960, 318.238 450.800, 317 450 C 316.006 449.358, 322.821 449.025, 337.202 449.015 L 358.905 449 359.260 455.250 C 359.543 460.234, 359.678 459.475, 359.926 451.500 C 360.294 439.666, 361.630 442.574, 361.994 456 C 362.223 464.463, 362.228 464.478, 363.177 459.502 C 364.224 454.009, 362.930 441.136, 360.879 436.633 L 359.679 434 333.217 434 C 309.950 434, 306.904 434.179, 307.985 435.482 M 364.243 441.250 C 365.615 446.518, 366.029 450.895, 365.757 457.258 C 365.497 463.362, 365.701 465.699, 366.431 464.969 C 367.880 463.520, 367.638 445.513, 366.098 440.107 C 365.072 436.508, 365.086 435.561, 366.173 434.872 C 367.091 434.290, 366.707 434.026, 364.927 434.015 L 362.354 434 364.243 441.250 M 374 434.874 C 374 435.355, 374.731 437.718, 375.624 440.124 C 376.726 443.093, 377.289 448.099, 377.374 455.696 C 377.458 463.155, 377.834 466.559, 378.500 465.897 C 379.050 465.350, 379.500 460.087, 379.500 454.201 C 379.500 443.011, 377.618 434, 375.282 434 C 374.577 434, 374 434.393, 374 434.874 M 381.377 436.250 C 383.332 443.461, 384.199 452.269, 383.651 459.364 C 383.173 465.566, 383.303 467.097, 384.229 466.171 C 387.011 463.389, 384.804 434, 381.812 434 C 381.214 434, 381.028 434.962, 381.377 436.250 M 385.363 436.601 C 387.406 445.674, 388.175 453.293, 387.666 459.405 C 387.217 464.790, 387.355 466.045, 388.295 465.105 C 389.975 463.425, 389.843 445.737, 388.106 439.724 C 386.575 434.427, 384.286 431.821, 385.363 436.601 M 241.784 437.738 C 244.689 437.941, 249.189 437.939, 251.784 437.734 C 254.378 437.528, 252 437.363, 246.500 437.365 C 241 437.368, 238.878 437.536, 241.784 437.738 M 269.678 441.063 C 267.220 443.934, 267.582 445.148, 270.500 443.818 C 271.875 443.192, 273 442.103, 273 441.399 C 273 439.185, 271.423 439.025, 269.678 441.063 M 275.250 441.662 C 273.377 442.418, 273.743 443.699, 276 444.290 C 277.483 444.678, 278 444.320, 278 442.906 C 278 440.975, 277.506 440.752, 275.250 441.662 M 243.250 444.735 C 245.863 444.941, 250.137 444.941, 252.750 444.735 C 255.363 444.529, 253.225 444.360, 248 444.360 C 242.775 444.360, 240.637 444.529, 243.250 444.735 M 269.831 446.750 C 267.882 449.057, 268.520 451.405, 271.536 453.019 C 273.652 454.152, 274.251 454.083, 275.990 452.509 C 278.533 450.207, 278.566 447.373, 276.066 446.035 C 273.289 444.549, 271.519 444.752, 269.831 446.750 M 356.500 447 C 356.160 447.550, 356.359 448, 356.941 448 C 357.523 448, 358 447.550, 358 447 C 358 446.450, 357.802 446, 357.559 446 C 357.316 446, 356.840 446.450, 356.500 447 M 271.480 448.032 C 271.092 448.660, 271.245 449.645, 271.820 450.220 C 273.164 451.564, 276.297 450.392, 275.750 448.749 C 275.194 447.078, 272.364 446.602, 271.480 448.032 M 398.750 448.723 C 400.538 448.945, 403.462 448.945, 405.250 448.723 C 407.038 448.502, 405.575 448.320, 402 448.320 C 398.425 448.320, 396.962 448.502, 398.750 448.723 M 322.250 452.735 C 324.863 452.941, 329.137 452.941, 331.750 452.735 C 334.363 452.529, 332.225 452.360, 327 452.360 C 321.775 452.360, 319.637 452.529, 322.250 452.735 M 268 456.294 C 268 458.871, 270.545 461.788, 271.745 460.588 C 272.128 460.205, 271.858 459.530, 271.144 459.089 C 270.430 458.648, 269.993 457.482, 270.173 456.497 C 270.353 455.513, 269.938 454.511, 269.250 454.270 C 268.470 453.998, 268 454.759, 268 456.294 M 277 455.441 C 277 456.234, 277.450 457.160, 278 457.500 C 278.550 457.840, 279 457.191, 279 456.059 C 279 454.927, 278.550 454, 278 454 C 277.450 454, 277 454.648, 277 455.441 M 273 458.893 C 273 459.384, 273.712 460.059, 274.582 460.393 C 276.817 461.251, 277 461.183, 277 459.500 C 277 458.667, 276.111 458, 275 458 C 273.900 458, 273 458.402, 273 458.893 M 276.707 464.011 C 276.421 465.105, 276.547 466, 276.987 466 C 278.162 466, 279.054 463.152, 278.070 462.543 C 277.607 462.257, 276.993 462.917, 276.707 464.011 M 199.250 465.689 C 200.213 465.941, 201.787 465.941, 202.750 465.689 C 203.713 465.438, 202.925 465.232, 201 465.232 C 199.075 465.232, 198.287 465.438, 199.250 465.689 M 219.667 477.667 C 218.629 478.704, 218.883 482, 220 482 C 220.550 482, 221.007 481.438, 221.015 480.750 C 221.027 479.835, 221.262 479.865, 221.894 480.863 C 222.623 482.014, 222.842 482.014, 223.300 480.863 C 223.598 480.113, 223.891 480.625, 223.951 482 C 224.047 484.190, 224.187 484.283, 225.080 482.750 C 225.641 481.788, 226.829 481, 227.721 481 C 228.613 481, 230.168 480.253, 231.177 479.339 C 232.187 478.426, 233.219 477.885, 233.471 478.138 C 233.724 478.390, 233.440 481.725, 232.841 485.548 C 232.242 489.372, 232.010 496.100, 232.326 500.500 C 232.892 508.391, 235.980 519.472, 238.170 521.473 C 238.985 522.217, 239.098 521.950, 238.580 520.500 C 235.132 510.850, 233.841 491.458, 236.063 482.693 L 237.125 478.500 242.636 478.227 C 245.943 478.062, 247.911 478.334, 247.558 478.906 C 245.969 481.477, 245.117 495.482, 246.081 503.172 C 247.787 516.783, 248.713 515.092, 248.442 498.856 C 248.187 483.563, 248.189 483.547, 248.937 495 C 249.653 505.957, 251.441 515.536, 252.942 516.464 C 253.325 516.701, 253.004 513.880, 252.229 510.197 C 250.807 503.435, 250.968 485.379, 252.483 481.750 C 253.998 478.123, 254.663 480.209, 253.759 485.750 C 252.444 493.809, 253.452 506.466, 255.930 513 C 257.867 518.108, 257.970 518.215, 257.384 514.500 C 255.153 500.372, 255.439 484.786, 258.017 479.968 C 258.558 478.958, 259 477.877, 259 477.566 C 259 476.761, 220.473 476.860, 219.667 477.667 M 260.705 479.750 C 260.026 483.286, 260.635 483.847, 262.526 481.427 C 263.966 479.583, 264.008 479.608, 263.505 482 C 263.216 483.375, 263.322 484.959, 263.740 485.520 C 264.723 486.840, 270.115 489.218, 270.730 488.603 C 270.990 488.343, 271.531 485.739, 271.933 482.815 C 272.596 477.985, 272.736 477.758, 273.460 480.329 C 273.898 481.886, 273.986 485.486, 273.656 488.329 C 273.325 491.173, 273.441 494.118, 273.912 494.873 C 274.459 495.749, 275.075 493.212, 275.612 487.873 L 276.454 479.500 277.083 494.500 C 277.570 506.125, 278.192 510.837, 279.847 515.442 C 282.087 521.672, 284.825 525.684, 283.640 521 C 280.636 509.124, 279.791 501.926, 280.249 492.095 C 280.763 481.051, 281.436 478, 283.357 478 C 284.165 478.001, 284.515 482.759, 284.551 494.250 C 284.585 504.875, 285.024 511.365, 285.819 513 C 286.842 515.103, 286.938 514.309, 286.423 508 C 285.281 494.031, 286.102 478, 287.958 478 C 288.362 478, 288.487 483.512, 288.235 490.250 C 287.763 502.872, 288.759 511.183, 291.648 518.747 C 293.844 524.500, 295.154 524.161, 293.389 518.297 C 291.300 511.356, 289.818 496.359, 290.544 489.500 L 291.178 483.500 322.589 483.778 C 347.544 483.998, 354.006 483.792, 354.030 482.778 C 354.082 480.616, 356.119 484.893, 358.114 491.354 L 360.013 497.500 359.478 492.295 C 359.184 489.432, 358.276 485.200, 357.461 482.889 C 355.868 478.374, 356.063 477.427, 358.403 478.324 C 362.082 479.736, 365.914 502.926, 364.264 513.796 C 363.681 517.635, 363.671 519.729, 364.238 519.162 C 364.750 518.650, 365.642 514.858, 366.220 510.735 C 367.217 503.631, 366.342 494.550, 363.451 482 L 362.875 479.500 364.479 482 C 365.980 484.339, 366.044 484.355, 365.474 482.250 C 365.120 480.942, 365.312 480, 365.933 480 C 366.520 480, 367 480.648, 367 481.441 C 367 482.234, 367.468 483.171, 368.040 483.525 C 368.711 483.940, 368.880 483.163, 368.517 481.334 C 367.955 478.505, 367.956 478.504, 369.082 481 C 370.156 483.379, 370.248 483.403, 370.990 481.500 C 371.701 479.679, 371.837 479.752, 372.509 482.310 C 372.963 484.038, 373.750 484.926, 374.553 484.618 C 376.544 483.854, 378.004 492.461, 377.976 504.799 C 377.963 510.685, 377.546 517.251, 377.050 519.391 C 376.306 522.596, 376.375 523.036, 377.443 521.891 C 381.007 518.064, 382.184 497.352, 379.539 485.010 C 378.107 478.330, 378.154 477.359, 379.856 478.411 C 383.074 480.400, 385.348 508.489, 383.081 518.250 C 382.185 522.112, 383.367 523.569, 384.501 519.998 C 385.468 516.949, 386.804 502.279, 386.441 498.683 C 386.264 496.932, 385.870 493.025, 385.565 490 C 385.260 486.975, 384.537 482.813, 383.958 480.750 L 382.906 477 322.070 477 L 261.233 477 260.705 479.750 M 374.079 481.583 C 374.127 482.748, 374.364 482.985, 374.683 482.188 C 374.972 481.466, 374.936 480.603, 374.604 480.271 C 374.272 479.939, 374.036 480.529, 374.079 481.583 M 266 482.833 C 266 485.193, 266.841 485.998, 268.598 485.324 C 270.810 484.475, 270.329 481, 268 481 C 266.727 481, 266 481.667, 266 482.833 M 181.229 486.188 C 181.847 488.042, 184 488.349, 184 486.583 C 184 485.712, 183.287 485, 182.417 485 C 181.546 485, 181.011 485.534, 181.229 486.188 M 259.676 487.402 C 259.051 489.031, 259.891 490.186, 261.139 489.414 C 262.275 488.712, 262.250 486, 261.107 486 C 260.616 486, 259.972 486.631, 259.676 487.402 M 292.245 487.236 C 292.570 488.211, 299.805 488.560, 323.921 488.764 C 348.762 488.974, 355.090 488.769, 354.755 487.764 C 354.430 486.789, 347.195 486.440, 323.079 486.236 C 298.238 486.026, 291.910 486.231, 292.245 487.236 M 183.449 493.468 C 181.472 498.200, 181.605 499.280, 184.500 502 C 187.198 504.535, 187.727 504.137, 185.788 501.032 C 184.392 498.797, 185.209 497.482, 187.457 498.345 C 189.280 499.045, 189.447 501.925, 187.865 505.398 C 186.311 508.808, 184.108 509.466, 183.126 506.812 C 182.650 505.525, 182.061 505.093, 181.661 505.739 C 180.497 507.624, 182.126 510, 184.584 510 C 189.147 510, 192.859 500.002, 189.531 496.674 C 188.610 495.753, 187.214 495, 186.429 495 C 185.643 495, 185 494.550, 185 494 C 185 493.450, 185.450 493, 186 493 C 186.550 493, 187 492.325, 187 491.500 C 187 488.785, 184.925 489.935, 183.449 493.468 M 261.564 492.128 C 260.154 493.238, 259 495.042, 259 496.138 C 259 500.673, 262.957 504.111, 265.627 501.895 C 267.211 500.580, 267.484 497, 266 497 C 265.450 497, 265 497.675, 265 498.500 C 265 500.186, 262.454 500.543, 261.494 498.991 C 260.416 497.246, 262.053 494, 264.011 494 C 266.370 494, 269.044 497.695, 268.254 499.865 C 267.927 500.764, 266.611 502.772, 265.330 504.327 C 263.004 507.149, 262.107 513, 264 513 C 264.550 513, 265 512.168, 265 511.150 C 265 510.133, 266.350 507.436, 268 505.159 C 272.682 498.695, 271.793 492.822, 265.814 490.708 C 264.859 490.370, 263.016 490.986, 261.564 492.128 M 292.543 490.931 C 292.226 491.443, 292.425 492.144, 292.983 492.490 C 293.542 492.835, 307.725 493.032, 324.500 492.927 C 349.548 492.771, 355 492.492, 355 491.368 C 355 490.240, 349.573 490, 324.059 490 C 306.041 490, 292.878 490.389, 292.543 490.931 M 192.446 493.087 C 192.077 493.685, 192.275 494.675, 192.887 495.287 C 193.704 496.104, 194 495.815, 194 494.200 C 194 491.785, 193.481 491.413, 192.446 493.087 M 293 495 C 293 495.645, 304.147 496, 324.441 496 C 344.323 496, 356.109 495.632, 356.500 495 C 356.907 494.341, 346.177 494, 325.059 494 C 304.353 494, 293 494.354, 293 495 M 306.347 498.143 C 311.875 498.631, 324.155 498.636, 334.347 498.156 L 352.500 497.300 324.500 497.287 C 301.833 497.277, 298.376 497.440, 306.347 498.143 M 392 501 C 392 501.640, 400.853 502, 416.559 502 C 432.677 502, 440.906 501.656, 440.500 501 C 440.116 500.378, 430.823 500, 415.941 500 C 400.647 500, 392 500.361, 392 501 M 273 504.583 C 273 505.454, 273.534 505.989, 274.188 505.771 C 276.042 505.153, 276.349 503, 274.583 503 C 273.712 503, 273 503.712, 273 504.583 M 193 510.441 C 193 511.298, 193.450 512, 194 512 C 194.550 512, 195 511.577, 195 511.059 C 195 510.541, 194.550 509.840, 194 509.500 C 193.450 509.160, 193 509.584, 193 510.441 M 268.171 511.097 C 266.496 513.780, 267.569 514.972, 269.402 512.465 C 270.585 510.848, 271.019 510.771, 272.416 511.930 C 274.316 513.507, 275.509 512.768, 274.655 510.543 C 273.795 508.302, 269.698 508.652, 268.171 511.097 M 267.948 518.563 C 266.811 519.933, 266.982 520.043, 269.333 519.453 C 271.118 519.005, 272.877 519.345, 274.594 520.470 C 277.893 522.631, 278.793 521.793, 276.083 519.083 C 273.618 516.618, 269.766 516.372, 267.948 518.563 M 153 534.958 C 205.197 536.909, 437.015 536.932, 484 534.991 C 491.975 534.662, 417.500 534.397, 318.500 534.404 C 219.500 534.411, 145.025 534.660, 153 534.958 M 212 539.953 C 191.187 540.864, 326.327 541.879, 373.500 541.165 C 417.226 540.504, 417.354 540.496, 394 539.883 C 365.524 539.136, 229.463 539.188, 212 539.953 M 420.813 540.683 C 421.534 540.972, 422.397 540.936, 422.729 540.604 C 423.061 540.272, 422.471 540.036, 421.417 540.079 C 420.252 540.127, 420.015 540.364, 420.813 540.683 M 308.312 545.748 C 317.009 545.915, 330.959 545.915, 339.312 545.748 C 347.666 545.581, 340.550 545.444, 323.500 545.445 C 306.450 545.445, 299.616 545.582, 308.312 545.748" stroke="none" fill="black" fill-rule="evenodd"/>
</svg>