<svg xmlns="http://www.w3.org/2000/svg" width="100%" height="auto" viewBox="0 0 1024 538" version="1.1">
	<path d="M 501.500 3.192 C 497.100 4.857, 480.675 10.848, 465 16.505 C 449.325 22.162, 420.750 32.493, 401.500 39.462 C 382.250 46.432, 359.525 54.621, 351 57.661 C 332.902 64.115, 330 66.184, 330 72.631 C 330 80.077, 331.118 80.717, 366.401 93.453 C 383.947 99.787, 398.412 105.088, 398.545 105.234 C 398.679 105.380, 397.956 108.200, 396.938 111.500 C 391.662 128.601, 391.694 127.963, 391.285 225.089 L 390.903 315.678 372.701 323.933 C 351.193 333.688, 347.075 335.968, 341.229 341.357 C 335.989 346.186, 334.118 349.665, 328.246 365.500 C 300.788 439.537, 285.334 501.976, 288.958 524.240 C 290.055 530.985, 291.108 533.153, 294.629 535.922 L 297.270 538 512 538 L 726.730 538 729.371 535.922 C 732.869 533.171, 733.945 530.983, 735.006 524.461 C 738.656 502.034, 724.628 444.878, 696.482 367.500 C 686.507 340.077, 685.885 339.526, 642.803 319.985 L 633.106 315.587 632.701 225.043 C 632.273 129.296, 632.272 129.294, 627.472 112.186 C 626.442 108.516, 626.080 105.550, 626.603 105.070 C 627.867 103.910, 665.894 90.228, 666.413 90.747 C 666.648 90.981, 666.892 99.459, 666.956 109.587 L 667.072 128 664.659 128 C 663.331 128, 661.752 128.594, 661.149 129.321 C 660.546 130.047, 659.362 136.910, 658.519 144.571 C 657.675 152.232, 656.778 159.720, 656.525 161.211 C 655.657 166.335, 657.605 167, 673.490 167 C 681.380 167, 688.548 166.727, 689.418 166.393 C 690.500 165.978, 691 164.507, 691 161.742 C 691 154.912, 687.824 130.575, 686.759 129.250 C 686.207 128.563, 684.676 128, 683.358 128 L 680.961 128 681.230 106.350 L 681.500 84.700 685.500 83.346 C 696.977 79.462, 696.893 66.193, 685.365 62.119 C 679.518 60.053, 639.231 45.524, 594.500 29.350 C 572.500 21.395, 545.236 11.537, 533.912 7.443 C 522.589 3.349, 512.464 0.037, 511.412 0.082 C 510.361 0.126, 505.900 1.526, 501.500 3.192 M 534.116 144.214 C 528.359 159.248, 488.061 172.583, 433 177.674 C 423.375 178.564, 415.095 179.654, 414.600 180.096 C 414.073 180.567, 414.624 185.538, 415.925 192.070 C 426.139 243.336, 447.369 279.924, 476.552 296.554 L 481.912 299.609 463.948 317.552 L 445.984 335.495 451.454 338.142 C 478.420 351.193, 498.072 373.281, 507.574 401.219 C 508.840 404.939, 510.179 410.011, 510.551 412.491 C 511.414 418.246, 512.586 418.246, 513.449 412.491 C 515.690 397.548, 526.456 376.570, 539.002 362.700 C 547.098 353.751, 562.890 342.344, 573.882 337.506 L 578.264 335.577 559.882 317.799 C 539.123 297.722, 540.025 299.926, 550.138 294 C 555.931 290.605, 567.466 279.114, 574.229 270 C 584.012 256.817, 593.162 238.873, 599.979 219.500 C 602.482 212.389, 606 200.872, 606 199.790 C 606 199.569, 601.830 197.277, 596.733 194.696 C 591.636 192.115, 582.610 186.357, 576.675 181.901 C 565.954 173.851, 544.092 153.155, 538.222 145.500 L 535.156 141.500 534.116 144.214" stroke="none" fill="black" fill-rule="evenodd"/>
</svg>