<svg xmlns="http://www.w3.org/2000/svg" width="100%" height="auto" viewBox="0 0 664 1024" version="1.1">
	<path d="M 337 13.646 C 335.329 14.297, 333 16.943, 333 18.191 C 333 18.636, 341.100 19, 351 19 C 360.900 19, 369 18.620, 369 18.155 C 369 17.690, 368.053 16.453, 366.896 15.405 C 365.083 13.763, 362.980 13.470, 351.646 13.281 C 344.416 13.160, 337.825 13.324, 337 13.646 M 387.055 15.925 L 382.610 16.500 392.243 22.841 C 404.174 30.696, 411.469 33.690, 424.412 36.048 C 458.409 42.241, 469.578 46.461, 525.928 74.401 C 541.014 81.880, 553.951 88, 554.678 88 C 557.861 88, 554.721 81.904, 548.191 75.406 C 543.605 70.843, 529.507 61, 527.558 61 C 526.867 61, 519.700 57.848, 511.630 53.995 C 482.740 40.202, 469.528 35.300, 456.357 33.486 C 448.940 32.464, 429.519 25.793, 420 20.996 C 410.787 16.354, 398.432 14.452, 387.055 15.925 M 279.500 22.586 C 269.751 23.971, 263.743 25.629, 249.310 30.917 C 240.461 34.159, 232.305 37.301, 231.186 37.901 C 226.549 40.382, 195.673 50.239, 185 52.645 C 170.825 55.840, 157.419 60.616, 149.500 65.293 C 139.804 71.019, 122.548 86.882, 124.208 88.542 C 124.876 89.209, 134.244 86.386, 141 83.481 C 144.575 81.944, 150.650 79.450, 154.500 77.939 C 158.350 76.427, 168.925 72.183, 178 68.507 C 187.075 64.831, 195.850 61.341, 197.500 60.752 C 199.150 60.163, 204.325 58.216, 209 56.425 C 223.091 51.026, 246.875 43.285, 257.515 40.634 C 266.332 38.437, 292.188 33.439, 305 31.453 C 307.475 31.070, 310.796 29.838, 312.381 28.717 L 315.262 26.678 311.526 24.761 C 308.568 23.244, 305.160 22.774, 295.146 22.502 C 288.191 22.314, 281.150 22.351, 279.500 22.586 M 356.381 31.192 C 356.107 31.636, 357.427 32, 359.315 32 C 363.424 32, 367.970 33.545, 377.984 38.345 C 383.012 40.756, 385.798 41.602, 386.475 40.925 C 387.754 39.646, 386.590 38.901, 377 34.866 C 369.661 31.778, 357.372 29.588, 356.381 31.192 M 308.500 47.056 C 299.510 50.364, 287.729 51.950, 280.993 50.758 C 276.961 50.045, 274.317 50.209, 266.007 51.684 C 264.637 51.928, 260.812 53.829, 257.507 55.910 C 247.096 62.465, 236.287 67.008, 226.176 69.080 C 209.057 72.586, 187.215 80.575, 158.500 93.834 C 152.450 96.628, 143.225 100.011, 138 101.353 C 132.775 102.696, 126.025 104.923, 123 106.303 C 113.878 110.466, 88 132.425, 88 136.002 C 88 137.814, 93.324 139.173, 97.800 138.505 C 106.041 137.274, 111.622 135.014, 121.030 129.099 C 136.097 119.625, 137.889 118.593, 149.500 112.711 C 168.977 102.844, 193.334 91.956, 207 87.008 C 212.775 84.917, 219.852 82.270, 222.727 81.127 C 225.601 79.983, 228.976 78.853, 230.227 78.616 C 231.477 78.379, 236.100 76.999, 240.500 75.549 C 249.353 72.633, 271.906 66.505, 282 64.272 C 291.377 62.199, 368.044 64.215, 385 66.981 C 391.325 68.012, 398.525 69.116, 401 69.432 C 406.759 70.168, 408.816 70.521, 430.500 74.499 C 440.400 76.315, 451.200 78.102, 454.500 78.471 C 471.100 80.326, 486.035 86.122, 496.716 94.855 C 503.638 100.514, 513.083 105.645, 518.163 106.506 C 519.998 106.817, 522.265 107.304, 523.201 107.588 C 524.136 107.871, 526.725 107.613, 528.954 107.013 C 532.914 105.946, 535.150 103.659, 536.426 99.368 C 537.174 96.852, 536.574 96.553, 526.622 94.485 C 513.095 91.674, 502.124 86.195, 491.349 76.869 C 486.264 72.469, 484.633 71.629, 472.500 67.172 C 463.554 63.885, 453.997 61.440, 446.500 60.521 C 443.750 60.184, 438.575 59.488, 435 58.975 C 431.425 58.462, 419.950 57.339, 409.500 56.478 C 399.050 55.617, 385.100 54.291, 378.500 53.531 C 371.900 52.771, 363.800 51.910, 360.500 51.617 C 353.716 51.014, 349.255 50.183, 333.310 46.550 C 327.155 45.147, 320.855 44.025, 319.310 44.056 C 317.764 44.087, 312.900 45.437, 308.500 47.056 M 332.500 76 C 332.160 76.550, 330.805 77, 329.488 77 C 324.186 77, 319 81.837, 319 86.782 C 319 90.627, 320.974 91.016, 339.608 90.838 C 357.203 90.670, 360.413 90.970, 400.933 96.561 C 420.219 99.223, 451.145 106.326, 466.199 111.553 C 471.865 113.520, 478.311 115.759, 480.525 116.528 C 485.873 118.386, 507.473 128.598, 510.838 130.859 C 512.302 131.842, 518.797 136.158, 525.271 140.450 C 531.745 144.742, 537.370 148.774, 537.771 149.411 C 538.172 150.048, 541.540 153.121, 545.254 156.240 C 552.500 162.323, 556.066 163.591, 563.562 162.746 C 569.027 162.130, 571 160.593, 571 156.954 C 571 150.618, 561.861 143.911, 540.320 134.438 C 532.246 130.887, 521.297 125.556, 515.989 122.591 C 471.367 97.667, 423.050 83.038, 372 78.996 C 364.575 78.409, 353.113 77.269, 346.530 76.464 C 332.302 74.724, 333.269 74.756, 332.500 76 M 299.500 79.706 C 289.596 80.621, 263.675 85.271, 255.500 87.600 C 247.242 89.952, 242.921 91.711, 222.500 101.029 C 214.402 104.725, 192.252 114.080, 183.500 117.502 C 167.622 123.710, 144.314 134.622, 128 143.486 C 121.125 147.222, 112.575 151.829, 109 153.723 C 105.425 155.618, 100.925 158.177, 99 159.410 C 97.075 160.643, 92.829 163.365, 89.565 165.459 C 77.612 173.126, 64 188.752, 64 194.804 C 64 198.656, 68.632 202.245, 73.796 202.396 C 77.682 202.509, 77.285 203, 82.322 191.857 C 85.814 184.133, 89.709 179.997, 100.920 172.107 C 109.073 166.370, 131.770 153, 133.357 153 C 134.040 153, 158.684 140.876, 167.500 136.203 C 171.350 134.162, 179.900 130.756, 186.500 128.633 C 212.985 120.113, 218.998 117.752, 225.699 113.238 C 240.034 103.582, 257.304 96.532, 275.339 92.973 C 278.550 92.340, 288.675 91.524, 297.839 91.161 L 314.500 90.500 314.350 87.227 C 314.268 85.427, 313.470 82.840, 312.577 81.477 C 310.889 78.901, 309.803 78.754, 299.500 79.706 M 304.500 106.963 C 279.716 107.879, 273.865 108.996, 243.302 118.648 C 233.300 121.807, 227.071 129.984, 234.048 130.797 C 236.222 131.050, 272.325 123.535, 274.047 122.471 C 274.377 122.267, 280.014 121.166, 286.573 120.024 C 302.643 117.228, 316.361 117.328, 357 120.538 C 394.186 123.475, 399.184 123.430, 403.842 120.113 C 408.436 116.841, 408.180 113.384, 403.250 112.102 C 397.225 110.536, 381.906 109.009, 361.500 107.941 C 329.680 106.274, 325.219 106.198, 304.500 106.963 M 555.534 116.944 C 554.846 118.058, 559.238 124.557, 562.500 127.253 C 564.150 128.616, 567.975 130.976, 571 132.496 C 576.283 135.152, 585.334 141.743, 593.253 148.702 C 597.755 152.659, 599.745 152.864, 600.599 149.461 C 601.046 147.682, 600.296 145.013, 598.094 140.539 C 593.212 130.623, 582.383 121.693, 571 118.198 C 566.653 116.864, 556.112 116.009, 555.534 116.944 M 431.139 120.999 C 429.291 121.435, 427.092 122.479, 426.253 123.319 C 422.801 126.770, 427.076 129.496, 441.684 133.160 C 448.335 134.828, 450.828 136.032, 454.988 139.582 C 460.054 143.907, 462.243 144.800, 473.065 146.956 C 479.328 148.204, 489.862 152.900, 494.744 156.620 C 499.407 160.174, 505.983 162.953, 509.790 162.978 C 517.100 163.027, 525.235 169.739, 529.392 179.151 C 532.393 185.948, 536.824 191.214, 541.346 193.360 C 543.180 194.230, 548.569 195.384, 553.322 195.924 C 558.075 196.464, 564.560 197.958, 567.732 199.245 C 570.904 200.531, 582.539 207.527, 593.586 214.792 C 608.685 224.720, 614.458 228, 616.836 228 C 619.589 228, 620 227.657, 620 225.359 C 620 219.053, 611.936 211.730, 584.500 193.121 C 577.900 188.644, 570.250 183.395, 567.500 181.456 C 558.661 175.225, 537.937 165.394, 526.500 162.006 C 513.873 158.266, 504.577 153.746, 497.526 147.920 C 490.569 142.171, 486.339 139.869, 471 133.482 C 460.417 129.076, 434.508 119.578, 434.501 120.102 C 434.501 120.159, 432.988 120.562, 431.139 120.999 M 324.500 133.518 C 319.550 134.319, 314.375 135.148, 313 135.361 C 311.625 135.574, 303.300 137.162, 294.500 138.890 C 266.791 144.331, 262.422 144.742, 230.564 144.902 C 197.368 145.069, 194.031 145.534, 177 152.360 C 140.508 166.988, 105.628 190.789, 70.750 224.860 C 56.676 238.608, 52.828 243.247, 44.581 256.403 C 38.717 265.757, 37.790 269.597, 40.750 272.270 C 43.196 274.478, 51.324 276.349, 55.261 275.611 C 57.165 275.254, 64.670 270.588, 73.028 264.564 C 95.546 248.338, 122.891 229.670, 129.500 226.011 C 132.800 224.184, 136.175 222.168, 137 221.531 C 139.233 219.806, 161.192 209.733, 171.520 205.696 C 184.238 200.724, 214.299 191.929, 225 190.048 C 227.475 189.612, 237.150 187.658, 246.500 185.704 C 255.850 183.750, 265.300 181.909, 267.500 181.614 C 269.700 181.319, 274.875 180.626, 279 180.074 C 296.413 177.744, 326.778 173.025, 328.566 172.371 C 329.630 171.982, 332.417 170.364, 334.761 168.776 C 341.602 164.141, 345.700 162.849, 353.435 162.889 C 360.747 162.927, 365.578 164.342, 370 167.739 C 372.996 170.040, 375.145 170.881, 379.914 171.616 C 383.433 172.158, 389.554 173.801, 403.500 177.947 C 407.350 179.091, 417.250 181.144, 425.500 182.508 C 451.286 186.771, 463.952 190.076, 487 198.554 C 488.925 199.262, 498.988 203.927, 509.362 208.921 C 519.737 213.914, 528.670 218, 529.214 218 C 530.546 218, 549.574 229.557, 554.144 233.142 C 560.838 238.392, 563.676 236.308, 561.802 227.519 C 560.460 221.228, 555.546 215.031, 549.493 211.997 C 541.864 208.172, 532.093 203.945, 526.063 201.859 C 523.073 200.825, 513.173 196.411, 504.063 192.049 C 476.187 178.703, 456.118 173.479, 430.500 172.903 C 423.945 172.756, 420.222 171.935, 409.890 168.362 C 402.955 165.963, 396.280 164, 395.057 164 C 393.834 164, 389.351 163.111, 385.095 162.024 C 372.268 158.749, 359.356 157.723, 346.670 158.971 C 332.585 160.357, 311.233 163.997, 290 168.633 C 274.789 171.954, 267.369 173.063, 247.500 174.982 C 195.097 180.045, 160.845 191.254, 123.590 215.533 C 104.358 228.066, 88.600 239.829, 78.243 249.383 C 70.945 256.115, 69.539 257, 66.148 257 C 63.536 257, 61.711 256.338, 60.435 254.929 C 58.601 252.902, 58.603 252.778, 60.530 249.198 C 61.692 247.041, 67.015 241.908, 73.500 236.694 C 79.550 231.830, 85.850 226.647, 87.500 225.176 C 93.235 220.064, 128.065 193.060, 135.040 188.318 C 140.972 184.284, 159.978 174.204, 165.953 171.922 C 177.354 167.568, 194.246 162.688, 214.500 157.897 L 236.500 152.693 255.770 152.392 C 276.248 152.071, 283.770 151.300, 304.500 147.394 C 330.434 142.508, 353.459 142.420, 371.254 147.138 C 375.874 148.363, 384.557 149.625, 391 150.008 C 404.989 150.841, 413.281 152.934, 422.500 157.959 C 435.791 165.205, 446.186 166.905, 450.545 162.545 C 453.257 159.834, 453.651 157.769, 451.750 156.240 C 447.810 153.072, 407.927 139.609, 395 137.083 C 372.424 132.673, 339.890 131.027, 324.500 133.518 M 76.192 148.295 C 73.466 151.197, 73.451 152.193, 76.099 154.590 C 78.176 156.469, 78.223 156.458, 80.569 153.516 C 82.619 150.944, 82.764 150.276, 81.634 148.576 C 79.743 145.728, 78.657 145.672, 76.192 148.295 M 584 166.693 C 581.125 167.782, 579 170.326, 579 172.680 C 579 175.604, 582.212 177, 588.943 177 C 595.029 177, 596.191 178.330, 595.365 184.354 L 594.728 189 598.782 189 C 604.236 189, 605.810 188.268, 607.537 184.928 C 610.238 179.705, 608.443 170.337, 604.335 168.212 C 602.143 167.079, 586.138 165.883, 584 166.693 M 489.116 169.360 C 487.228 171.635, 488.162 175.280, 491 176.710 C 492.375 177.403, 495.528 177.977, 498.007 177.985 C 504.833 178.008, 508.742 179.507, 513.568 183.956 C 518.003 188.044, 520.615 188.811, 523.976 187.013 C 525.719 186.080, 525.655 185.718, 522.814 180.472 C 521.159 177.418, 518.837 174.302, 517.653 173.548 C 515.601 172.241, 504.734 169.805, 494.943 168.458 C 491.499 167.984, 490.075 168.204, 489.116 169.360 M 307 189.076 C 282.264 192.473, 272.601 194.122, 260.143 197.073 C 253.347 198.683, 246.597 200.214, 245.143 200.477 C 239.063 201.576, 235.975 202.403, 225.954 205.621 C 220.154 207.483, 213.179 209.631, 210.454 210.394 C 204.971 211.928, 184.574 219.800, 176 223.691 C 163.372 229.422, 141.137 240.627, 136.298 243.698 C 133.437 245.514, 130.800 247, 130.438 247 C 129.616 247, 108.967 259.296, 103.320 263.149 C 101.021 264.717, 98.888 266, 98.581 266 C 98.274 266, 90.480 271.058, 81.261 277.240 C 55.984 294.191, 39.973 311.147, 35.930 325.244 C 34.896 328.850, 36.329 329.527, 41.851 328.040 C 49.267 326.043, 60.848 317.140, 76.446 301.445 C 89.608 288.202, 93.574 284.912, 108 275.266 C 147.620 248.775, 170.401 237.743, 214.500 223.692 C 252.381 211.623, 258.836 209.686, 272.155 206.392 C 290.496 201.857, 298.653 200.352, 309.500 199.502 C 321.175 198.587, 322.647 197.672, 322.167 191.629 C 321.964 189.083, 321.506 187.050, 321.149 187.111 C 320.792 187.172, 314.425 188.056, 307 189.076 M 384.373 191.470 C 384.086 192.219, 383.997 194.094, 384.175 195.638 C 384.478 198.255, 385.078 198.601, 393 200.731 C 424.390 209.169, 425.495 209.542, 459.500 223.192 C 465 225.400, 470.483 227.388, 471.685 227.611 C 472.887 227.834, 475.812 228.847, 478.185 229.862 C 480.558 230.877, 487.450 233.325, 493.500 235.300 C 513.171 241.724, 532.830 252.343, 554.372 268.182 C 566.641 277.202, 571.232 279.863, 584 285.350 C 591.232 288.457, 597.625 291, 598.206 291 C 599.578 291, 598.530 284.344, 596.836 282.302 C 592.937 277.605, 557.602 253.466, 537.308 241.638 C 501.039 220.497, 471.489 208.628, 436 200.945 C 430.775 199.813, 418.850 197.157, 409.500 195.041 C 387.747 190.119, 385.039 189.734, 384.373 191.470 M 57.773 202.067 C 55.109 203.620, 49.760 211.933, 50.383 213.555 C 50.726 214.450, 52.327 215, 54.586 215 C 57.492 215, 59.026 214.209, 62.118 211.118 C 66.597 206.638, 66.712 206.142, 63.961 203.189 C 61.723 200.787, 60.386 200.545, 57.773 202.067 M 314.500 211.685 C 306.807 212.355, 243.588 228.059, 222.500 234.538 C 195.589 242.806, 167.570 254.521, 149.709 264.974 C 139.050 271.212, 111.946 288.916, 107.234 292.718 C 104.888 294.611, 100.211 299.837, 96.840 304.330 C 87.961 316.169, 80.650 323.413, 70.931 330 C 58.862 338.181, 31 363.800, 31 366.718 C 31 368.982, 34.509 372.060, 38.233 373.063 C 43.686 374.531, 45.832 373.461, 58 363.202 C 63.225 358.797, 71.180 352.112, 75.679 348.347 C 80.817 344.045, 88.995 338.756, 97.679 334.118 C 112.354 326.280, 117.172 323.565, 139.708 310.438 C 147.523 305.886, 154.948 301.842, 156.208 301.453 C 157.469 301.063, 160.300 299.707, 162.500 298.438 C 164.700 297.170, 170.550 294.474, 175.500 292.448 C 180.450 290.421, 191.025 286.079, 199 282.797 C 206.975 279.515, 216.200 275.783, 219.500 274.503 C 222.800 273.224, 229.100 270.731, 233.500 268.965 C 246.062 263.923, 257.080 262.041, 280.500 260.938 C 300.569 259.994, 321.725 257.343, 321.912 255.750 C 321.960 255.338, 322 252.075, 322 248.500 L 322 242 314.374 242 C 305.697 242, 293.148 244.633, 249.500 255.609 C 232.024 260.004, 213.852 266.126, 183 278.014 C 178.325 279.815, 171.575 282.380, 168 283.714 C 151.593 289.834, 140.290 295.556, 132.806 301.531 C 126.822 306.308, 123.657 308.067, 118.562 309.446 C 107.540 312.429, 105.956 309.492, 113.900 300.800 C 118.619 295.637, 131.733 286.067, 139 282.484 C 140.925 281.535, 143.175 280.178, 144 279.468 C 145.634 278.061, 173.226 264.950, 175.253 264.617 C 175.939 264.504, 181.900 262.336, 188.500 259.798 C 195.100 257.260, 207.475 252.703, 216 249.672 C 224.525 246.641, 235.061 242.730, 239.414 240.981 C 247.769 237.625, 250.587 236.774, 269 232.052 C 281.942 228.733, 291.456 227.379, 308.675 226.407 C 315.179 226.040, 321.086 225.274, 321.803 224.704 C 322.671 224.013, 322.979 221.949, 322.725 218.516 C 322.306 212.856, 321.503 210.912, 319.691 211.168 C 319.036 211.261, 316.700 211.493, 314.500 211.685 M 384 220.481 C 384 226.408, 384.192 226.999, 386.250 227.391 C 431.060 235.929, 453.022 243.545, 489 263.021 C 505.932 272.187, 509.175 274.172, 515.420 279.193 C 525.074 286.954, 534.615 288.802, 539.850 283.926 C 541.533 282.357, 541.719 281.492, 540.960 278.771 C 539.814 274.662, 535.339 270.802, 527 266.729 C 523.425 264.984, 518.959 262.664, 517.075 261.575 C 504.912 254.545, 473.060 241.411, 437.500 228.763 C 420.221 222.617, 389.642 214, 385.112 214 C 384.410 214, 384 216.393, 384 220.481 M 581.265 227.289 C 579.486 227.955, 578.023 228.838, 578.015 229.250 C 577.838 238.110, 579.953 239.886, 602.500 249.822 C 613.340 254.598, 628.927 260, 631.869 260 C 633.041 260, 634 259.578, 634 259.062 C 634 257.329, 619.556 243.426, 614 239.812 C 605.837 234.501, 590.926 227.021, 587.500 226.518 C 585.850 226.276, 583.044 226.623, 581.265 227.289 M 629.164 234.302 C 626.768 237.190, 630.607 244, 634.632 244 C 637.863 244, 640.521 239.842, 639.048 237.090 C 637.014 233.289, 631.335 231.687, 629.164 234.302 M 384.204 246.688 L 384.500 253.376 389.500 254.669 C 392.250 255.380, 397.132 255.970, 400.349 255.981 C 409.432 256.011, 416.224 251.795, 412.727 248.299 C 411.628 247.199, 387.478 240.059, 384.704 240.013 C 384.267 240.006, 384.042 243.010, 384.204 246.688 M 575.360 249.309 C 571.909 252.471, 571.640 253.073, 572.536 255.621 C 573.718 258.982, 578.765 262.595, 584.409 264.121 C 593.271 266.516, 598.970 269.332, 605.520 274.552 C 609.280 277.548, 613.107 280, 614.023 280 C 616.316 280, 619.248 276.543, 618.838 274.324 C 618.652 273.321, 614.592 269.915, 609.816 266.757 C 605.041 263.598, 597.733 257.860, 593.576 254.007 C 589.420 250.153, 585.453 246.994, 584.760 246.986 C 584.067 246.979, 582.527 246.712, 581.338 246.393 C 579.766 245.971, 578.132 246.768, 575.360 249.309 M 422.073 251.635 C 420.933 253.084, 420 254.884, 420 255.635 C 420 257.794, 423.796 261.029, 428.851 263.179 C 431.408 264.266, 437.775 267.099, 443 269.473 C 460.483 277.417, 470.479 281.764, 473 282.518 C 476.671 283.617, 497.261 294.053, 506.500 299.498 C 510.900 302.091, 519.900 308.138, 526.500 312.936 C 557.099 335.178, 563.946 339.303, 583.903 347.518 C 596.396 352.661, 607.404 361.102, 625.102 379.108 C 639.250 393.503, 642.147 396, 644.697 396 C 651.086 396, 652.794 389.901, 648.250 383.317 C 643.152 375.932, 624.902 360.103, 610.500 350.577 C 597.677 342.095, 566.027 322.827, 563.386 321.894 C 562.773 321.677, 559.173 319.565, 555.386 317.201 C 551.599 314.837, 540.850 308.470, 531.500 303.052 C 522.150 297.635, 511.800 291.572, 508.500 289.580 C 487.813 277.089, 478.952 272.106, 466.500 265.958 C 451.273 258.441, 428.661 249, 425.883 249 C 424.927 249, 423.212 250.186, 422.073 251.635 M 311.500 266.600 C 310.400 267.445, 308.825 268.551, 308 269.056 C 306.740 269.828, 306.900 270.294, 309 271.965 C 311.714 274.126, 315.473 274.531, 319.298 273.077 C 322.047 272.032, 323.460 268.259, 321.836 266.302 C 320.364 264.529, 313.955 264.714, 311.500 266.600 M 384.406 269.386 C 384.113 270.148, 384.015 272.717, 384.187 275.096 L 384.500 279.421 391.068 281.104 C 394.681 282.029, 399.631 283.058, 402.068 283.389 C 404.506 283.721, 415.050 286.246, 425.500 289 C 445.873 294.369, 458.561 299.701, 472.300 308.666 C 490.934 320.825, 506.609 330, 508.746 330 C 512.395 330, 516.770 332.687, 525.167 340.086 C 529.414 343.829, 534.152 347.545, 535.695 348.343 C 538.768 349.933, 564.808 366.668, 572 371.674 C 578.296 376.057, 626.644 416.222, 641.500 429.410 C 647.052 434.340, 648.388 434.137, 647.749 428.462 C 647.028 422.065, 641.802 412.039, 635.723 405.388 C 626.653 395.463, 620.881 391.314, 583.222 367.647 C 578.975 364.978, 572.575 360.606, 569 357.932 C 557.071 349.008, 521.572 324.261, 516.025 321.003 C 513.014 319.234, 508.739 316.566, 506.525 315.075 C 499.772 310.523, 481.192 300.430, 468 294.145 C 431.609 276.808, 386.665 263.497, 384.406 269.386 M 268.483 278.551 C 244.871 281.417, 210.772 290.083, 195.206 297.175 C 178.275 304.890, 160.870 313.531, 154.858 317.207 C 141.515 325.366, 120.319 339.602, 107 349.348 C 102.875 352.367, 92.525 359.566, 84 365.346 C 75.475 371.126, 64.610 379.375, 59.855 383.677 C 43.647 398.343, 28.351 418.522, 29.177 424.148 C 29.683 427.586, 33.921 428.451, 40.730 426.504 C 45.561 425.123, 47.517 423.799, 52.753 418.371 C 56.192 414.806, 59.730 410.488, 60.616 408.776 C 68.255 394.004, 82.189 377.700, 94 369.714 C 96.475 368.041, 104.575 362.299, 112 356.954 C 132.158 342.443, 155.058 328.662, 171 321.447 C 174.025 320.078, 178.750 317.778, 181.500 316.337 C 184.250 314.896, 189.200 312.692, 192.500 311.439 C 195.800 310.186, 201.875 307.792, 206 306.119 C 221.990 299.633, 238.591 293.886, 250.292 290.784 C 261.599 287.786, 263.680 287.546, 278.500 287.527 C 292.743 287.508, 295.668 287.808, 305.136 290.253 C 310.986 291.764, 317.286 292.999, 319.136 292.997 L 322.500 292.995 322.808 286.994 C 323.178 279.767, 323.024 279.670, 308.652 278.067 C 296.366 276.698, 282.371 276.866, 268.483 278.551 M 622.250 282.247 C 619.775 283.041, 619 283.862, 619 285.690 C 619 288.754, 623.444 293.299, 625.767 292.610 C 632.037 290.748, 632.744 290.837, 636.259 293.922 C 640.305 297.475, 645 298.118, 645 295.120 C 645 292.808, 638.277 287.182, 631.283 283.641 C 628.414 282.189, 625.939 281.046, 625.783 281.102 C 625.627 281.158, 624.038 281.673, 622.250 282.247 M 551.455 287.455 C 548.803 290.106, 548.076 296.404, 550.005 300.009 C 550.822 301.536, 566.039 311, 567.678 311 C 567.932 311, 571.371 312.945, 575.320 315.322 C 588.706 323.380, 594.977 324.783, 598.908 320.598 C 603.629 315.572, 600.359 312.055, 585.723 306.416 C 580.167 304.275, 578.004 302.732, 573.723 297.853 C 562.842 285.455, 556.442 282.467, 551.455 287.455 M 384.638 293.776 C 384.334 294.269, 383.973 296.325, 383.837 298.345 C 383.461 303.934, 385.214 304.986, 396.707 306.068 C 415.073 307.796, 426.978 311.827, 441.171 321.123 C 451.778 328.071, 455.790 329.096, 471.750 328.933 C 479.038 328.858, 485 328.426, 485 327.971 C 485 326.085, 479.626 323.150, 473.279 321.570 C 459.645 318.174, 450.278 314.928, 445.653 311.995 C 437.996 307.139, 431.730 304.233, 421.818 300.940 C 405.717 295.590, 385.879 291.768, 384.638 293.776 M 605.571 294.571 C 601.797 298.346, 605.499 302.421, 617.311 307.492 C 625.236 310.893, 636.850 317.909, 639.155 320.687 C 639.851 321.525, 643.025 323.980, 646.210 326.142 C 651.994 330.070, 652 330.072, 652 327.584 C 652 322.619, 649.665 319.998, 639.092 313.091 C 633.266 309.285, 624.450 303.217, 619.500 299.606 C 610.036 292.702, 608.130 292.013, 605.571 294.571 M 264.500 303.124 C 253.812 306.096, 224.089 316.239, 215 320.015 C 181.289 334.020, 156.773 347.243, 137.500 361.816 C 120.487 374.679, 95.031 396.945, 66.984 423.493 C 61.750 428.447, 51.771 437.796, 44.808 444.269 C 26.790 461.020, 18.878 471.965, 15.577 484.704 C 12.198 497.742, 14.570 504.730, 23.157 507.042 C 29.317 508.701, 31.615 507.968, 49.388 498.670 C 61.192 492.494, 70.694 484.426, 95.500 459.515 C 108.700 446.260, 123.100 432.309, 127.500 428.514 C 139.152 418.465, 150 407.742, 150 406.275 C 150 404.616, 144.879 404.624, 138.468 406.294 C 133.043 407.707, 116.419 417.252, 105.764 425.072 C 100.390 429.016, 97.734 432.009, 92.634 439.869 C 85.276 451.208, 79.511 457.161, 62.032 471.476 C 55.139 477.120, 48.409 482.922, 47.076 484.369 C 43.958 487.753, 37.564 488.018, 33.635 484.927 C 26.604 479.397, 34.516 466.329, 49.500 458.724 C 58.286 454.264, 62.284 450.650, 82.536 428.855 C 108.088 401.357, 125.474 384.025, 135.500 376.055 C 146.559 367.264, 158.591 359.565, 166.141 356.448 C 172.044 354.012, 173.002 353.143, 179.500 344.344 C 188.986 331.498, 190.305 330.781, 206.166 329.844 C 217.086 329.199, 220.443 328.566, 229.223 325.498 C 234.876 323.522, 242.650 321.236, 246.500 320.418 C 266.074 316.255, 273.253 312.300, 274.949 304.745 C 275.412 302.679, 275.501 300.844, 275.146 300.666 C 274.791 300.488, 270 301.594, 264.500 303.124 M 302.500 312.491 C 295.112 313.874, 262.295 324.062, 255.500 327.081 L 251.500 328.859 255.500 328.925 C 266.032 329.101, 320.530 325.870, 321.380 325.020 C 321.912 324.488, 322.474 321.116, 322.629 317.526 L 322.912 311 316.206 311.090 C 312.518 311.140, 306.350 311.770, 302.500 312.491 M 384 321.802 C 384 329.324, 383.117 329, 403.607 329 C 414.266 329, 422 328.609, 422 328.071 C 422 327.069, 414.639 324.718, 405.922 322.936 C 399.772 321.679, 389.608 319.333, 386.250 318.395 C 384.185 317.818, 384 318.098, 384 321.802 M 609.200 320.200 C 608.540 320.860, 608 323.482, 608 326.026 C 608 331.922, 609.977 333.858, 620.152 337.928 C 628.097 341.106, 641.025 348.061, 644.500 351.028 C 645.600 351.967, 647.711 353.504, 649.190 354.444 L 651.881 356.152 650.830 352.345 C 648.376 343.458, 639.923 334.840, 624.584 325.586 C 613.411 318.845, 611.295 318.105, 609.200 320.200 M 532.064 364.347 C 531.616 365.531, 530.962 368.300, 530.610 370.500 L 529.969 374.500 538.735 380.782 C 570.789 403.756, 588.514 415, 592.674 415 C 595.927 415, 596 414.905, 596 410.696 C 596 405.506, 595.289 404.767, 576 389.892 C 555.334 373.955, 555.212 373.872, 543.688 367.847 C 533.184 362.355, 532.853 362.256, 532.064 364.347 M 159.573 374.554 C 145.784 379.307, 144.369 380.179, 139.884 386.680 C 136.498 391.588, 136.359 392.586, 138.873 393.932 C 140.356 394.726, 144.472 393.264, 158.623 386.917 C 168.455 382.507, 176.862 378.538, 177.304 378.096 C 178.311 377.089, 175.009 369.982, 173.565 370.049 C 172.979 370.076, 166.683 372.104, 159.573 374.554 M 517.815 386.035 C 515.788 387.105, 513.867 388.406, 513.546 388.926 C 512.488 390.637, 531.081 404.852, 540.474 409.513 C 549.416 413.951, 557 415.472, 557 412.829 C 557 409.826, 525.937 383.896, 522.518 384.044 C 521.958 384.069, 519.842 384.964, 517.815 386.035 M 172.481 392.014 C 165.442 397.081, 164.198 398.670, 164.070 402.750 C 164.009 404.725, 164.496 405, 168.050 405 C 175.176 405, 179.870 401.006, 185.385 390.250 L 187.051 387 183.248 387 C 180.276 387, 177.924 388.095, 172.481 392.014 M 212.859 391.062 C 208.163 392.173, 203.489 394.970, 181 410.131 C 132.059 443.123, 104.416 465.495, 95.285 479.500 C 85.045 495.205, 80.728 500.902, 74.043 507.528 C 66.580 514.926, 62.123 518.182, 51.234 524.189 C 45.729 527.227, 43.366 529.226, 41.484 532.437 C 38.247 537.960, 38.228 541.691, 41.428 543.149 C 43.464 544.077, 44.939 543.749, 50.551 541.123 C 67.320 533.276, 78.459 523.316, 102.131 495 C 116.810 477.442, 133.868 459.855, 146 449.771 C 173.526 426.891, 208.080 405.623, 234.250 395.452 C 239.613 393.368, 244 391.288, 244 390.831 C 244 389.747, 217.590 389.943, 212.859 391.062 M 299.008 391.156 C 282.968 392.376, 266.640 396.371, 264.005 399.721 C 261.381 403.056, 261.476 404.427, 264.465 406.385 C 268.207 408.837, 271.675 408.405, 288.774 403.361 C 307.158 397.938, 310.902 397.102, 317.083 397.044 C 319.604 397.020, 321.889 396.778, 322.161 396.506 C 322.433 396.234, 322.457 394.659, 322.214 393.006 C 321.781 390.052, 321.676 390.002, 316.137 390.141 C 313.036 390.218, 305.329 390.675, 299.008 391.156 M 385.655 391.829 C 381.263 396.682, 383.906 398.290, 405.500 403.901 C 435.954 411.815, 463.068 419.632, 466.778 421.568 C 468.275 422.349, 470.213 422.990, 471.085 422.994 C 472.893 423.001, 486.360 430.992, 496 437.779 C 505.538 444.494, 512.691 450.738, 530.036 467.493 C 549.733 486.519, 558.360 494.145, 569 501.935 C 573.675 505.359, 578.288 509.136, 579.251 510.330 C 583.579 515.694, 590.269 527.447, 592.507 533.617 C 595.411 541.624, 600.347 547.218, 607.500 550.610 C 614.802 554.072, 617 553.536, 617 548.294 C 617 545.258, 609.576 530.385, 604.627 523.506 C 596.583 512.327, 590.766 506.350, 569.500 487.414 C 558.500 477.619, 546.800 467.039, 543.500 463.903 C 536.705 457.445, 533.848 454.900, 515.168 438.663 C 491.105 417.748, 474.971 409.011, 451.008 403.916 C 443.578 402.336, 431.875 399.851, 425 398.392 C 418.125 396.933, 407.239 394.448, 400.808 392.870 C 386.972 389.474, 387.739 389.526, 385.655 391.829 M 469 391.865 C 469 392.921, 472.882 398.036, 474.977 399.739 C 475.814 400.421, 481 403.224, 486.500 405.969 C 499.011 412.211, 505.226 416.900, 550.900 454.553 C 566.429 467.355, 575.648 476.894, 583.032 487.798 C 586.910 493.526, 588.611 495.048, 594.731 498.271 C 600.844 501.490, 602.484 501.946, 605.946 501.393 C 609.974 500.749, 610 500.716, 610 496.332 C 610 487.330, 603.081 478.409, 589 469.257 C 572.614 458.606, 561.364 449.398, 545.500 433.652 C 529.268 417.541, 515.914 406.830, 499.348 396.633 L 490.196 391 479.598 391 C 473.769 391, 469 391.389, 469 391.865 M 243.381 404.869 C 236.705 410.162, 228.921 413.928, 223.244 414.611 C 216.385 415.437, 212 416.955, 212 418.505 C 212 420.284, 216.782 424, 219.071 424 C 220.062 424, 228.326 420.427, 237.436 416.060 C 252.385 408.894, 254 407.874, 254 405.595 C 254 403.276, 251.621 401, 249.196 401 C 248.682 401, 246.065 402.741, 243.381 404.869 M 301 410.566 C 291.375 412.432, 281.475 414.204, 279 414.505 C 274.794 415.016, 262.266 417.986, 243.500 422.922 C 235.348 425.066, 217.809 431.367, 208.142 435.625 C 202.465 438.126, 200.930 438.035, 201.433 435.229 C 202.852 427.318, 203.022 424, 202.008 424 C 199.929 424, 194.043 428.648, 182.266 439.589 C 159.021 461.183, 152.608 466.443, 133.734 479.396 C 123.485 486.430, 120.134 489.346, 116.734 494.192 C 110.716 502.772, 109.741 504.833, 110.422 507.545 C 111.252 510.853, 114.073 512.100, 120.945 512.197 C 126.403 512.275, 127.144 511.998, 131.659 508.190 C 134.327 505.941, 141.602 498.680, 147.825 492.055 C 165.364 473.383, 165.331 473.404, 215 449.117 C 228.475 442.528, 241.975 436.200, 245 435.054 C 253.115 431.980, 280.283 426.701, 312.526 421.934 C 316.390 421.362, 320.177 420.508, 320.941 420.036 C 321.852 419.473, 322.360 417.167, 322.415 413.339 C 322.490 408.190, 322.264 407.481, 320.500 407.337 C 319.400 407.247, 310.625 408.700, 301 410.566 M 384 413.465 C 384 419.902, 385.253 421, 392.602 421 C 398.299 421, 409.355 422.717, 413.500 424.245 C 415.150 424.853, 424.951 429.097, 435.281 433.676 C 445.610 438.254, 454.505 442, 455.047 442 C 458.171 442, 481.168 453.088, 487.970 457.874 C 504.730 469.665, 558.694 521.631, 570.709 537.549 C 577.043 545.941, 581.684 548.876, 585.365 546.815 C 590.386 544.006, 583.581 533.347, 563.331 512.303 C 534.430 482.268, 505.629 457.969, 483 444.527 C 479.425 442.403, 474.925 439.695, 473 438.509 C 468.092 435.484, 448.497 426.164, 442.500 424.002 C 427.035 418.427, 414.840 414.752, 401.253 411.570 C 392.867 409.607, 385.554 408, 385.003 408 C 384.451 408, 384 410.459, 384 413.465 M 566.205 418.606 C 562.578 420.769, 562 421.582, 562 424.522 C 562 428.930, 565.552 432.987, 577.965 442.761 C 591.560 453.466, 596.070 458.008, 606.005 471 C 614.358 481.923, 625.588 493.779, 630.973 497.357 C 637.308 501.567, 640.568 497.873, 639.670 487.500 C 639.157 481.570, 639.065 481.418, 631.825 474.482 C 627.796 470.622, 621.125 464.801, 617 461.545 C 604.826 451.938, 594.445 441.311, 591.097 435.031 C 587.258 427.828, 581.915 422.294, 575.425 418.799 L 570.410 416.098 566.205 418.606 M 602.341 422.768 C 600.611 423.869, 601.873 428.532, 604.593 431.087 C 605.907 432.322, 610.024 434.972, 613.741 436.975 C 619.121 439.875, 621.010 441.547, 623 445.170 C 626.425 451.405, 627.752 452.833, 632.260 455.133 C 639.426 458.788, 643.662 456.022, 640.642 449.658 C 638.615 445.386, 632.866 437.705, 629.163 434.320 C 620.069 426.010, 606.459 420.148, 602.341 422.768 M 384.667 426.667 C 384.300 427.033, 384 429.003, 384 431.044 C 384 434.518, 384.302 434.883, 388.750 436.784 C 391.363 437.901, 397.619 440.201, 402.652 441.895 C 407.686 443.588, 415.336 446.351, 419.652 448.033 C 427.973 451.277, 440.223 453.066, 441.373 451.206 C 442.772 448.942, 437.050 444.973, 425.500 440.194 C 394.386 427.322, 386.593 424.740, 384.667 426.667 M 311.750 431.139 C 308.394 432.393, 308.256 434.347, 311.307 437.398 C 313.266 439.357, 320.549 441.795, 321.514 440.814 C 321.684 440.642, 321.963 438.250, 322.133 435.500 L 322.443 430.500 318.472 430.305 C 316.287 430.198, 313.262 430.573, 311.750 431.139 M 288 434.080 C 286.075 434.430, 280.644 436.300, 275.930 438.235 C 271.217 440.170, 264.785 442.502, 261.636 443.417 C 258.487 444.333, 252.371 446.638, 248.043 448.541 C 243.716 450.443, 239.652 452, 239.012 452 C 237.090 452, 197.792 471.613, 192.454 475.236 C 189.729 477.086, 185.426 479.796, 182.892 481.259 C 173.601 486.621, 161.189 496.640, 148.628 508.918 C 131.487 525.673, 106.093 554.157, 95.314 568.719 C 83.025 585.321, 74.237 595.703, 64.846 604.712 C 58.369 610.927, 56.050 613.976, 53.365 619.805 C 49.409 628.393, 49.232 630.349, 52.223 632.443 C 56.763 635.623, 59.921 634.126, 63.480 627.104 C 64.427 625.237, 68.444 619.837, 72.407 615.104 C 76.370 610.372, 80.262 605.530, 81.056 604.344 C 84.034 599.897, 99.691 580.141, 107.878 570.500 C 118.899 557.521, 146.759 529.623, 159.500 518.807 C 177.607 503.436, 196.279 489.505, 211 480.383 C 255.541 452.781, 257.306 451.970, 277 450.038 C 294.912 448.281, 297.138 447.862, 299.134 445.866 C 301.551 443.449, 301.507 439.914, 299.019 436.751 C 296.828 433.966, 293.310 433.114, 288 434.080 M 385.244 453.156 C 384.560 453.840, 384 455.633, 384 457.140 L 384 459.880 400.250 459.690 C 418.429 459.477, 419.436 459.746, 426.348 466.654 C 430.190 470.494, 434 476.755, 434 479.228 C 434 482.949, 439.363 488.160, 447.293 492.145 C 457.174 497.111, 463.314 501.168, 480.843 514.315 C 494.327 524.429, 498.429 528.897, 499.599 534.744 C 500.455 539.027, 504.770 543.365, 510.260 545.461 C 516.320 547.776, 519.413 547.254, 519.807 543.849 C 520.250 540.020, 517.363 530.928, 514.746 527.912 C 509.324 521.663, 491.204 507.047, 478.500 498.676 C 457.559 484.876, 450.588 479.303, 440.637 468.405 C 434.118 461.265, 424.064 455.682, 414 453.611 C 405.215 451.803, 386.886 451.514, 385.244 453.156 M 306.500 458.083 C 279.442 461, 265 465.375, 237.500 478.986 C 203.841 495.647, 178.074 515.669, 155.241 542.908 C 137.482 564.093, 123.265 580.426, 106.860 598.492 C 99.733 606.340, 92.263 615.629, 85.945 624.500 C 82.419 629.450, 76.311 636.957, 72.370 641.182 C 67.256 646.666, 64.728 650.302, 63.536 653.890 C 60.059 664.358, 63.168 668.764, 72.136 666.077 C 77.846 664.367, 81.118 660.582, 86.319 649.674 C 88.907 644.244, 93.714 636.700, 98.096 631.191 C 102.168 626.071, 108.328 618.196, 111.784 613.691 C 123.123 598.910, 138.668 579.671, 147.493 569.496 C 158.159 557.197, 192.640 522.355, 203.500 512.901 C 231.739 488.321, 257.137 476.712, 300.661 468.494 C 305.700 467.542, 312.672 466.019, 316.156 465.108 C 322.141 463.543, 322.489 463.288, 322.495 460.476 C 322.500 457.693, 322.241 457.491, 318.500 457.360 C 316.300 457.284, 310.900 457.609, 306.500 458.083 M 454.750 459.080 C 453.626 459.735, 453 461.316, 453 463.502 C 453 468.251, 456.993 471.810, 473.161 481.467 C 487.259 489.888, 498.288 496.909, 503.872 501.018 C 505.727 502.383, 516.291 513.850, 527.349 526.500 C 538.407 539.150, 551.298 553.775, 555.996 559 C 582.693 588.688, 596.228 611.573, 603.458 639.246 C 609.553 662.576, 615.947 674.857, 624.531 679.719 C 626.714 680.956, 628.783 681.975, 629.129 681.984 C 629.474 681.993, 630.337 680.600, 631.046 678.889 C 632.122 676.291, 632.057 673.918, 630.652 664.517 C 627.342 642.375, 620.296 627.311, 601.354 601.877 C 594.009 592.015, 584.737 579.972, 580.750 575.114 C 576.762 570.257, 571.475 563.652, 569 560.438 C 548.274 533.523, 522.856 505.968, 495.045 480.265 C 488.650 474.355, 460.699 457.898, 457.282 458.030 C 456.852 458.047, 455.712 458.519, 454.750 459.080 M 645.330 464.583 C 644.597 466.491, 648.315 470.542, 649.899 469.562 C 651.467 468.593, 651.260 466.403, 649.429 464.571 C 647.430 462.573, 646.100 462.576, 645.330 464.583 M 383 466.526 C 383 466.934, 383.522 469.012, 384.161 471.143 C 385.207 474.633, 385.825 475.168, 390.387 476.522 C 393.173 477.350, 398.388 478.278, 401.976 478.586 C 405.564 478.894, 409.095 479.337, 409.822 479.569 C 411.629 480.148, 415 478.227, 415 476.620 C 415 473.769, 410.810 471.816, 399.868 469.565 C 393.616 468.279, 387.262 466.901, 385.750 466.505 C 384.238 466.108, 383 466.117, 383 466.526 M 305.935 481.457 C 276.866 486.441, 247.592 498.897, 224.064 516.291 C 204.497 530.757, 167.709 570.495, 128.979 619 C 110.320 642.368, 100.644 654.053, 90.476 665.500 C 86.568 669.900, 81.191 676.200, 78.529 679.500 C 73.252 686.040, 68 696.493, 68 700.455 C 68 703.987, 72.023 706.420, 76.625 705.673 C 83.258 704.597, 84.158 703.669, 95.214 686.500 C 98.047 682.100, 102.004 676.475, 104.007 674 C 106.009 671.525, 112.323 662.975, 118.038 655 C 128.891 639.853, 130.738 637.468, 150.805 612.692 C 169.614 589.469, 198.203 559.160, 219 540.394 C 243.022 518.718, 274.395 502.734, 306.112 496.011 C 313.909 494.358, 320.919 492.482, 321.691 491.842 C 322.641 491.053, 322.998 489.038, 322.797 485.589 L 322.500 480.500 318 480.330 C 315.525 480.237, 310.096 480.744, 305.935 481.457 M 384.631 484.702 C 383.332 486.001, 384.023 493.880, 385.571 495.429 C 386.436 496.293, 387.448 497.034, 387.821 497.077 C 390.521 497.381, 393.231 498.380, 402.727 502.573 C 418.717 509.632, 443.215 522.406, 454 529.307 C 479.530 545.645, 487.960 553.996, 541.445 615.939 C 559.037 636.313, 558.739 636, 560.571 636 C 562.764 636, 562.309 631.675, 559.388 624.735 C 555.866 616.366, 544.488 597.773, 537.401 588.807 C 531.012 580.723, 490.665 540.048, 482 532.955 C 456.464 512.054, 428.190 497.078, 398 488.465 C 392.775 486.974, 387.772 485.375, 386.881 484.912 C 385.991 484.449, 384.979 484.355, 384.631 484.702 M 384 506.003 C 384 508.661, 384.274 511.549, 384.608 512.421 C 385.170 513.884, 395.502 519.290, 407.500 524.398 C 417.387 528.607, 430.014 536.156, 444.533 546.540 C 463.569 560.155, 464.429 560.604, 467.560 558.552 C 470.405 556.689, 471.578 552.949, 470.154 550.288 C 469.595 549.244, 467.425 547.514, 465.332 546.445 C 463.238 545.375, 457.920 542.420, 453.513 539.878 C 449.106 537.335, 437.400 530.729, 427.500 525.197 C 417.600 519.665, 408.150 514.340, 406.500 513.364 C 404.850 512.387, 399.113 509.244, 393.750 506.378 L 384 501.169 384 506.003 M 301.929 508.071 C 290.204 509.372, 260.568 522.375, 247.500 531.953 C 244.750 533.969, 240.025 537.437, 237 539.661 C 216.620 554.644, 192.930 581.138, 162.482 623 C 157.081 630.425, 151.460 637.850, 149.990 639.500 C 148.520 641.150, 144.692 646.325, 141.484 651 C 136.692 657.984, 128.304 668.830, 126.018 671 C 123.353 673.528, 109.561 689.676, 106.373 694 C 100.386 702.120, 91.791 716.329, 86.964 726.087 C 83.365 733.361, 82.823 735.240, 83.412 738.383 C 84.240 742.794, 87.218 744.557, 92.248 743.613 C 97.403 742.646, 99.661 739.869, 118.419 711.420 C 122.437 705.326, 129.299 696.326, 133.669 691.420 C 146.143 677.413, 158.516 660.757, 171.413 640.612 C 188.599 613.765, 200.937 595.684, 206.629 589 C 207.800 587.625, 212.151 582.450, 216.298 577.500 C 233.171 557.358, 251.133 542.500, 269.545 533.451 C 281.859 527.400, 290.431 524.903, 307.161 522.496 C 324.580 519.989, 323 520.777, 323 514.603 C 323 511.446, 322.470 508.805, 321.709 508.174 C 320.285 506.991, 312.052 506.949, 301.929 508.071 M 633.832 508.490 C 631.193 511.176, 647.352 529, 652.426 529 C 655.674 529, 657.017 526.010, 655.932 521.197 C 655.005 517.088, 651.776 513.460, 646.753 510.884 C 642.729 508.820, 634.927 507.374, 633.832 508.490 M 612.967 510.826 C 611.081 512.353, 610.824 513.246, 611.393 516.282 C 612.067 519.874, 615.909 524, 618.579 524 C 619.299 524, 621.107 522.952, 622.596 521.671 C 625.685 519.014, 625.502 516.179, 621.949 511.662 C 619.497 508.545, 616.167 508.235, 612.967 510.826 M 98 520.705 C 93.826 523.065, 87.535 528.336, 80.417 535.440 C 73.592 542.252, 65.465 549.106, 59.260 553.285 C 46.148 562.114, 42.068 567.401, 44.906 571.882 C 46.142 573.833, 52.168 572.561, 58.928 568.922 C 65.856 565.192, 67 565.217, 67 569.096 C 67 573.265, 63.771 577.528, 57.609 581.493 C 51.283 585.563, 48.536 588.472, 46.567 593.187 C 45.215 596.421, 45.208 597.253, 46.504 600.354 C 48.349 604.770, 49.236 605.305, 52.357 603.883 C 56.134 602.162, 73.457 578.028, 89.080 552.720 C 92.061 547.891, 97.763 540.393, 101.750 536.058 C 108.534 528.682, 109 527.883, 109 523.623 C 109 520.145, 108.543 518.826, 107.066 518.035 C 104.612 516.722, 105.520 516.454, 98 520.705 M 308.001 532.599 C 303.327 533.895, 297.956 535.202, 296.065 535.502 C 290.446 536.395, 274.279 543.960, 265.080 550.001 C 253.670 557.495, 239.990 569.095, 232 578.054 C 219.179 592.429, 201.347 615.460, 189.579 632.844 C 184.585 640.220, 176.967 651.485, 172.649 657.878 C 168.331 664.270, 163.796 672.254, 162.571 675.620 C 159.361 684.435, 155.698 690.223, 148.490 697.863 C 145 701.563, 140.149 707.944, 137.709 712.045 C 126.366 731.110, 118.547 742.869, 108.231 756.377 C 100.888 765.991, 99.060 770.266, 99.583 776.596 C 99.952 781.062, 100.567 782.585, 102.770 784.486 C 105.200 786.583, 105.680 786.680, 107.140 785.365 C 108.043 784.553, 110.260 781.101, 112.067 777.694 C 115.392 771.427, 129.125 752.624, 138.471 741.542 C 150.221 727.611, 154.989 720.883, 160.871 709.935 C 164.289 703.574, 169.533 695.024, 172.524 690.935 C 181.481 678.694, 182.858 676.499, 205.449 638.500 C 207.411 635.200, 211.558 628.225, 214.665 623 C 226.129 603.721, 236.223 592.245, 258.546 573.111 C 264.571 567.947, 271.525 561.840, 274 559.540 C 284.380 549.893, 290.863 546.784, 307.500 543.471 C 322.695 540.446, 322.873 540.367, 322.800 536.730 C 322.709 532.233, 321.315 529.979, 318.715 530.121 C 317.497 530.188, 312.676 531.303, 308.001 532.599 M 384 534.845 C 384 538.218, 384.532 540.149, 385.750 541.199 C 386.712 542.029, 393.350 545.762, 400.500 549.495 C 420.100 559.728, 434.890 572.360, 448.367 590.378 C 450.756 593.571, 456.488 603.652, 461.105 612.780 C 465.722 621.908, 471.003 630.973, 472.841 632.924 C 476.055 636.338, 476.235 636.399, 477.591 634.545 C 480.210 630.963, 478.700 621.993, 473.086 607.770 C 468.653 596.542, 468.549 596, 470.831 596 C 471.913 596, 476.226 599.202, 480.417 603.116 C 491.627 613.585, 493.050 616.902, 504.389 659 C 510.695 682.417, 515.692 716.061, 518.498 754 C 519.640 769.451, 522.040 785.935, 524.557 795.621 C 525.922 800.874, 527.242 806.596, 527.491 808.336 C 527.740 810.076, 528.631 816.283, 529.472 822.128 C 531.385 835.435, 531.429 853.071, 529.580 865.757 C 528.799 871.115, 527.884 878.200, 527.547 881.500 C 526.013 896.526, 519.580 925.479, 514.548 940 C 510.899 950.531, 511.084 954, 515.293 954 C 523.981 954, 537.030 920.294, 542.200 884.500 C 543.008 878.908, 543.465 866.411, 543.408 851.500 C 543.332 831.653, 542.843 823.780, 540.582 806 C 537.876 784.716, 536.560 773.653, 535.466 763 C 535.155 759.975, 534.490 754.800, 533.988 751.500 C 533.486 748.200, 531.470 732.635, 529.509 716.912 C 527.224 698.594, 524.663 682.967, 522.379 673.412 C 520.418 665.210, 518.407 656.522, 517.910 654.105 C 516.785 648.634, 509.375 627.128, 505.004 616.650 C 497.997 599.850, 485.173 587.560, 469.748 582.861 C 462.260 580.580, 459.747 578.076, 458.592 571.746 C 457.745 567.098, 454.589 564.024, 450.561 563.923 C 441.341 563.693, 434.844 559.781, 423.267 547.489 C 417.631 541.505, 412.002 536.486, 409.991 535.652 C 406.848 534.349, 387.664 530, 385.058 530 C 384.460 530, 384 532.105, 384 534.845 M 630.754 531.750 C 629.899 532.712, 628.728 535.232, 628.153 537.349 C 627.209 540.820, 627.342 541.433, 629.508 543.599 C 630.829 544.919, 632.717 546.010, 633.705 546.022 C 639.777 546.096, 647 552.492, 647 557.795 C 647 559.994, 649.977 563, 652.154 563 C 652.978 563, 654.685 561.900, 655.947 560.556 C 659.950 556.295, 656.969 548.138, 650.407 545.397 C 645.708 543.433, 640.224 538.360, 637.921 533.845 C 635.773 529.635, 633.282 528.907, 630.754 531.750 M 384 555.845 C 384 561.536, 385.011 562.696, 394.549 567.945 C 398.843 570.308, 404.902 575.356, 412.619 583 C 426.665 596.915, 431.468 602.991, 436.795 613.589 C 441.134 622.222, 444.463 625.333, 449.361 625.333 C 452.617 625.333, 455 622.833, 455 619.416 C 455 616.222, 429.465 582.646, 420.715 574.334 C 413.752 567.720, 388.372 551, 385.295 551 C 384.413 551, 384 552.545, 384 555.845 M 318.521 553.149 C 316.883 553.589, 314.001 554.194, 312.117 554.494 C 306.641 555.364, 289.267 564.253, 279.671 571.093 C 274.815 574.555, 266.318 582.125, 260.788 587.917 C 250.581 598.608, 246.487 604.218, 235.187 623.005 C 231.715 628.777, 226.836 635.750, 224.344 638.500 C 212.951 651.073, 206.784 664.552, 211.582 666.393 C 214.470 667.501, 217.671 667.022, 219.216 665.250 C 220.055 664.288, 223.143 659, 226.078 653.500 C 232.131 642.156, 238.343 635.329, 247.573 629.881 C 250.913 627.910, 257.694 622.828, 262.643 618.588 C 274.621 608.325, 287.091 600.079, 300.665 593.447 C 312.725 587.554, 317 583.753, 317 578.923 C 317 575.239, 316.147 575.238, 306.096 578.906 C 296.961 582.240, 292.598 585.031, 278.022 596.867 C 267.574 605.350, 260.620 609.965, 258.250 609.988 C 255.216 610.017, 257.722 606.563, 267.806 596.822 C 285.393 579.830, 300.582 571.124, 315.751 569.342 C 318.735 568.991, 321.383 568.166, 321.635 567.508 C 321.887 566.851, 321.960 563.171, 321.797 559.331 L 321.500 552.349 318.521 553.149 M 532.615 556.465 C 529.797 560.766, 530.568 565.242, 535.322 572.187 C 540.499 579.748, 547.776 589.093, 558.210 601.579 C 577.156 624.252, 586.184 641.946, 597.456 678.500 C 603.131 696.906, 604.095 698.880, 610.190 704.581 C 616.207 710.210, 620.724 712.157, 627.088 711.867 C 631.575 711.662, 631.963 711.454, 631.377 709.571 C 629.871 704.727, 628.861 703.008, 621.941 693.500 C 614.087 682.707, 614.530 683.524, 586.331 628 C 564.976 585.954, 562.815 582.079, 555.798 573.252 C 551.231 567.507, 536.597 554, 534.940 554 C 534.550 554, 533.503 555.109, 532.615 556.465 M 588.452 560.336 C 587.787 562.983, 594.376 578.182, 598.574 583.685 C 600.724 586.504, 601.413 586.849, 603.099 585.947 C 604.193 585.361, 605.831 583.325, 606.738 581.422 C 608.171 578.418, 608.213 577.471, 607.056 574.231 C 603.080 563.094, 590.178 553.458, 588.452 560.336 M 619.396 564.410 C 618.626 566.418, 621.617 571.744, 623.927 572.477 C 625 572.817, 627.310 574.727, 629.061 576.722 C 632.192 580.289, 632.234 580.467, 631.583 587.648 C 631.072 593.286, 631.274 595.629, 632.471 597.944 C 635.562 603.922, 640.149 604.505, 644.969 599.532 C 647.757 596.655, 648.303 595.372, 648.171 592.004 C 647.843 583.630, 637.339 568.893, 628.316 564.149 C 625.278 562.551, 620.051 562.704, 619.396 564.410 M 479.667 565.667 C 477.104 568.229, 485.093 580.026, 499.398 594.804 C 509.562 605.304, 532.545 645.617, 535.479 658.090 C 536.308 661.616, 539.258 683.850, 542.035 707.500 C 544.812 731.150, 547.728 752.975, 548.514 756 C 553.131 773.756, 554.463 795.916, 555.425 871 C 555.814 901.289, 556.170 905.235, 558.786 908.246 C 560.021 909.668, 560.584 909.761, 561.807 908.746 C 566.153 905.143, 566.977 896.118, 564.614 878 C 563.602 870.232, 563.475 864.248, 564.128 855 C 565.864 830.422, 566.307 795.683, 565.080 780.391 C 563.639 762.446, 562.784 757.073, 558.905 741.600 C 557.263 735.055, 554.805 723.805, 553.442 716.600 C 547.791 686.733, 546.115 677.169, 545.450 671 C 545.065 667.425, 544.136 662.475, 543.386 660 C 541.652 654.279, 541.658 653, 543.423 653 C 546.982 653, 554.146 663.419, 555.455 670.500 C 555.760 672.150, 556.419 680.506, 556.919 689.068 C 557.692 702.325, 558.340 706.334, 561.282 716.068 C 563.368 722.971, 565.605 733.839, 566.928 743.500 C 569.576 762.838, 571.180 770.900, 575.043 784.291 C 578.430 796.033, 578.909 806.294, 576.479 815.032 C 575.643 818.039, 574.682 825.916, 574.343 832.536 C 573.746 844.213, 573.799 844.654, 576.115 847.348 C 579.188 850.920, 585.771 852.036, 589.471 849.611 C 594.679 846.198, 600 830.856, 600 819.251 C 600 809.308, 597.443 799.907, 591.111 786.571 C 584.422 772.482, 583.366 769.512, 582.618 762.679 C 581.970 756.767, 574.480 718.040, 568.367 689 C 563.483 665.794, 563.262 665.235, 551.731 647 C 541.160 630.281, 539.282 627.772, 526.051 612.673 C 518.905 604.518, 508.818 592.143, 503.636 585.173 C 494.116 572.369, 490.296 568.167, 486.316 566.122 C 483.878 564.870, 480.682 564.651, 479.667 565.667 M 384 581.744 C 384 591.812, 384.020 591.845, 393.775 597.943 C 404.149 604.428, 408.320 610.109, 427.958 644.500 C 433.611 654.400, 439.276 664.075, 440.547 666 C 444.743 672.355, 452.483 695.070, 453.496 704 C 453.901 707.575, 454.414 711.400, 454.636 712.500 C 455.527 716.927, 455.182 742.340, 454.052 755.500 C 453.391 763.200, 451.299 778.725, 449.403 790 C 447.507 801.275, 445.071 817.914, 443.990 826.976 C 442.310 841.053, 442.227 843.655, 443.416 844.844 C 444.605 846.033, 445.407 845.899, 448.927 843.921 C 451.973 842.209, 453.746 840.175, 455.735 836.109 C 458.169 831.134, 458.489 829.138, 459.114 815.056 C 459.796 799.669, 461.452 785.966, 464.741 768.500 C 466.035 761.626, 466.443 753.712, 466.468 735 C 466.498 711.820, 466.346 709.773, 463.649 697 C 459.585 677.751, 452.271 659.427, 439.700 637 C 435.847 630.125, 431.093 622.285, 429.136 619.579 C 427.179 616.872, 423.886 612.147, 421.818 609.079 C 415.464 599.652, 414.744 598.670, 410.108 593.114 C 405.871 588.037, 396.139 580.201, 387.750 575.112 L 384 572.837 384 581.744 M 30.626 583.533 C 29.416 586.686, 30.032 587.856, 33.509 589.003 C 38.615 590.688, 39.430 589.934, 36.771 585.988 C 34.153 582.103, 31.570 581.071, 30.626 583.533 M 309.701 594.375 C 289.084 604.851, 272.123 617.745, 254.008 636.714 C 241.427 649.888, 236.139 657.830, 225.849 679 C 187.463 757.973, 183.902 764.221, 160.012 794.500 C 156.107 799.450, 150.500 806.875, 147.552 811 C 144.605 815.125, 137.850 823.225, 132.541 829 C 121.778 840.709, 117 847.303, 117 850.449 C 117 853.867, 119.807 857, 122.870 857 C 126.163 857, 129.301 853.897, 134.500 845.500 C 136.543 842.200, 143.679 834.100, 150.358 827.500 C 157.036 820.899, 165.179 811.899, 168.452 807.500 C 171.726 803.100, 175.619 798.150, 177.103 796.500 C 181.761 791.322, 201.327 761.151, 210.177 745.500 C 220.576 727.109, 231.949 704.592, 239.873 686.705 C 255.683 651.015, 274.714 629.140, 311.737 604.099 C 316.817 600.662, 321.193 597.497, 321.460 597.064 C 321.728 596.631, 322.150 594.640, 322.398 592.639 C 322.712 590.108, 322.458 589, 321.564 589 C 320.858 589, 315.519 591.419, 309.701 594.375 M 611.667 594.667 C 610.414 595.919, 611.025 598.499, 613.874 604 C 615.441 607.025, 619.958 615.800, 623.911 623.500 C 627.864 631.200, 631.838 638.063, 632.740 638.750 C 635.039 640.500, 639.500 640.307, 641.092 638.389 C 641.834 637.495, 642.429 634.438, 642.429 631.513 C 642.429 626.564, 642.071 625.809, 636.492 618.990 C 625.642 605.729, 614.903 594, 613.610 594 C 612.908 594, 612.033 594.300, 611.667 594.667 M 384.624 601.800 C 383.359 603.847, 383.804 617.594, 385.246 621.028 C 386.048 622.938, 389.300 627.650, 392.473 631.500 C 400.771 641.569, 407.183 651.346, 412.350 661.804 C 417.515 672.260, 422.239 679.494, 424.458 680.346 C 426.262 681.038, 430 677.389, 430 674.936 C 430 673.021, 423.918 659.588, 414.407 640.500 C 408.159 627.961, 404.470 622.791, 389.788 606.008 C 387.286 603.147, 384.961 601.253, 384.624 601.800 M 314.366 619.910 C 308.359 620.918, 294.004 630.824, 283.926 640.915 C 270.116 654.744, 260.125 671.266, 248.501 699.500 C 238.568 723.625, 236.127 729.126, 233.272 733.821 C 231.707 736.394, 229.581 740.075, 228.548 742 C 223.780 750.884, 194.675 795.361, 181.105 814.500 C 169.515 830.846, 160.358 841.588, 149.745 851.288 C 138.996 861.112, 137 864.574, 137 873.395 C 137 880.626, 138.121 884.419, 141.241 887.750 C 144.551 891.283, 148.439 890.719, 151.464 886.268 C 153.699 882.979, 154 881.501, 154 873.833 C 154 869.046, 154.457 863.927, 155.016 862.457 C 156.562 858.392, 160.729 853.862, 169.038 847.212 C 184.474 834.857, 195.947 820.606, 206.646 800.491 C 209.277 795.546, 215.495 785.323, 220.464 777.773 C 232.887 758.901, 233.933 757.141, 240.841 743.500 C 248.379 728.613, 252.963 718.135, 257.026 706.500 C 267.133 677.565, 281.033 657.061, 300.150 642.889 C 305.844 638.668, 308.445 637.454, 314.655 636.123 L 322.221 634.500 322.221 627 C 322.222 618.602, 322.211 618.593, 314.366 619.910 M 457.453 637.400 C 456.076 644.741, 460.866 666.018, 467.495 682 C 472.714 694.584, 478.519 713.043, 480.073 722 C 481.771 731.786, 479.902 755.629, 475.369 782 C 473.998 789.975, 472.446 799.425, 471.921 803 C 471.395 806.575, 469.210 816.250, 467.065 824.500 C 464.921 832.750, 461.714 845.125, 459.940 852 C 450.525 888.472, 445.520 903.468, 437.990 917.760 C 435.796 921.926, 434 926.126, 434 927.094 C 434 928.967, 438.439 933, 440.500 933 C 443.259 933, 446.912 928.664, 449.536 922.274 C 451.066 918.548, 453.986 911.675, 456.025 907 C 461.954 893.407, 469.284 870.909, 470.930 861.252 C 471.376 858.638, 473.404 849.075, 475.438 840 C 477.471 830.925, 479.726 820.125, 480.449 816 C 481.171 811.875, 482.922 803.100, 484.339 796.500 C 488.485 777.187, 488.947 771.129, 488.535 741.500 C 488.075 708.494, 487.071 700.306, 480.560 676.500 C 478.305 668.254, 461.354 634, 459.529 634 C 458.685 634, 457.827 635.405, 457.453 637.400 M 485.919 637.668 C 484.954 639.481, 484.530 643.403, 484.594 649.918 C 484.673 657.953, 485.310 661.589, 488.538 672.443 C 493.353 688.636, 496.668 692.489, 500.609 686.474 C 502.795 683.138, 502.025 677.725, 497.983 668 C 495.748 662.622, 494.774 658.519, 494.543 653.500 C 493.855 638.542, 489.604 630.739, 485.919 637.668 M 568.643 644.266 C 564.696 648.213, 565.072 652.844, 570.001 661.002 C 574.912 669.130, 579.099 680.442, 581.844 693 C 582.987 698.225, 585.509 709.700, 587.448 718.500 C 589.388 727.300, 592.110 741.025, 593.497 749 C 594.883 756.975, 597.378 767.775, 599.042 773 C 600.721 778.274, 602.303 785.836, 602.599 790 C 603.298 799.818, 605.152 804.003, 610.272 807.323 C 615.554 810.748, 616.592 810.689, 618.575 806.855 C 619.759 804.566, 620.043 802.264, 619.621 798.393 C 618.835 791.185, 616.080 780.264, 613.971 776 C 610.745 769.474, 604.127 748.439, 601.999 737.944 C 600.834 732.200, 599.397 725.558, 598.806 723.185 C 597.353 717.358, 598.742 716.071, 602.800 719.485 C 606.219 722.362, 609.339 729.700, 611.474 739.884 C 612.949 746.922, 614.692 749, 619.120 749 C 623.328 749, 625.319 746.394, 624.590 741.839 C 623.192 733.097, 619.917 727.022, 611.313 717.208 C 600.469 704.842, 593.329 693.995, 591.428 687 C 586.732 669.717, 578.959 651.162, 573.651 644.561 L 571.287 641.622 568.643 644.266 M 384.419 646.131 C 382.919 648.558, 383.849 668.594, 385.914 678.360 C 387.062 683.783, 388 689.226, 388 690.455 C 388 693.187, 391.380 696.452, 393.404 695.675 C 394.218 695.363, 395.577 694.048, 396.426 692.754 C 397.801 690.654, 397.811 689.435, 396.516 681.450 C 394.489 668.953, 391.467 657.304, 388.526 650.654 C 385.892 644.699, 385.542 644.314, 384.419 646.131 M 318.500 650.794 C 316.850 650.979, 311.802 652.908, 307.283 655.078 C 300.239 658.462, 298.294 659.988, 293.661 665.763 C 286.694 674.448, 278.398 688.004, 272.708 700 C 262.495 721.531, 258.838 730.127, 256.912 737.126 C 254.735 745.037, 248.490 759.370, 243.678 767.500 C 242.050 770.250, 239.587 774.525, 238.204 777 C 236.821 779.475, 233.729 784.650, 231.334 788.500 C 228.938 792.350, 225.296 798.562, 223.239 802.304 C 221.183 806.047, 214.726 816.397, 208.891 825.304 C 197.601 842.541, 187.933 853.334, 176.364 861.619 C 168.879 866.979, 166.081 870.551, 162.750 879 C 159.926 886.165, 156.994 904.069, 158.002 908 C 158.354 909.375, 159.761 911.129, 161.129 911.897 C 165.310 914.247, 169.830 912.589, 178.533 905.512 C 182.915 901.949, 190.550 896.252, 195.500 892.851 C 215.699 878.977, 232.156 864.035, 245.451 847.500 C 265.530 822.526, 278.309 798.226, 284.030 774.137 C 285.282 768.865, 288.353 761.051, 292.223 753.290 C 297.407 742.893, 298.478 739.852, 298.814 734.574 C 299.498 723.835, 295.683 720.808, 290.213 727.750 C 285.709 733.466, 281.523 742.494, 278.505 753 C 274.513 766.902, 272.566 771.676, 263.212 790.500 C 245.904 825.330, 238.336 835.460, 218.096 850.886 C 205.586 860.420, 198.812 867.259, 191.235 878 C 188.714 881.575, 185.717 885.566, 184.575 886.870 C 181.911 889.912, 175.171 894.224, 174.107 893.566 C 172.604 892.637, 174.801 883.337, 178.041 876.918 C 182.054 868.969, 189.992 860.635, 206.039 847.523 C 221.828 834.621, 231.115 824.604, 240.840 809.987 C 249.664 796.724, 254.175 787.418, 263.614 763 C 267.442 753.099, 275.912 734.644, 283.121 720.500 C 311.034 665.733, 311.730 664.621, 318.998 663.134 C 322.215 662.476, 322.250 662.407, 322.250 656.693 C 322.250 653.516, 322.081 650.813, 321.875 650.686 C 321.669 650.560, 320.150 650.608, 318.500 650.794 M 407.368 677.250 C 410.392 688.332, 410.439 688.866, 410.506 713 C 410.544 726.475, 410.944 738.288, 411.395 739.250 C 411.895 740.320, 413.329 741, 415.084 741 C 419.618 741, 420.691 738.109, 421.339 724.146 C 421.942 711.144, 422.134 712.536, 415.610 682.546 C 413.541 673.034, 412.815 671.224, 410.098 668.796 C 404.398 663.703, 404.004 664.923, 407.368 677.250 M 201.635 671.851 C 200.714 672.869, 195.320 682.656, 189.649 693.601 C 170.453 730.647, 169.784 731.618, 134.500 773.598 C 129 780.142, 123.675 786.397, 122.666 787.498 C 117.388 793.259, 109 810.716, 109 815.940 C 109 821.021, 117.193 820.540, 124.824 815.012 C 129.267 811.794, 132.790 805.826, 135.360 797.164 C 137.788 788.980, 140.236 785.720, 156.505 769 C 175.087 749.903, 181.486 741.211, 189.628 724 C 198.732 704.756, 201.724 699.345, 207.483 691.706 C 217.622 678.255, 217.733 677.272, 209.644 672.531 C 204.484 669.507, 203.808 669.450, 201.635 671.851 M 319.906 689.690 C 319.307 691.235, 318.415 697.225, 317.925 703 C 316.550 719.212, 314.214 731.189, 309.342 747 C 301.595 772.139, 295.552 788.865, 289.916 800.769 C 287.762 805.317, 286 809.199, 286 809.395 C 286 809.592, 283.156 814.870, 279.681 821.126 C 267.079 843.806, 255.043 859.326, 229.190 886.230 C 218.450 897.406, 217.895 898.189, 218.190 901.750 C 218.626 907.025, 221.163 907.050, 230.686 901.876 C 239.613 897.025, 246.745 890.864, 259.325 877.133 C 276.915 857.934, 287.323 842.293, 299.343 817 C 309.150 796.365, 320.549 766.301, 322.094 757 C 323.231 750.155, 323.010 688.124, 321.847 687.405 C 321.379 687.116, 320.506 688.144, 319.906 689.690 M 304.080 694.719 C 299.344 700.464, 296.543 712.175, 298.990 716 C 301.523 719.959, 310.172 709.794, 311.826 700.915 C 312.578 696.878, 312.406 696.011, 310.388 693.665 C 309.127 692.199, 307.882 691, 307.621 691 C 307.359 691, 305.766 692.674, 304.080 694.719 M 428.759 699.185 C 429.166 702.658, 429.477 721.025, 429.450 740 C 429.408 768.376, 429.098 775.984, 427.700 782.860 C 426.725 787.655, 426 795.799, 426 801.955 C 426 811.522, 425.776 812.893, 423.941 814.553 C 422.354 815.990, 421.496 816.169, 420.191 815.335 C 418.700 814.383, 418.521 812.255, 418.673 797.378 C 418.823 782.785, 419.195 779.178, 421.423 770.737 C 424.425 759.367, 424.517 757.901, 422.482 753.965 C 420.581 750.289, 416.633 749.118, 414.043 751.461 C 410.675 754.509, 408.125 773.282, 407.109 802.500 C 406.290 826.064, 405.962 829.321, 403.603 837.265 C 402.171 842.086, 401 846.941, 401 848.055 C 401 850.759, 404.178 856.837, 407.412 860.318 C 411.883 865.130, 413.805 863.888, 419.508 852.500 C 430.098 831.356, 434.320 820.864, 438.621 805 C 440.828 796.864, 441.317 792.341, 442.027 773.500 C 443.244 741.240, 443.080 710.095, 441.674 706.489 C 438.928 699.448, 435.093 695.110, 430.259 693.580 C 428.049 692.881, 428.028 692.961, 428.759 699.185 M 497.750 699.080 C 495.435 700.429, 495.513 704.698, 497.972 711.169 C 499.057 714.024, 500.295 718.866, 500.722 721.930 C 501.740 729.222, 501.660 753.052, 500.577 764.714 C 499.847 772.586, 499.964 774.297, 501.384 776.464 C 503.842 780.214, 507.339 779.805, 510.030 775.452 C 512.181 771.971, 512.214 771.367, 511.786 743.702 C 511.391 718.238, 511.146 714.944, 509.257 709.771 C 505.511 699.506, 502.238 696.466, 497.750 699.080 M 390.278 709.250 C 388.215 711.916, 388.172 713.950, 390.128 716.436 C 392.720 719.731, 394.224 719.666, 398.234 716.081 L 401.500 713.163 399.076 710.581 C 396.474 707.811, 391.924 707.123, 390.278 709.250 M 388.482 732.661 C 387.076 734.067, 386.931 735.566, 387.541 742.411 C 389.353 762.761, 389.456 767.462, 388.328 778.608 C 386.964 792.081, 379.098 831.216, 376.395 837.972 C 373.399 845.459, 367.491 855.532, 362.508 861.649 C 359.906 864.844, 357.315 868.592, 356.751 869.979 C 353.527 877.909, 354.239 890.497, 358.147 894.657 C 361.422 898.143, 365.854 897.778, 369.809 893.697 C 372.245 891.183, 374.179 886.942, 377.900 875.947 C 380.589 868.001, 383.465 859.925, 384.292 858 C 388.163 848.990, 392.001 831, 393.466 815 C 397.428 771.745, 398.248 755.896, 397.128 744.188 C 396.586 738.517, 395.605 733.230, 394.949 732.438 C 393.357 730.521, 390.525 730.618, 388.482 732.661 M 623.482 759.030 C 623.093 759.659, 623.242 760.642, 623.814 761.214 C 625.174 762.574, 630.260 761.286, 629.744 759.713 C 629.215 758.103, 624.380 757.575, 623.482 759.030 M 623.630 772.250 C 622.111 777.918, 625.005 786, 628.553 786 C 629.862 786, 630.039 785.127, 629.575 780.965 C 629.001 775.810, 626.625 770, 625.091 770 C 624.619 770, 623.962 771.013, 623.630 772.250 M 330.994 772.250 C 330.990 772.388, 329.417 779.475, 327.498 788 C 324.070 803.231, 324.041 803.543, 325.855 806 C 327.281 807.931, 328.758 808.569, 332.342 808.804 C 339.600 809.281, 341.420 806.820, 342.974 794.431 C 344.774 780.086, 344.555 779.243, 338 775.309 C 333.117 772.378, 331.014 771.460, 330.994 772.250 M 368.500 775.057 C 365.200 776.611, 361.712 777.909, 360.750 777.941 C 357.330 778.056, 355.207 781.556, 354.488 788.265 C 353.957 793.230, 354.162 795.412, 355.382 797.771 C 358.619 804.031, 368.302 804.184, 371.487 798.025 C 372.806 795.475, 375.556 775.036, 374.837 773.127 C 374.652 772.635, 371.800 773.503, 368.500 775.057 M 500.464 785.401 C 495.474 787.575, 492.833 795.387, 490.964 813.500 C 490.340 819.550, 488.562 830.350, 487.012 837.500 C 485.463 844.650, 483.452 854.775, 482.543 860 C 476.436 895.110, 469.268 918.489, 457.251 942.500 C 446.048 964.883, 438.712 976.080, 427.111 988.500 C 417.889 998.373, 413 1004.625, 413 1006.543 C 413 1008.404, 415.497 1009.005, 419.025 1007.993 C 422.194 1007.084, 434.608 997.645, 438.732 993.009 C 442.885 988.340, 452.260 973.142, 462.795 954 C 464.157 951.525, 466.697 947.025, 468.440 944 C 474.394 933.667, 482.406 914.812, 486.712 901 C 488.975 893.742, 492.885 872.788, 494.522 859.143 C 497.643 833.123, 499.285 824.014, 504.157 805.678 C 506.908 795.325, 508.912 786.213, 508.611 785.428 C 507.933 783.662, 504.480 783.651, 500.464 785.401 M 94.154 798.531 L 91.925 801.365 94.712 803.669 C 97.769 806.195, 101.316 806.359, 101.766 803.994 C 101.924 803.165, 100.777 800.960, 99.218 799.092 L 96.384 795.697 94.154 798.531 M 514.030 804.182 C 512.918 806.007, 511.937 808.400, 511.851 809.500 C 511.766 810.600, 511.621 812.175, 511.531 813 C 511.440 813.825, 511.755 815.298, 512.231 816.273 C 513.258 818.381, 510.494 837.846, 502.424 885.340 C 499.587 902.031, 499.539 909.691, 502.259 911.397 C 504.848 913.021, 509.003 910.326, 511.842 905.181 C 514.515 900.339, 515.253 893.669, 516.953 859 C 517.533 847.175, 518.342 832.325, 518.751 826 C 519.988 806.879, 519.780 801.591, 517.777 801.200 C 516.687 800.987, 515.310 802.084, 514.030 804.182 M 360.732 810.130 C 356.854 812.300, 359.909 818, 364.949 818 C 368.339 818, 370.743 815.596, 369.199 813.750 C 366.925 811.031, 362.501 809.140, 360.732 810.130 M 316.073 816.635 C 314.933 818.084, 313.966 820.447, 313.924 821.885 C 313.778 826.917, 311.368 831.266, 305.353 837.358 C 300.276 842.500, 298.857 844.751, 296.636 851.180 C 292.819 862.234, 281.883 880.269, 274.575 887.565 C 271.234 890.900, 262.466 897.570, 255.091 902.385 C 237.812 913.668, 223.187 925.409, 222.373 928.650 C 221.902 930.528, 222.433 931.843, 224.562 934.065 C 229.328 939.039, 235.776 937.818, 245.287 930.142 C 248.154 927.828, 254.550 923.299, 259.500 920.076 C 264.450 916.854, 273.218 909.893, 278.985 904.608 C 284.751 899.324, 289.791 895, 290.185 895 C 291.740 895, 313.191 870.238, 315.161 866.167 C 316.964 862.443, 317.165 860.780, 316.586 854.387 L 315.911 846.943 322.361 840.722 C 329.436 833.897, 331.645 828.846, 330.685 821.692 C 329.948 816.192, 327.591 814, 322.418 814 C 318.993 814, 317.734 814.523, 316.073 816.635 M 349.360 819.460 C 346.468 821.486, 345.245 825.255, 344.643 834 C 344.063 842.428, 341.662 850.389, 336.091 862.356 C 334.006 866.835, 332.015 871.676, 331.665 873.113 C 330.393 878.351, 322.922 887.979, 317.019 891.987 C 313.847 894.141, 311.018 896.512, 310.733 897.255 C 309.963 899.260, 312.542 904.685, 314.853 905.921 C 319.442 908.378, 321.253 907.317, 331.522 896.155 C 337.010 890.191, 343.252 882.751, 345.394 879.623 C 352.366 869.439, 362.917 836.520, 361.425 829.604 C 359.358 820.018, 354.452 815.894, 349.360 819.460 M 432.383 852.583 C 427.822 854.833, 426.844 857.961, 425.866 873.422 C 424.853 889.421, 424.326 891.789, 419.216 903.265 C 415.575 911.442, 413.527 914.991, 400.128 936.345 C 387.653 956.229, 385.384 962.574, 387.961 970.381 C 388.899 973.223, 389.678 974, 391.592 974 C 394.614 974, 395.158 973.129, 408.157 947.500 C 413.736 936.500, 419.310 926.150, 420.543 924.500 C 427.440 915.272, 439.058 885.472, 443.387 865.904 C 445.327 857.135, 444.571 853.548, 440.453 851.982 C 437.046 850.687, 436.082 850.759, 432.383 852.583 M 397.842 870.076 C 387.661 875.301, 377.771 896.607, 374.435 920.500 C 373.113 929.971, 368.288 941.262, 362.637 948.108 C 357.036 954.893, 344.313 966.599, 331.779 976.500 C 325.426 981.518, 322 985.377, 322 987.512 C 322 987.742, 322.929 988.427, 324.065 989.035 C 331.243 992.876, 337.044 990.741, 348.365 980.086 C 363.214 966.113, 367.409 961.860, 373.265 954.843 C 384.241 941.689, 388.721 932.932, 394.658 913.025 C 398.383 900.534, 401.812 894.292, 407.998 888.739 C 411.377 885.705, 412 884.536, 412 881.221 C 412 876.388, 408.642 871.103, 404.500 869.419 C 401.949 868.382, 400.952 868.480, 397.842 870.076 M 339.333 905.604 C 334.369 908.223, 328.945 912.672, 319.500 921.871 C 307.198 933.852, 293.355 944.141, 274.673 955.186 C 269.652 958.155, 267.153 961.324, 266.424 965.647 C 266.159 967.216, 265.789 968.950, 265.602 969.500 C 265.093 971.001, 266.791 975, 267.939 975 C 271.139 975, 329.102 931.909, 343.500 918.826 C 353.496 909.743, 354.537 908.274, 353.605 904.564 C 352.659 900.792, 347.781 901.148, 339.333 905.604 M 201.500 908.399 C 198.750 909.656, 195.047 911.912, 193.270 913.414 C 191.494 914.915, 187.036 917.799, 183.363 919.822 C 179.690 921.845, 176.196 924.288, 175.598 925.250 C 173.174 929.150, 179.469 932.885, 186.304 931.603 C 194.309 930.101, 212 915.285, 212 910.083 C 212 908.743, 207.986 905.693, 206.703 906.058 C 206.591 906.089, 204.250 907.143, 201.500 908.399 M 293.310 912.869 C 281.348 921.819, 262.444 934.730, 257.167 937.554 C 254.234 939.124, 250.788 941.652, 249.508 943.173 C 247.223 945.889, 243.367 955.701, 244.242 956.575 C 246.151 958.484, 289.829 933.461, 297.266 926.198 C 302.314 921.268, 304.438 916.281, 303.047 912.624 C 301.264 907.934, 299.858 907.969, 293.310 912.869 M 499.143 919.327 C 498.537 920.058, 497.081 923.770, 495.907 927.577 C 493.339 935.904, 489.927 942.890, 485.377 949.134 C 481.148 954.937, 480.912 958, 484.693 958 C 488.723 958, 496.627 949.225, 503.447 937.180 C 509.744 926.059, 509.708 926.937, 504.113 920.750 C 501.294 917.633, 500.692 917.461, 499.143 919.327 M 350.205 925.750 C 349.095 926.712, 345.336 930.875, 341.852 935 C 333.551 944.825, 328.642 949.560, 320.740 955.361 C 316.461 958.503, 313.657 961.435, 312.520 963.955 C 310.592 968.231, 311.201 972.003, 313.817 971.994 C 314.743 971.991, 320.371 969.006, 326.325 965.361 C 336.067 959.397, 337.917 957.771, 344.801 949.117 C 349.009 943.828, 354.150 937.524, 356.226 935.109 C 360.433 930.215, 360.869 928.096, 358.171 925.655 C 355.806 923.514, 352.740 923.551, 350.205 925.750 M 212.694 937.952 C 211.212 939.713, 210 941.525, 210 941.979 C 210 942.432, 211.440 943.715, 213.200 944.830 C 219.205 948.632, 222.567 943.096, 217.694 937.431 L 215.388 934.750 212.694 937.952 M 430.283 938.457 C 426.633 940.067, 421.142 948.057, 413.399 963.028 C 408.346 972.798, 402.699 979.484, 397.488 981.866 C 391.998 984.375, 391.610 984.642, 389.680 987.227 C 387.774 989.780, 387.777 989.830, 390.064 993.900 C 394.086 1001.057, 395.797 1000.209, 410.642 983.700 C 424.668 968.100, 427.304 964.943, 434.944 954.582 C 441.197 946.104, 441.917 943.709, 439.280 940.163 C 436.917 936.986, 434.613 936.549, 430.283 938.457 M 476.500 962.731 C 475.400 962.992, 473.703 963.913, 472.729 964.777 C 471.049 966.268, 471.096 966.491, 473.666 969.174 C 476.719 972.360, 478.816 972.664, 482.961 970.520 C 488.590 967.609, 483.218 961.133, 476.500 962.731 M 501.200 963.200 C 499.956 964.444, 499.528 971.194, 500.623 972.290 C 501.568 973.235, 507.831 968.107, 508.568 965.786 C 509.624 962.458, 503.938 960.462, 501.200 963.200 M 289.200 976.200 C 287.619 977.781, 287.685 978.543, 289.571 980.429 C 291.521 982.378, 295.368 982.467, 296.919 980.598 C 297.847 979.479, 297.487 978.771, 295.137 977.098 C 291.740 974.679, 290.855 974.545, 289.200 976.200 M 377.500 978.793 C 376.400 979.035, 374.281 980.099, 372.790 981.156 C 371.300 982.214, 367.809 983.618, 365.032 984.278 C 361.561 985.102, 359.790 986.087, 359.365 987.427 C 358.576 989.912, 362.199 993.009, 365.861 992.978 C 370.314 992.941, 376.545 989.473, 378.845 985.750 C 382.148 980.406, 381.659 977.876, 377.500 978.793 M 464.422 980.418 C 460.204 982.255, 454.228 987.659, 452.307 991.373 C 451.432 993.065, 449.511 998.173, 448.038 1002.725 L 445.359 1011 451.032 1011 L 456.705 1011 461.175 1005.250 C 471.679 991.739, 473.967 986.990, 472.599 981.537 C 471.869 978.628, 469.330 978.281, 464.422 980.418 M 349.977 996.525 L 347.605 999.049 349.785 1001.229 L 351.964 1003.409 354.974 1000.525 C 357.798 997.819, 357.882 997.528, 356.337 995.820 C 354.127 993.378, 352.795 993.525, 349.977 996.525" stroke="none" fill="black" fill-rule="evenodd"/>
</svg>