<svg xmlns="http://www.w3.org/2000/svg" width="100%" height="auto" viewBox="0 0 317 300" version="1.1">
	<path d="M 133.454 22.409 C 132.329 23.676, 130.616 27.589, 129.648 31.106 C 126.461 42.680, 113.732 81.427, 111.920 85.068 C 109.290 90.353, 102.859 95.667, 96.979 97.413 C 88.451 99.946, 67.723 101.357, 57.430 100.106 C 40.230 98.014, 31.443 94.779, 22.299 87.169 L 16.207 82.100 17.489 86.800 C 19.497 94.167, 20.631 96.510, 24.093 100.453 C 30.620 107.887, 41.287 111.611, 67.309 115.539 C 78.283 117.196, 82.757 119.100, 88.261 124.457 C 94.201 130.239, 95.243 133.678, 95.765 149.234 C 96.495 170.968, 92.836 188.286, 84.195 204 C 79.674 212.222, 67.853 231.229, 60.582 241.967 C 52.684 253.633, 53.158 258.290, 61.619 252.161 C 77.847 240.406, 99.472 212.676, 107.026 193.935 C 108.785 189.571, 110.624 186, 111.112 186 C 112.327 186, 112.229 197.207, 110.934 206.519 C 109.699 215.398, 103.677 240.182, 98.551 257.483 C 94.956 269.613, 94.249 275.274, 95.987 278 C 98.453 281.868, 103.889 273.099, 114.582 248 C 128.242 215.939, 133.726 185.147, 131.046 155.552 C 129.976 143.736, 128.763 136.738, 124.536 118 C 123.730 114.425, 123.054 110.219, 123.035 108.653 C 122.992 105.168, 130.133 67.800, 130.729 68.395 C 131.416 69.083, 135.903 89.575, 137.976 101.500 C 141.547 122.034, 142.144 135.577, 141.816 188.500 C 141.567 228.677, 141.773 239.977, 142.785 241.750 C 144.573 244.880, 145.866 244.564, 147.526 240.591 C 149.633 235.549, 150.620 230.517, 155.054 202.208 C 159.657 172.815, 161.457 163.850, 162.324 166 C 163.873 169.847, 166.051 190.530, 167.009 210.500 C 168.712 246.011, 169.804 260.026, 171.486 267.978 C 173.221 276.175, 175.572 280.828, 177.171 279.229 C 181.698 274.702, 183.004 214.463, 180.369 131.681 C 179.985 119.631, 180.110 111.490, 180.686 110.914 C 181.934 109.666, 188.569 116.277, 191.179 121.369 C 193.099 125.115, 193.112 125.579, 191.581 136.050 C 187.521 163.822, 190.972 195.922, 201.106 224.643 C 205.150 236.105, 220.123 266.305, 224.886 272.608 C 229.532 278.755, 231.396 278.933, 231.807 273.270 C 232.036 270.109, 230.439 264.168, 225.494 249.770 C 216.693 224.150, 212.256 206.815, 211.410 194.750 C 211.034 189.387, 211.038 185, 211.420 185 C 211.802 185, 213.688 188.454, 215.611 192.675 C 221.488 205.571, 237.705 226.791, 250.060 237.751 C 270.964 256.295, 277.430 255.896, 263.349 236.929 C 250.671 219.855, 236.846 198.932, 233.792 192.200 C 224.842 172.469, 221.575 139.457, 227.448 128.100 C 229.623 123.895, 234.975 118.714, 239.232 116.694 C 241.178 115.771, 248.110 113.871, 254.635 112.474 C 278.737 107.311, 289.304 102.598, 294.736 94.587 C 297.704 90.211, 298.560 87.967, 300.460 79.587 C 301.083 76.836, 300.778 76.990, 294.982 82.356 C 287.624 89.169, 283.909 91.166, 272.383 94.506 C 261.623 97.624, 248.173 98.796, 232.973 97.940 C 211.337 96.721, 208.427 93.944, 196.369 63 C 191.760 51.175, 186.773 37.782, 185.285 33.237 C 183.797 28.692, 182.111 25.126, 181.540 25.313 C 180.968 25.500, 179.903 27.419, 179.173 29.577 C 177.607 34.206, 178.658 42.620, 182.567 56.740 C 186.267 70.101, 193 96.279, 193 97.300 C 193 97.799, 191.432 96.831, 189.517 95.149 C 184.458 90.707, 179.406 89.442, 172.374 90.854 C 155.631 94.216, 149.370 90.295, 143.968 73.066 C 139.670 59.358, 138.056 50.832, 136.723 34.803 L 135.500 20.106 133.454 22.409 M 154.206 55.143 C 147.406 59.497, 145.026 69.716, 149.118 76.996 C 155.162 87.750, 172.202 87.522, 177.377 76.619 C 181.076 68.823, 178.529 59.344, 171.582 55.050 C 167.027 52.235, 158.677 52.280, 154.206 55.143 M 217.922 60.274 C 209.888 65.688, 207.737 74.463, 212.466 82.532 C 218.423 92.697, 233.734 92.639, 240.045 82.427 C 244.737 74.835, 241.540 63.382, 233.688 59.656 C 228.638 57.260, 222.009 57.519, 217.922 60.274 M 83.209 60.611 C 79.073 62.721, 76.328 66.173, 74.841 71.135 C 71.514 82.240, 83.402 94.137, 94.750 91.060 C 101.566 89.212, 107 82.085, 107 74.992 C 107 70.733, 103.660 64.606, 99.864 61.903 C 95.686 58.928, 87.719 58.310, 83.209 60.611" stroke="none" fill="black" fill-rule="evenodd"/>
</svg>